HubotSans-BlackNarrow.ufo
<glyph name="exclam" format="2">
  <advance width="229"/>
  <unicode hex="0021"/>
  <outline>
    <contour>
      <point x="75" y="247" type="line"/>
      <point x="154" y="247" type="line"/>
      <point x="205" y="545" type="line"/>
      <point x="205" y="729" type="line"/>
      <point x="24" y="729" type="line"/>
      <point x="24" y="545" type="line"/>
    </contour>
    <contour>
      <point x="28" y="0" type="line"/>
      <point x="201" y="0" type="line"/>
      <point x="201" y="181" type="line"/>
      <point x="28" y="181" type="line"/>
    </contour>
  </outline>
</glyph>
<glyph name="numbersign" format="2">
  <advance width="579"/>
  <unicode hex="0023"/>
  <outline>
    <contour>
      <point x="99" y="0" type="line"/>
      <point x="259" y="0" type="line"/>
      <point x="259" y="146" type="line"/>
      <point x="324" y="146" type="line"/>
      <point x="324" y="0" type="line"/>
      <point x="481" y="0" type="line"/>
      <point x="481" y="146" type="line"/>
      <point x="563" y="146" type="line"/>
      <point x="563" y="288" type="line"/>
      <point x="481" y="288" type="line"/>
      <point x="481" y="440" type="line"/>
      <point x="563" y="440" type="line"/>
      <point x="563" y="583" type="line"/>
      <point x="481" y="583" type="line"/>
      <point x="481" y="729" type="line"/>
      <point x="324" y="729" type="line"/>
      <point x="324" y="583" type="line"/>
      <point x="259" y="583" type="line"/>
      <point x="259" y="729" type="line"/>
      <point x="99" y="729" type="line"/>
      <point x="99" y="583" type="line"/>
      <point x="16" y="583" type="line"/>
      <point x="16" y="440" type="line"/>
      <point x="99" y="440" type="line"/>
      <point x="99" y="288" type="line"/>
      <point x="16" y="288" type="line"/>
      <point x="16" y="146" type="line"/>
      <point x="99" y="146" type="line"/>
    </contour>
    <contour>
      <point x="259" y="288" type="line"/>
      <point x="259" y="440" type="line"/>
      <point x="324" y="440" type="line"/>
      <point x="324" y="288" type="line"/>
    </contour>
  </outline>
</glyph>
<glyph name="percent" format="2">
  <advance width="658"/>
  <unicode hex="0025"/>
  <outline>
    <contour>
      <point x="130" y="0" type="line"/>
      <point x="238" y="0" type="line"/>
      <point x="528" y="729" type="line"/>
      <point x="420" y="729" type="line"/>
    </contour>
    <contour>
      <point x="148" y="349" type="curve" smooth="yes"/>
      <point x="240" y="349"/>
      <point x="283" y="408"/>
      <point x="283" y="497" type="curve" smooth="yes"/>
      <point x="283" y="589" type="line" smooth="yes"/>
      <point x="283" y="678"/>
      <point x="240" y="737"/>
      <point x="148" y="737" type="curve" smooth="yes"/>
      <point x="56" y="737"/>
      <point x="13" y="678"/>
      <point x="13" y="589" type="curve" smooth="yes"/>
      <point x="13" y="497" type="line" smooth="yes"/>
      <point x="13" y="408"/>
      <point x="56" y="349"/>
    </contour>
    <contour>
      <point x="148" y="446" type="curve" smooth="yes"/>
      <point x="134" y="446"/>
      <point x="124" y="454"/>
      <point x="124" y="478" type="curve" smooth="yes"/>
      <point x="124" y="608" type="line" smooth="yes"/>
      <point x="124" y="632"/>
      <point x="134" y="640"/>
      <point x="148" y="640" type="curve" smooth="yes"/>
      <point x="162" y="640"/>
      <point x="172" y="632"/>
      <point x="172" y="608" type="curve" smooth="yes"/>
      <point x="172" y="478" type="line" smooth="yes"/>
      <point x="172" y="454"/>
      <point x="162" y="446"/>
    </contour>
    <contour>
      <point x="510" y="-9" type="curve" smooth="yes"/>
      <point x="602" y="-9"/>
      <point x="645" y="50"/>
      <point x="645" y="139" type="curve" smooth="yes"/>
      <point x="645" y="231" type="line" smooth="yes"/>
      <point x="645" y="320"/>
      <point x="602" y="379"/>
      <point x="510" y="379" type="curve" smooth="yes"/>
      <point x="418" y="379"/>
      <point x="375" y="320"/>
      <point x="375" y="231" type="curve" smooth="yes"/>
      <point x="375" y="139" type="line" smooth="yes"/>
      <point x="375" y="50"/>
      <point x="418" y="-9"/>
    </contour>
    <contour>
      <point x="510" y="88" type="curve" smooth="yes"/>
      <point x="496" y="88"/>
      <point x="486" y="96"/>
      <point x="486" y="120" type="curve" smooth="yes"/>
      <point x="486" y="250" type="line" smooth="yes"/>
      <point x="486" y="274"/>
      <point x="496" y="282"/>
      <point x="510" y="282" type="curve" smooth="yes"/>
      <point x="524" y="282"/>
      <point x="534" y="274"/>
      <point x="534" y="250" type="curve" smooth="yes"/>
      <point x="534" y="120" type="line" smooth="yes"/>
      <point x="534" y="96"/>
      <point x="524" y="88"/>
    </contour>
  </outline>
</glyph>
<glyph name="ampersand" format="2">
  <advance width="602"/>
  <unicode hex="0026"/>
  <outline>
    <contour>
      <point x="204" y="-9" type="curve" smooth="yes"/>
      <point x="270" y="-9"/>
      <point x="324" y="11"/>
      <point x="361" y="47" type="curve"/>
      <point x="396" y="0" type="line"/>
      <point x="586" y="0" type="line"/>
      <point x="470" y="166" type="line"/>
      <point x="486" y="192"/>
      <point x="502" y="227"/>
      <point x="509" y="255" type="curve"/>
      <point x="568" y="255" type="line"/>
      <point x="568" y="383" type="line"/>
      <point x="403" y="383" type="line"/>
      <point x="403" y="358" type="line" smooth="yes"/>
      <point x="401" y="327"/>
      <point x="396" y="298"/>
      <point x="389" y="276" type="curve"/>
      <point x="322" y="374" type="line"/>
      <point x="396" y="407"/>
      <point x="440" y="476"/>
      <point x="440" y="548" type="curve" smooth="yes"/>
      <point x="440" y="570" type="line" smooth="yes"/>
      <point x="440" y="669"/>
      <point x="371" y="738"/>
      <point x="258" y="738" type="curve" smooth="yes"/>
      <point x="143" y="738"/>
      <point x="65" y="665"/>
      <point x="65" y="558" type="curve" smooth="yes"/>
      <point x="65" y="533" type="line" smooth="yes"/>
      <point x="65" y="484"/>
      <point x="86" y="433"/>
      <point x="132" y="381" type="curve"/>
      <point x="132" y="372" type="line"/>
      <point x="58" y="331"/>
      <point x="19" y="273"/>
      <point x="19" y="191" type="curve" smooth="yes"/>
      <point x="19" y="163" type="line" smooth="yes"/>
      <point x="19" y="60"/>
      <point x="86" y="-9"/>
    </contour>
    <contour>
      <point x="245" y="122" type="curve" smooth="yes"/>
      <point x="209" y="122"/>
      <point x="185" y="143"/>
      <point x="185" y="179" type="curve" smooth="yes"/>
      <point x="185" y="209" type="line" smooth="yes"/>
      <point x="185" y="231"/>
      <point x="190" y="251"/>
      <point x="204" y="265" type="curve"/>
      <point x="293" y="142" type="line"/>
      <point x="282" y="130"/>
      <point x="264" y="122"/>
    </contour>
    <contour>
      <point x="259" y="451" type="curve"/>
      <point x="239" y="485"/>
      <point x="230" y="512"/>
      <point x="230" y="540" type="curve" smooth="yes"/>
      <point x="230" y="566" type="line" smooth="yes"/>
      <point x="230" y="597"/>
      <point x="242" y="609"/>
      <point x="261" y="609" type="curve" smooth="yes"/>
      <point x="280" y="609"/>
      <point x="292" y="597"/>
      <point x="292" y="566" type="curve" smooth="yes"/>
      <point x="292" y="541" type="line" smooth="yes"/>
      <point x="292" y="509"/>
      <point x="280" y="481"/>
    </contour>
  </outline>
</glyph>
<glyph name="quotesingle" format="2">
  <advance width="197"/>
  <unicode hex="0027"/>
  <anchor x="-6" y="0" name="#entry"/>
  <anchor x="210" y="0" name="#exit"/>
  <outline>
    <contour>
      <point x="59" y="350" type="line"/>
      <point x="136" y="350" type="line"/>
      <point x="183" y="552" type="line"/>
      <point x="183" y="729" type="line"/>
      <point x="14" y="729" type="line"/>
      <point x="14" y="552" type="line"/>
    </contour>
  </outline>
</glyph>
<glyph name="parenleft" format="2">
  <advance width="300"/>
  <unicode hex="0028"/>
  <outline>
    <contour>
      <point x="149" y="-167" type="curve"/>
      <point x="288" y="-167" type="line"/>
      <point x="241" y="-68"/>
      <point x="196" y="124"/>
      <point x="196" y="313" type="curve" smooth="yes"/>
      <point x="196" y="488"/>
      <point x="241" y="680"/>
      <point x="288" y="793" type="curve"/>
      <point x="149" y="793" type="line"/>
      <point x="70" y="692"/>
      <point x="17" y="500"/>
      <point x="17" y="313" type="curve" smooth="yes"/>
      <point x="17" y="124"/>
      <point x="70" y="-68"/>
    </contour>
  </outline>
</glyph>
<glyph name="asterisk" format="2">
  <advance width="257"/>
  <unicode hex="002A"/>
  <outline>
    <contour>
      <point x="95" y="477" type="line"/>
      <point x="161" y="477" type="line"/>
      <point x="161" y="515" type="line"/>
      <point x="147" y="568" type="line"/>
      <point x="189" y="529" type="line"/>
      <point x="221" y="511" type="line"/>
      <point x="253" y="568" type="line"/>
      <point x="222" y="587" type="line"/>
      <point x="167" y="604" type="line"/>
      <point x="222" y="619" type="line"/>
      <point x="253" y="638" type="line"/>
      <point x="221" y="695" type="line"/>
      <point x="189" y="676" type="line"/>
      <point x="147" y="637" type="line"/>
      <point x="161" y="692" type="line"/>
      <point x="161" y="729" type="line"/>
      <point x="95" y="729" type="line"/>
      <point x="95" y="692" type="line"/>
      <point x="110" y="637" type="line"/>
      <point x="67" y="676" type="line"/>
      <point x="35" y="695" type="line"/>
      <point x="4" y="638" type="line"/>
      <point x="35" y="619" type="line"/>
      <point x="89" y="604" type="line"/>
      <point x="35" y="587" type="line"/>
      <point x="4" y="568" type="line"/>
      <point x="35" y="511" type="line"/>
      <point x="67" y="529" type="line"/>
      <point x="110" y="568" type="line"/>
      <point x="95" y="515" type="line"/>
    </contour>
  </outline>
</glyph>
<glyph name="plus" format="2">
  <advance width="500"/>
  <unicode hex="002B"/>
  <outline>
    <contour>
      <point x="174" y="145" type="line"/>
      <point x="324" y="145" type="line"/>
      <point x="324" y="585" type="line"/>
      <point x="174" y="585" type="line"/>
    </contour>
    <contour>
      <point x="30" y="294" type="line"/>
      <point x="470" y="294" type="line"/>
      <point x="470" y="436" type="line"/>
      <point x="30" y="436" type="line"/>
    </contour>
  </outline>
</glyph>
<glyph name="comma" format="2">
  <advance width="211"/>
  <unicode hex="002C"/>
  <anchor x="-4" y="0" name="#entry"/>
  <anchor x="217" y="0" name="#exit"/>
  <anchor x="106" y="546" name="top"/>
  <outline>
    <contour>
      <point x="9" y="-167" type="line"/>
      <point x="121" y="-167" type="line"/>
      <point x="191" y="7" type="line"/>
      <point x="191" y="181" type="line"/>
      <point x="20" y="181" type="line"/>
      <point x="20" y="0" type="line"/>
      <point x="113" y="0" type="line"/>
    </contour>
  </outline>
</glyph>
<glyph name="hyphen" format="2">
  <advance width="356"/>
  <unicode hex="002D"/>
  <outline>
    <contour>
      <point x="20" y="240" type="line"/>
      <point x="336" y="240" type="line"/>
      <point x="336" y="405" type="line"/>
      <point x="20" y="405" type="line"/>
    </contour>
  </outline>
</glyph>
<glyph name="period" format="2">
  <advance width="211"/>
  <unicode hex="002E"/>
  <anchor x="-4" y="0" name="#entry"/>
  <anchor x="204" y="0" name="#exit"/>
  <anchor x="106" y="181" name="_top"/>
  <anchor x="106" y="546" name="top"/>
  <outline>
    <contour>
      <point x="20" y="0" type="line"/>
      <point x="191" y="0" type="line"/>
      <point x="191" y="181" type="line"/>
      <point x="20" y="181" type="line"/>
    </contour>
  </outline>
</glyph>
<glyph name="zero" format="2">
  <advance width="501"/>
  <unicode hex="0030"/>
  <note>
zero
</note>
  <outline>
    <contour>
      <point x="250" y="-9" type="curve" smooth="yes"/>
      <point x="404" y="-9"/>
      <point x="476" y="86"/>
      <point x="476" y="228" type="curve" smooth="yes"/>
      <point x="476" y="501" type="line" smooth="yes"/>
      <point x="476" y="643"/>
      <point x="404" y="738"/>
      <point x="251" y="738" type="curve" smooth="yes"/>
      <point x="97" y="738"/>
      <point x="25" y="643"/>
      <point x="25" y="501" type="curve" smooth="yes"/>
      <point x="25" y="228" type="line" smooth="yes"/>
      <point x="25" y="86"/>
      <point x="97" y="-9"/>
    </contour>
    <contour>
      <point x="250" y="129" type="curve" smooth="yes"/>
      <point x="219" y="129"/>
      <point x="204" y="150"/>
      <point x="204" y="178" type="curve" smooth="yes"/>
      <point x="204" y="551" type="line" smooth="yes"/>
      <point x="204" y="579"/>
      <point x="219" y="600"/>
      <point x="251" y="600" type="curve" smooth="yes"/>
      <point x="282" y="600"/>
      <point x="297" y="579"/>
      <point x="297" y="551" type="curve" smooth="yes"/>
      <point x="297" y="178" type="line" smooth="yes"/>
      <point x="297" y="150"/>
      <point x="282" y="129"/>
    </contour>
    <contour>
      <point x="112" y="303" type="line"/>
      <point x="389" y="303" type="line"/>
      <point x="389" y="426" type="line"/>
      <point x="112" y="426" type="line"/>
    </contour>
  </outline>
</glyph>
<glyph name="one" format="2">
  <advance width="344"/>
  <unicode hex="0031"/>
  <note>
one
</note>
  <outline>
    <contour>
      <point x="131" y="0" type="line"/>
      <point x="311" y="0" type="line"/>
      <point x="311" y="729" type="line"/>
      <point x="164" y="729" type="line"/>
      <point x="137" y="597" type="line"/>
      <point x="17" y="597" type="line"/>
      <point x="17" y="446" type="line"/>
      <point x="131" y="446" type="line"/>
    </contour>
  </outline>
</glyph>
<glyph name="two" format="2">
  <advance width="491"/>
  <unicode hex="0032"/>
  <note>
two
</note>
  <outline>
    <contour>
      <point x="22" y="0" type="line"/>
      <point x="472" y="0" type="line"/>
      <point x="472" y="149" type="line"/>
      <point x="249" y="149" type="line"/>
      <point x="224" y="148" type="line"/>
      <point x="224" y="156" type="line"/>
      <point x="242" y="175" type="line"/>
      <point x="340" y="281" type="line" smooth="yes"/>
      <point x="434" y="377"/>
      <point x="466" y="448"/>
      <point x="466" y="531" type="curve" smooth="yes"/>
      <point x="466" y="655"/>
      <point x="388" y="738"/>
      <point x="247" y="738" type="curve" smooth="yes"/>
      <point x="102" y="738"/>
      <point x="12" y="648"/>
      <point x="19" y="488" type="curve"/>
      <point x="180" y="488" type="line"/>
      <point x="179" y="551"/>
      <point x="194" y="582"/>
      <point x="236" y="582" type="curve" smooth="yes"/>
      <point x="264" y="582"/>
      <point x="287" y="566"/>
      <point x="287" y="526" type="curve" smooth="yes"/>
      <point x="287" y="508" type="line" smooth="yes"/>
      <point x="287" y="487"/>
      <point x="276" y="455"/>
      <point x="246" y="417" type="curve" smooth="yes"/>
      <point x="22" y="151" type="line"/>
    </contour>
  </outline>
</glyph>
<glyph name="three" format="2">
  <advance width="510"/>
  <unicode hex="0033"/>
  <note>
three
</note>
  <outline>
    <contour>
      <point x="254" y="-9" type="curve" smooth="yes"/>
      <point x="392" y="-9"/>
      <point x="492" y="77"/>
      <point x="492" y="202" type="curve" smooth="yes"/>
      <point x="492" y="290"/>
      <point x="449" y="351"/>
      <point x="380" y="363" type="curve"/>
      <point x="380" y="376" type="line"/>
      <point x="447" y="395"/>
      <point x="487" y="460"/>
      <point x="487" y="537" type="curve" smooth="yes"/>
      <point x="487" y="655"/>
      <point x="402" y="738"/>
      <point x="263" y="738" type="curve" smooth="yes"/>
      <point x="109" y="738"/>
      <point x="19" y="638"/>
      <point x="27" y="491" type="curve"/>
      <point x="198" y="491" type="line"/>
      <point x="196" y="538"/>
      <point x="207" y="580"/>
      <point x="252" y="580" type="curve" smooth="yes"/>
      <point x="286" y="580"/>
      <point x="308" y="560"/>
      <point x="308" y="520" type="curve" smooth="yes"/>
      <point x="308" y="503" type="line" smooth="yes"/>
      <point x="308" y="470"/>
      <point x="282" y="436"/>
      <point x="235" y="436" type="curve" smooth="yes"/>
      <point x="175" y="436" type="line"/>
      <point x="175" y="313" type="line"/>
      <point x="237" y="313" type="line" smooth="yes"/>
      <point x="271" y="313"/>
      <point x="312" y="300"/>
      <point x="312" y="240" type="curve" smooth="yes"/>
      <point x="312" y="219" type="line" smooth="yes"/>
      <point x="312" y="178"/>
      <point x="287" y="150"/>
      <point x="249" y="150" type="curve" smooth="yes"/>
      <point x="200" y="150"/>
      <point x="183" y="181"/>
      <point x="187" y="242" type="curve"/>
      <point x="17" y="242" type="line"/>
      <point x="6" y="80"/>
      <point x="92" y="-9"/>
    </contour>
  </outline>
</glyph>
<glyph name="four" format="2">
  <advance width="548"/>
  <unicode hex="0034"/>
  <note>
four
</note>
  <outline>
    <contour>
      <point x="16" y="156" type="line"/>
      <point x="531" y="156" type="line"/>
      <point x="531" y="309" type="line"/>
      <point x="220" y="309" type="line"/>
      <point x="220" y="317" type="line"/>
      <point x="373" y="729" type="line"/>
      <point x="191" y="729" type="line"/>
      <point x="16" y="268" type="line"/>
    </contour>
    <contour>
      <point x="274" y="0" type="line"/>
      <point x="454" y="0" type="line"/>
      <point x="454" y="480" type="line"/>
      <point x="315" y="480" type="line"/>
      <point x="274" y="246" type="line"/>
    </contour>
  </outline>
</glyph>
<glyph name="five" format="2">
  <advance width="508"/>
  <unicode hex="0035"/>
  <note>
five
</note>
  <outline>
    <contour>
      <point x="254" y="-9" type="curve" smooth="yes"/>
      <point x="410" y="-9"/>
      <point x="491" y="83"/>
      <point x="491" y="249" type="curve" smooth="yes"/>
      <point x="491" y="406"/>
      <point x="422" y="493"/>
      <point x="300" y="493" type="curve" smooth="yes"/>
      <point x="253" y="493"/>
      <point x="209" y="470"/>
      <point x="195" y="438" type="curve"/>
      <point x="182" y="438" type="line"/>
      <point x="198" y="581" type="line"/>
      <point x="462" y="581" type="line"/>
      <point x="462" y="729" type="line"/>
      <point x="51" y="729" type="line"/>
      <point x="28" y="306" type="line"/>
      <point x="191" y="307" type="line"/>
      <point x="198" y="345"/>
      <point x="213" y="362"/>
      <point x="247" y="362" type="curve" smooth="yes"/>
      <point x="287" y="362"/>
      <point x="311" y="339"/>
      <point x="311" y="280" type="curve" smooth="yes"/>
      <point x="311" y="226" type="line" smooth="yes"/>
      <point x="311" y="169"/>
      <point x="286" y="149"/>
      <point x="250" y="149" type="curve" smooth="yes"/>
      <point x="198" y="149"/>
      <point x="182" y="182"/>
      <point x="187" y="245" type="curve"/>
      <point x="16" y="245" type="line"/>
      <point x="9" y="93"/>
      <point x="83" y="-9"/>
    </contour>
  </outline>
</glyph>
<glyph name="six" format="2">
  <advance width="520"/>
  <unicode hex="0036"/>
  <note>
six
</note>
  <outline>
    <contour>
      <point x="243" y="-9" type="curve" smooth="yes"/>
      <point x="400" y="-9"/>
      <point x="496" y="62"/>
      <point x="496" y="248" type="curve" smooth="yes"/>
      <point x="496" y="422"/>
      <point x="433" y="490"/>
      <point x="331" y="490" type="curve" smooth="yes"/>
      <point x="268" y="490"/>
      <point x="225" y="465"/>
      <point x="196" y="413" type="curve"/>
      <point x="188" y="413" type="line"/>
      <point x="193" y="448"/>
      <point x="194" y="481"/>
      <point x="194" y="513" type="curve" smooth="yes"/>
      <point x="194" y="556"/>
      <point x="219" y="592"/>
      <point x="267" y="592" type="curve" smooth="yes"/>
      <point x="309" y="592"/>
      <point x="329" y="570"/>
      <point x="331" y="537" type="curve"/>
      <point x="502" y="537" type="line"/>
      <point x="506" y="659"/>
      <point x="424" y="738"/>
      <point x="276" y="738" type="curve" smooth="yes"/>
      <point x="109" y="738"/>
      <point x="24" y="643"/>
      <point x="24" y="469" type="curve" smooth="yes"/>
      <point x="24" y="247" type="line" smooth="yes"/>
      <point x="24" y="81"/>
      <point x="96" y="-9"/>
    </contour>
    <contour>
      <point x="256" y="149" type="curve" smooth="yes"/>
      <point x="218" y="149"/>
      <point x="194" y="160"/>
      <point x="194" y="225" type="curve" smooth="yes"/>
      <point x="194" y="319" type="line"/>
      <point x="204" y="349"/>
      <point x="226" y="362"/>
      <point x="257" y="362" type="curve" smooth="yes"/>
      <point x="302" y="362"/>
      <point x="315" y="332"/>
      <point x="315" y="283" type="curve" smooth="yes"/>
      <point x="315" y="227" type="line" smooth="yes"/>
      <point x="315" y="180"/>
      <point x="307" y="149"/>
    </contour>
  </outline>
</glyph>
<glyph name="seven" format="2">
  <advance width="480"/>
  <unicode hex="0037"/>
  <note>
seven
</note>
  <outline>
    <contour>
      <point x="81" y="0" type="line"/>
      <point x="271" y="0" type="line"/>
      <point x="463" y="576" type="line"/>
      <point x="463" y="729" type="line"/>
      <point x="20" y="729" type="line"/>
      <point x="20" y="447" type="line"/>
      <point x="181" y="447" type="line"/>
      <point x="181" y="582" type="line"/>
      <point x="281" y="582" type="line"/>
      <point x="281" y="564" type="line"/>
    </contour>
  </outline>
</glyph>
<glyph name="eight" format="2">
  <advance width="532"/>
  <unicode hex="0038"/>
  <note>
eight
</note>
  <outline>
    <contour>
      <point x="265" y="-9" type="curve" smooth="yes"/>
      <point x="427" y="-9"/>
      <point x="516" y="76"/>
      <point x="516" y="188" type="curve" smooth="yes"/>
      <point x="516" y="290"/>
      <point x="458" y="348"/>
      <point x="393" y="369" type="curve"/>
      <point x="393" y="379" type="line"/>
      <point x="456" y="397"/>
      <point x="499" y="459"/>
      <point x="499" y="538" type="curve" smooth="yes"/>
      <point x="499" y="666"/>
      <point x="410" y="738"/>
      <point x="265" y="738" type="curve" smooth="yes"/>
      <point x="121" y="738"/>
      <point x="32" y="666"/>
      <point x="32" y="538" type="curve" smooth="yes"/>
      <point x="32" y="459"/>
      <point x="75" y="397"/>
      <point x="138" y="379" type="curve"/>
      <point x="138" y="369" type="line"/>
      <point x="73" y="348"/>
      <point x="16" y="290"/>
      <point x="16" y="188" type="curve" smooth="yes"/>
      <point x="16" y="76"/>
      <point x="104" y="-9"/>
    </contour>
    <contour>
      <point x="265" y="150" type="curve" smooth="yes"/>
      <point x="220" y="150"/>
      <point x="195" y="177"/>
      <point x="195" y="218" type="curve" smooth="yes"/>
      <point x="195" y="241" type="line" smooth="yes"/>
      <point x="195" y="280"/>
      <point x="220" y="308"/>
      <point x="265" y="308" type="curve" smooth="yes"/>
      <point x="311" y="308"/>
      <point x="336" y="280"/>
      <point x="336" y="241" type="curve" smooth="yes"/>
      <point x="336" y="218" type="line" smooth="yes"/>
      <point x="336" y="177"/>
      <point x="311" y="150"/>
    </contour>
    <contour>
      <point x="265" y="437" type="curve" smooth="yes"/>
      <point x="223" y="437"/>
      <point x="199" y="461"/>
      <point x="199" y="499" type="curve" smooth="yes"/>
      <point x="199" y="519" type="line" smooth="yes"/>
      <point x="199" y="555"/>
      <point x="223" y="580"/>
      <point x="265" y="580" type="curve" smooth="yes"/>
      <point x="309" y="580"/>
      <point x="331" y="555"/>
      <point x="331" y="519" type="curve" smooth="yes"/>
      <point x="331" y="499" type="line" smooth="yes"/>
      <point x="331" y="461"/>
      <point x="309" y="437"/>
    </contour>
  </outline>
</glyph>
<glyph name="equal" format="2">
  <advance width="500"/>
  <unicode hex="003D"/>
  <anchor x="250" y="361" name="center"/>
  <outline>
    <contour>
      <point x="29" y="404" type="line"/>
      <point x="471" y="404" type="line"/>
      <point x="471" y="546" type="line"/>
      <point x="29" y="546" type="line"/>
    </contour>
    <contour>
      <point x="29" y="184" type="line"/>
      <point x="471" y="184" type="line"/>
      <point x="471" y="326" type="line"/>
      <point x="29" y="326" type="line"/>
    </contour>
  </outline>
</glyph>
<glyph name="greater" format="2">
  <advance width="500"/>
  <unicode hex="003E"/>
  <outline>
    <contour>
      <point x="42" y="80" type="line"/>
      <point x="465" y="253" type="line"/>
      <point x="465" y="473" type="line"/>
      <point x="42" y="650" type="line"/>
      <point x="42" y="453" type="line"/>
      <point x="264" y="370" type="line"/>
      <point x="264" y="356" type="line"/>
      <point x="42" y="276" type="line"/>
    </contour>
  </outline>
</glyph>
<glyph name="question" format="2">
  <advance width="437"/>
  <unicode hex="003F"/>
  <outline>
    <contour>
      <point x="140" y="225" type="line"/>
      <point x="298" y="225" type="line"/>
      <point x="298" y="234" type="line" smooth="yes"/>
      <point x="298" y="336"/>
      <point x="421" y="422"/>
      <point x="421" y="555" type="curve" smooth="yes"/>
      <point x="421" y="666"/>
      <point x="359" y="739"/>
      <point x="225" y="739" type="curve" smooth="yes"/>
      <point x="93" y="739"/>
      <point x="8" y="667"/>
      <point x="15" y="503" type="curve"/>
      <point x="175" y="503" type="line"/>
      <point x="173" y="558"/>
      <point x="187" y="579"/>
      <point x="215" y="579" type="curve" smooth="yes"/>
      <point x="235" y="579"/>
      <point x="246" y="564"/>
      <point x="246" y="525" type="curve" smooth="yes"/>
      <point x="246" y="443"/>
      <point x="140" y="369"/>
      <point x="140" y="246" type="curve" smooth="yes"/>
    </contour>
    <contour>
      <point x="133" y="0" type="line"/>
      <point x="303" y="0" type="line"/>
      <point x="303" y="168" type="line"/>
      <point x="133" y="168" type="line"/>
    </contour>
  </outline>
</glyph>
<glyph name="at" format="2">
  <advance width="686"/>
  <unicode hex="0040"/>
  <outline>
    <contour>
      <point x="348" y="-101" type="curve" smooth="yes"/>
      <point x="439" y="-101"/>
      <point x="512" y="-71"/>
      <point x="556" y="-18" type="curve"/>
      <point x="500" y="58" type="line"/>
      <point x="469" y="26"/>
      <point x="429" y="7"/>
      <point x="372" y="7" type="curve" smooth="yes"/>
      <point x="249" y="7"/>
      <point x="147" y="101"/>
      <point x="147" y="316" type="curve" smooth="yes"/>
      <point x="147" y="492"/>
      <point x="208" y="630"/>
      <point x="350" y="630" type="curve" smooth="yes"/>
      <point x="455" y="630"/>
      <point x="546" y="551"/>
      <point x="546" y="349" type="curve" smooth="yes"/>
      <point x="546" y="272"/>
      <point x="535" y="211"/>
      <point x="502" y="211" type="curve" smooth="yes"/>
      <point x="483" y="211"/>
      <point x="470" y="234"/>
      <point x="475" y="312" type="curve" smooth="yes"/>
      <point x="486" y="504" type="line"/>
      <point x="414" y="504" type="line"/>
      <point x="404" y="459" type="line"/>
      <point x="396" y="459" type="line"/>
      <point x="383" y="493"/>
      <point x="362" y="514"/>
      <point x="320" y="514" type="curve" smooth="yes"/>
      <point x="247" y="514"/>
      <point x="193" y="444"/>
      <point x="193" y="305" type="curve" smooth="yes"/>
      <point x="193" y="198"/>
      <point x="221" y="108"/>
      <point x="307" y="108" type="curve" smooth="yes"/>
      <point x="361" y="108"/>
      <point x="386" y="142"/>
      <point x="393" y="174" type="curve"/>
      <point x="402" y="174" type="line"/>
      <point x="411" y="135"/>
      <point x="449" y="103"/>
      <point x="505" y="103" type="curve" smooth="yes"/>
      <point x="599" y="103"/>
      <point x="662" y="208"/>
      <point x="662" y="366" type="curve" smooth="yes"/>
      <point x="662" y="588"/>
      <point x="532" y="738"/>
      <point x="351" y="738" type="curve" smooth="yes"/>
      <point x="160" y="738"/>
      <point x="24" y="573"/>
      <point x="24" y="309" type="curve" smooth="yes"/>
      <point x="24" y="71"/>
      <point x="137" y="-101"/>
    </contour>
    <contour>
      <point x="336" y="211" type="curve" smooth="yes"/>
      <point x="315" y="211"/>
      <point x="305" y="239"/>
      <point x="305" y="308" type="curve" smooth="yes"/>
      <point x="305" y="366"/>
      <point x="312" y="411"/>
      <point x="338" y="411" type="curve" smooth="yes"/>
      <point x="362" y="411"/>
      <point x="372" y="377"/>
      <point x="377" y="309" type="curve"/>
      <point x="372" y="248"/>
      <point x="363" y="211"/>
    </contour>
  </outline>
</glyph>
<glyph name="A" format="2">
  <advance width="482"/>
  <unicode hex="0041"/>
  <note>
A
</note>
  <anchor x="290" y="0" name="#exit"/>
  <anchor x="241" y="0" name="bottom"/>
  <anchor x="468" y="0" name="ogonek"/>
  <anchor x="241" y="729" name="top"/>
  <outline>
    <contour>
      <point x="14" y="0" type="line"/>
      <point x="193" y="0" type="line"/>
      <point x="226" y="405" type="line"/>
      <point x="237" y="585" type="line"/>
      <point x="244" y="585" type="line"/>
      <point x="257" y="405" type="line"/>
      <point x="290" y="0" type="line"/>
      <point x="468" y="0" type="line"/>
      <point x="369" y="729" type="line"/>
      <point x="112" y="729" type="line"/>
    </contour>
    <contour>
      <point x="186" y="114" type="line"/>
      <point x="297" y="114" type="line"/>
      <point x="286" y="245" type="line"/>
      <point x="197" y="245" type="line"/>
    </contour>
  </outline>
</glyph>
<glyph name="B" format="2">
  <advance width="484"/>
  <unicode hex="0042"/>
  <note>
B
</note>
  <anchor x="242" y="0" name="bottom"/>
  <anchor x="242" y="729" name="top"/>
  <outline>
    <contour>
      <point x="33" y="0" type="line"/>
      <point x="244" y="0" type="line" smooth="yes"/>
      <point x="382" y="0"/>
      <point x="468" y="83"/>
      <point x="468" y="204" type="curve" smooth="yes"/>
      <point x="468" y="293"/>
      <point x="422" y="357"/>
      <point x="348" y="376" type="curve"/>
      <point x="348" y="383" type="line"/>
      <point x="404" y="401"/>
      <point x="453" y="462"/>
      <point x="453" y="542" type="curve" smooth="yes"/>
      <point x="453" y="653"/>
      <point x="386" y="729"/>
      <point x="251" y="729" type="curve" smooth="yes"/>
      <point x="33" y="729" type="line"/>
    </contour>
    <contour>
      <point x="212" y="145" type="line"/>
      <point x="212" y="584" type="line"/>
      <point x="232" y="584" type="line" smooth="yes"/>
      <point x="260" y="584"/>
      <point x="277" y="561"/>
      <point x="277" y="521" type="curve" smooth="yes"/>
      <point x="277" y="509" type="line" smooth="yes"/>
      <point x="277" y="469"/>
      <point x="262" y="443"/>
      <point x="232" y="443" type="curve" smooth="yes"/>
      <point x="196" y="443" type="line"/>
      <point x="196" y="302" type="line"/>
      <point x="227" y="302" type="line" smooth="yes"/>
      <point x="261" y="302"/>
      <point x="283" y="279"/>
      <point x="283" y="230" type="curve" smooth="yes"/>
      <point x="283" y="216" type="line" smooth="yes"/>
      <point x="283" y="174"/>
      <point x="266" y="145"/>
      <point x="227" y="145" type="curve" smooth="yes"/>
    </contour>
  </outline>
</glyph>
<glyph name="C" format="2">
  <advance width="490"/>
  <unicode hex="0043"/>
  <note>
C
</note>
  <anchor x="252" y="0" name="bottom"/>
  <anchor x="252" y="729" name="top"/>
  <outline>
    <contour>
      <point x="243" y="-9" type="curve" smooth="yes"/>
      <point x="401" y="-9"/>
      <point x="472" y="86"/>
      <point x="472" y="256" type="curve"/>
      <point x="300" y="256" type="line"/>
      <point x="300" y="172"/>
      <point x="296" y="139"/>
      <point x="249" y="139" type="curve" smooth="yes"/>
      <point x="220" y="139"/>
      <point x="203" y="162"/>
      <point x="203" y="190" type="curve" smooth="yes"/>
      <point x="203" y="537" type="line" smooth="yes"/>
      <point x="203" y="569"/>
      <point x="223" y="590"/>
      <point x="249" y="590" type="curve" smooth="yes"/>
      <point x="297" y="590"/>
      <point x="300" y="554"/>
      <point x="300" y="474" type="curve"/>
      <point x="472" y="474" type="line"/>
      <point x="472" y="648"/>
      <point x="398" y="738"/>
      <point x="249" y="738" type="curve" smooth="yes"/>
      <point x="115" y="738"/>
      <point x="24" y="648"/>
      <point x="24" y="492" type="curve" smooth="yes"/>
      <point x="24" y="237" type="line" smooth="yes"/>
      <point x="24" y="81"/>
      <point x="115" y="-9"/>
    </contour>
  </outline>
</glyph>
<glyph name="D" format="2">
  <advance width="497"/>
  <unicode hex="0044"/>
  <note>
D
</note>
  <anchor x="251" y="0" name="bottom"/>
  <anchor x="132" y="365" name="center"/>
  <anchor x="251" y="729" name="top"/>
  <outline>
    <contour>
      <point x="33" y="0" type="line"/>
      <point x="222" y="0" type="line" smooth="yes"/>
      <point x="373" y="0"/>
      <point x="475" y="93"/>
      <point x="475" y="285" type="curve" smooth="yes"/>
      <point x="475" y="444" type="line" smooth="yes"/>
      <point x="475" y="612"/>
      <point x="394" y="729"/>
      <point x="222" y="729" type="curve" smooth="yes"/>
      <point x="33" y="729" type="line"/>
    </contour>
    <contour>
      <point x="212" y="126" type="line"/>
      <point x="212" y="600" type="line"/>
      <point x="193" y="581" type="line"/>
      <point x="242" y="581" type="line" smooth="yes"/>
      <point x="273" y="581"/>
      <point x="298" y="559"/>
      <point x="298" y="495" type="curve" smooth="yes"/>
      <point x="298" y="234" type="line" smooth="yes"/>
      <point x="298" y="183"/>
      <point x="281" y="148"/>
      <point x="242" y="148" type="curve" smooth="yes"/>
      <point x="190" y="148" type="line"/>
    </contour>
  </outline>
</glyph>
<glyph name="E" format="2">
  <advance width="401"/>
  <unicode hex="0045"/>
  <note>
E
</note>
  <anchor x="33" y="0" name="#entry"/>
  <anchor x="201" y="0" name="bottom"/>
  <anchor x="382" y="0" name="ogonek"/>
  <anchor x="201" y="729" name="top"/>
  <anchor x="17" y="729" name="topleft"/>
  <outline>
    <contour>
      <point x="33" y="0" type="line"/>
      <point x="382" y="0" type="line"/>
      <point x="382" y="149" type="line"/>
      <point x="212" y="149" type="line"/>
      <point x="212" y="581" type="line"/>
      <point x="375" y="581" type="line"/>
      <point x="375" y="729" type="line"/>
      <point x="33" y="729" type="line"/>
    </contour>
    <contour>
      <point x="196" y="298" type="line"/>
      <point x="321" y="298" type="line"/>
      <point x="321" y="444" type="line"/>
      <point x="196" y="444" type="line"/>
    </contour>
  </outline>
</glyph>
<glyph name="F" format="2">
  <advance width="380"/>
  <unicode hex="0046"/>
  <note>
F
</note>
  <anchor x="184" y="0" name="bottom"/>
  <anchor x="184" y="729" name="top"/>
  <outline>
    <contour>
      <point x="33" y="0" type="line"/>
      <point x="212" y="0" type="line"/>
      <point x="212" y="581" type="line"/>
      <point x="364" y="581" type="line"/>
      <point x="364" y="729" type="line"/>
      <point x="33" y="729" type="line"/>
    </contour>
    <contour>
      <point x="196" y="292" type="line"/>
      <point x="338" y="292" type="line"/>
      <point x="338" y="436" type="line"/>
      <point x="196" y="436" type="line"/>
    </contour>
  </outline>
</glyph>
<glyph name="G" format="2">
  <advance width="501"/>
  <unicode hex="0047"/>
  <note>
G
</note>
  <anchor x="249" y="0" name="bottom"/>
  <anchor x="249" y="729" name="top"/>
  <outline>
    <contour>
      <point x="190" y="-9" type="curve" smooth="yes"/>
      <point x="253" y="-9"/>
      <point x="305" y="22"/>
      <point x="319" y="69" type="curve"/>
      <point x="327" y="69" type="line"/>
      <point x="342" y="0" type="line"/>
      <point x="474" y="0" type="line"/>
      <point x="474" y="390" type="line"/>
      <point x="248" y="390" type="line"/>
      <point x="248" y="243" type="line"/>
      <point x="308" y="243" type="line"/>
      <point x="308" y="173" type="line"/>
      <point x="303" y="151"/>
      <point x="282" y="138"/>
      <point x="256" y="138" type="curve" smooth="yes"/>
      <point x="224" y="138"/>
      <point x="203" y="156"/>
      <point x="203" y="205" type="curve" smooth="yes"/>
      <point x="203" y="532" type="line" smooth="yes"/>
      <point x="203" y="571"/>
      <point x="220" y="590"/>
      <point x="249" y="590" type="curve" smooth="yes"/>
      <point x="292" y="590"/>
      <point x="297" y="558"/>
      <point x="295" y="472" type="curve"/>
      <point x="473" y="472" type="line"/>
      <point x="473" y="626"/>
      <point x="420" y="738"/>
      <point x="256" y="738" type="curve" smooth="yes"/>
      <point x="113" y="738"/>
      <point x="25" y="649"/>
      <point x="25" y="491" type="curve" smooth="yes"/>
      <point x="25" y="196" type="line" smooth="yes"/>
      <point x="25" y="74"/>
      <point x="84" y="-9"/>
    </contour>
  </outline>
</glyph>
<glyph name="H" format="2">
  <advance width="496"/>
  <unicode hex="0048"/>
  <note>
H
</note>
  <anchor x="248" y="0" name="bottom"/>
  <anchor x="248" y="585" name="center"/>
  <anchor x="248" y="729" name="top"/>
  <anchor x="17" y="729" name="topleft"/>
  <outline>
    <contour>
      <point x="33" y="0" type="line"/>
      <point x="212" y="0" type="line"/>
      <point x="212" y="729" type="line"/>
      <point x="33" y="729" type="line"/>
    </contour>
    <contour>
      <point x="284" y="0" type="line"/>
      <point x="463" y="0" type="line"/>
      <point x="463" y="729" type="line"/>
      <point x="284" y="729" type="line"/>
    </contour>
    <contour>
      <point x="196" y="291" type="line"/>
      <point x="300" y="291" type="line"/>
      <point x="300" y="439" type="line"/>
      <point x="196" y="439" type="line"/>
    </contour>
  </outline>
</glyph>
<glyph name="I" format="2">
  <advance width="401"/>
  <unicode hex="0049"/>
  <note>
I
</note>
  <anchor x="202" y="0" name="bottom"/>
  <anchor x="376" y="0" name="ogonek"/>
  <anchor x="202" y="729" name="top"/>
  <anchor x="376" y="729" name="topleft"/>
  <outline>
    <contour>
      <point x="111" y="132" type="line"/>
      <point x="290" y="132" type="line"/>
      <point x="290" y="598" type="line"/>
      <point x="111" y="598" type="line"/>
    </contour>
    <contour>
      <point x="25" y="0" type="line"/>
      <point x="376" y="0" type="line"/>
      <point x="376" y="148" type="line"/>
      <point x="25" y="148" type="line"/>
    </contour>
    <contour>
      <point x="25" y="581" type="line"/>
      <point x="376" y="581" type="line"/>
      <point x="376" y="729" type="line"/>
      <point x="25" y="729" type="line"/>
    </contour>
  </outline>
</glyph>
<glyph name="J" format="2">
  <advance width="311"/>
  <unicode hex="004A"/>
  <note>
J
</note>
  <anchor x="160" y="0" name="bottom"/>
  <anchor x="191" y="729" name="top"/>
  <outline>
    <contour>
      <point x="16" y="0" type="line"/>
      <point x="143" y="0" type="line" smooth="yes"/>
      <point x="225" y="0"/>
      <point x="280" y="46"/>
      <point x="280" y="140" type="curve" smooth="yes"/>
      <point x="280" y="729" type="line"/>
      <point x="101" y="729" type="line"/>
      <point x="101" y="148" type="line"/>
      <point x="16" y="148" type="line"/>
    </contour>
  </outline>
</glyph>
<glyph name="K" format="2">
  <advance width="544"/>
  <unicode hex="004B"/>
  <note>
K
</note>
  <anchor x="264" y="0" name="bottom"/>
  <anchor x="264" y="729" name="top"/>
  <outline>
    <contour>
      <point x="33" y="0" type="line"/>
      <point x="212" y="0" type="line"/>
      <point x="212" y="208" type="line"/>
      <point x="246" y="275" type="line"/>
      <point x="328" y="0" type="line"/>
      <point x="523" y="0" type="line"/>
      <point x="370" y="445" type="line"/>
      <point x="531" y="729" type="line"/>
      <point x="326" y="729" type="line"/>
      <point x="212" y="458" type="line"/>
      <point x="212" y="729" type="line"/>
      <point x="33" y="729" type="line"/>
    </contour>
  </outline>
</glyph>
<glyph name="L" format="2">
  <advance width="343"/>
  <unicode hex="004C"/>
  <note>
L
</note>
  <anchor x="180" y="0" name="bottom"/>
  <anchor x="123" y="365" name="center"/>
  <anchor x="123" y="729" name="top"/>
  <anchor x="212" y="729" name="topright"/>
  <outline>
    <contour>
      <point x="33" y="0" type="line"/>
      <point x="327" y="0" type="line"/>
      <point x="327" y="148" type="line"/>
      <point x="212" y="148" type="line"/>
      <point x="212" y="729" type="line"/>
      <point x="33" y="729" type="line"/>
    </contour>
  </outline>
</glyph>
<glyph name="M" format="2">
  <advance width="667"/>
  <unicode hex="004D"/>
  <note>
M
</note>
  <anchor x="333" y="0" name="bottom"/>
  <anchor x="333" y="729" name="top"/>
  <outline>
    <contour>
      <point x="33" y="0" type="line"/>
      <point x="190" y="0" type="line"/>
      <point x="190" y="442" type="line"/>
      <point x="188" y="533" type="line"/>
      <point x="192" y="533" type="line"/>
      <point x="204" y="445" type="line"/>
      <point x="268" y="0" type="line"/>
      <point x="398" y="0" type="line"/>
      <point x="463" y="444" type="line"/>
      <point x="476" y="533" type="line"/>
      <point x="479" y="533" type="line"/>
      <point x="477" y="442" type="line"/>
      <point x="477" y="0" type="line"/>
      <point x="634" y="0" type="line"/>
      <point x="634" y="729" type="line"/>
      <point x="374" y="729" type="line"/>
      <point x="344" y="457" type="line"/>
      <point x="337" y="380" type="line"/>
      <point x="333" y="380" type="line"/>
      <point x="326" y="457" type="line"/>
      <point x="299" y="729" type="line"/>
      <point x="33" y="729" type="line"/>
    </contour>
  </outline>
</glyph>
<glyph name="N" format="2">
  <advance width="516"/>
  <unicode hex="004E"/>
  <note>
N
</note>
  <anchor x="258" y="0" name="bottom"/>
  <anchor x="258" y="729" name="top"/>
  <outline>
    <contour>
      <point x="33" y="0" type="line"/>
      <point x="200" y="0" type="line"/>
      <point x="200" y="342" type="line"/>
      <point x="205" y="342" type="line"/>
      <point x="214" y="296" type="line"/>
      <point x="278" y="0" type="line"/>
      <point x="483" y="0" type="line"/>
      <point x="483" y="729" type="line"/>
      <point x="316" y="729" type="line"/>
      <point x="316" y="376" type="line"/>
      <point x="311" y="376" type="line"/>
      <point x="298" y="434" type="line"/>
      <point x="235" y="729" type="line"/>
      <point x="33" y="729" type="line"/>
    </contour>
  </outline>
</glyph>
<glyph name="O" format="2">
  <advance width="499"/>
  <unicode hex="004F"/>
  <note>
O
</note>
  <anchor x="249" y="0" name="bottom"/>
  <anchor x="249" y="365" name="center"/>
  <anchor x="453" y="10" name="ogonek"/>
  <anchor x="249" y="729" name="top"/>
  <anchor x="14" y="729" name="topleft"/>
  <anchor x="340" y="709" name="topright"/>
  <outline>
    <contour>
      <point x="249" y="-9" type="curve" smooth="yes"/>
      <point x="383" y="-9"/>
      <point x="475" y="80"/>
      <point x="475" y="238" type="curve" smooth="yes"/>
      <point x="475" y="491" type="line" smooth="yes"/>
      <point x="475" y="649"/>
      <point x="383" y="738"/>
      <point x="249" y="738" type="curve" smooth="yes"/>
      <point x="115" y="738"/>
      <point x="24" y="649"/>
      <point x="24" y="491" type="curve" smooth="yes"/>
      <point x="24" y="238" type="line" smooth="yes"/>
      <point x="24" y="80"/>
      <point x="115" y="-9"/>
    </contour>
    <contour>
      <point x="249" y="139" type="curve" smooth="yes"/>
      <point x="220" y="139"/>
      <point x="203" y="160"/>
      <point x="203" y="188" type="curve" smooth="yes"/>
      <point x="203" y="541" type="line" smooth="yes"/>
      <point x="203" y="569"/>
      <point x="220" y="590"/>
      <point x="249" y="590" type="curve" smooth="yes"/>
      <point x="280" y="590"/>
      <point x="295" y="569"/>
      <point x="295" y="541" type="curve" smooth="yes"/>
      <point x="295" y="188" type="line" smooth="yes"/>
      <point x="295" y="160"/>
      <point x="280" y="139"/>
    </contour>
  </outline>
</glyph>
<glyph name="P" format="2">
  <advance width="487"/>
  <unicode hex="0050"/>
  <note>
P
</note>
  <anchor x="242" y="0" name="bottom"/>
  <anchor x="242" y="729" name="top"/>
  <outline>
    <contour>
      <point x="33" y="0" type="line"/>
      <point x="212" y="0" type="line"/>
      <point x="212" y="581" type="line"/>
      <point x="227" y="581" type="line" smooth="yes"/>
      <point x="261" y="581"/>
      <point x="286" y="559"/>
      <point x="286" y="506" type="curve" smooth="yes"/>
      <point x="286" y="485" type="line" smooth="yes"/>
      <point x="286" y="440"/>
      <point x="267" y="411"/>
      <point x="227" y="411" type="curve" smooth="yes"/>
      <point x="196" y="411" type="line"/>
      <point x="196" y="263" type="line"/>
      <point x="237" y="263" type="line" smooth="yes"/>
      <point x="377" y="263"/>
      <point x="471" y="348"/>
      <point x="471" y="497" type="curve" smooth="yes"/>
      <point x="471" y="635"/>
      <point x="397" y="729"/>
      <point x="237" y="729" type="curve" smooth="yes"/>
      <point x="33" y="729" type="line"/>
    </contour>
  </outline>
</glyph>
<glyph name="R" format="2">
  <advance width="492"/>
  <unicode hex="0052"/>
  <note>
R
</note>
  <anchor x="245" y="0" name="bottom"/>
  <anchor x="245" y="729" name="top"/>
  <outline>
    <contour>
      <point x="33" y="0" type="line"/>
      <point x="212" y="0" type="line"/>
      <point x="212" y="581" type="line"/>
      <point x="229" y="581" type="line" smooth="yes"/>
      <point x="262" y="581"/>
      <point x="283" y="561"/>
      <point x="283" y="519" type="curve" smooth="yes"/>
      <point x="283" y="473" type="line" smooth="yes"/>
      <point x="283" y="431"/>
      <point x="266" y="405"/>
      <point x="229" y="405" type="curve" smooth="yes"/>
      <point x="196" y="405" type="line"/>
      <point x="196" y="261" type="line"/>
      <point x="226" y="261" type="line"/>
      <point x="290" y="0" type="line"/>
      <point x="480" y="0" type="line"/>
      <point x="381" y="325" type="line"/>
      <point x="377" y="311" type="line"/>
      <point x="377" y="306" type="line"/>
      <point x="434" y="341"/>
      <point x="470" y="409"/>
      <point x="470" y="497" type="curve" smooth="yes"/>
      <point x="470" y="639"/>
      <point x="396" y="729"/>
      <point x="266" y="729" type="curve" smooth="yes"/>
      <point x="33" y="729" type="line"/>
    </contour>
  </outline>
</glyph>
<glyph name="S" format="2">
  <advance width="456"/>
  <unicode hex="0053"/>
  <note>
S
</note>
  <anchor x="229" y="0" name="bottom"/>
  <anchor x="229" y="729" name="top"/>
  <outline>
    <contour>
      <point x="226" y="-9" type="curve" smooth="yes"/>
      <point x="352" y="-9"/>
      <point x="439" y="65"/>
      <point x="439" y="190" type="curve" smooth="yes"/>
      <point x="439" y="284"/>
      <point x="394" y="355"/>
      <point x="313" y="424" type="curve" smooth="yes"/>
      <point x="259" y="470" type="line" smooth="yes"/>
      <point x="222" y="501"/>
      <point x="196" y="523"/>
      <point x="196" y="557" type="curve" smooth="yes"/>
      <point x="196" y="583"/>
      <point x="209" y="593"/>
      <point x="229" y="593" type="curve" smooth="yes"/>
      <point x="260" y="593"/>
      <point x="267" y="568"/>
      <point x="267" y="511" type="curve"/>
      <point x="433" y="511" type="line"/>
      <point x="431" y="657"/>
      <point x="356" y="738"/>
      <point x="224" y="738" type="curve" smooth="yes"/>
      <point x="100" y="738"/>
      <point x="18" y="657"/>
      <point x="18" y="538" type="curve" smooth="yes"/>
      <point x="18" y="451"/>
      <point x="63" y="390"/>
      <point x="131" y="331" type="curve" smooth="yes"/>
      <point x="201" y="271" type="line" smooth="yes"/>
      <point x="232" y="245"/>
      <point x="258" y="220"/>
      <point x="258" y="177" type="curve" smooth="yes"/>
      <point x="258" y="148"/>
      <point x="244" y="136"/>
      <point x="225" y="136" type="curve" smooth="yes"/>
      <point x="198" y="136"/>
      <point x="188" y="161"/>
      <point x="190" y="227" type="curve"/>
      <point x="21" y="227" type="line"/>
      <point x="22" y="75"/>
      <point x="95" y="-9"/>
    </contour>
  </outline>
</glyph>
<glyph name="T" format="2">
  <advance width="429"/>
  <unicode hex="0054"/>
  <note>
T
</note>
  <anchor x="215" y="0" name="bottom"/>
  <anchor x="215" y="365" name="center"/>
  <anchor x="215" y="729" name="top"/>
  <outline>
    <contour>
      <point x="125" y="0" type="line"/>
      <point x="304" y="0" type="line"/>
      <point x="304" y="582" type="line"/>
      <point x="413" y="582" type="line"/>
      <point x="413" y="729" type="line"/>
      <point x="16" y="729" type="line"/>
      <point x="16" y="582" type="line"/>
      <point x="125" y="582" type="line"/>
    </contour>
  </outline>
</glyph>
<glyph name="U" format="2">
  <advance width="501"/>
  <unicode hex="0055"/>
  <note>
U
</note>
  <anchor x="250" y="0" name="bottom"/>
  <anchor x="374" y="22" name="ogonek"/>
  <anchor x="250" y="729" name="top"/>
  <anchor x="383" y="729" name="topright"/>
  <outline>
    <contour>
      <point x="250" y="-9" type="curve" smooth="yes"/>
      <point x="383" y="-9"/>
      <point x="472" y="77"/>
      <point x="472" y="207" type="curve" smooth="yes"/>
      <point x="472" y="729" type="line"/>
      <point x="293" y="729" type="line"/>
      <point x="293" y="186" type="line" smooth="yes"/>
      <point x="293" y="156"/>
      <point x="277" y="139"/>
      <point x="250" y="139" type="curve" smooth="yes"/>
      <point x="224" y="139"/>
      <point x="208" y="156"/>
      <point x="208" y="186" type="curve" smooth="yes"/>
      <point x="208" y="729" type="line"/>
      <point x="29" y="729" type="line"/>
      <point x="29" y="207" type="line" smooth="yes"/>
      <point x="29" y="77"/>
      <point x="118" y="-9"/>
    </contour>
  </outline>
</glyph>
<glyph name="V" format="2">
  <advance width="484"/>
  <unicode hex="0056"/>
  <note>
V
</note>
  <anchor x="243" y="0" name="bottom"/>
  <anchor x="243" y="729" name="top"/>
  <outline>
    <contour>
      <point x="112" y="0" type="line"/>
      <point x="371" y="0" type="line"/>
      <point x="470" y="729" type="line"/>
      <point x="294" y="729" type="line"/>
      <point x="258" y="325" type="line"/>
      <point x="246" y="151" type="line"/>
      <point x="240" y="151" type="line"/>
      <point x="225" y="325" type="line"/>
      <point x="190" y="729" type="line"/>
      <point x="14" y="729" type="line"/>
    </contour>
  </outline>
</glyph>
<glyph name="W" format="2">
  <advance width="678"/>
  <unicode hex="0057"/>
  <note>
W
</note>
  <anchor x="339" y="0" name="bottom"/>
  <anchor x="339" y="729" name="top"/>
  <outline>
    <contour>
      <point x="88" y="0" type="line"/>
      <point x="297" y="0" type="line"/>
      <point x="319" y="233" type="line"/>
      <point x="335" y="424" type="line"/>
      <point x="338" y="424" type="line"/>
      <point x="355" y="233" type="line"/>
      <point x="375" y="0" type="line"/>
      <point x="589" y="0" type="line"/>
      <point x="663" y="729" type="line"/>
      <point x="491" y="729" type="line"/>
      <point x="476" y="410" type="line"/>
      <point x="470" y="190" type="line"/>
      <point x="463" y="190" type="line"/>
      <point x="461" y="226" type="line"/>
      <point x="419" y="729" type="line"/>
      <point x="260" y="729" type="line"/>
      <point x="217" y="225" type="line"/>
      <point x="215" y="190" type="line"/>
      <point x="209" y="190" type="line"/>
      <point x="203" y="390" type="line"/>
      <point x="187" y="729" type="line"/>
      <point x="15" y="729" type="line"/>
    </contour>
  </outline>
</glyph>
<glyph name="X" format="2">
  <advance width="519"/>
  <unicode hex="0058"/>
  <note>
X
</note>
  <anchor x="260" y="0" name="bottom"/>
  <anchor x="260" y="729" name="top"/>
  <outline>
    <contour>
      <point x="13" y="0" type="line"/>
      <point x="186" y="0" type="line"/>
      <point x="252" y="233" type="line"/>
      <point x="263" y="233" type="line"/>
      <point x="324" y="0" type="line"/>
      <point x="506" y="0" type="line"/>
      <point x="381" y="386" type="line"/>
      <point x="490" y="729" type="line"/>
      <point x="315" y="729" type="line"/>
      <point x="267" y="520" type="line"/>
      <point x="259" y="520" type="line"/>
      <point x="205" y="729" type="line"/>
      <point x="21" y="729" type="line"/>
      <point x="142" y="384" type="line"/>
    </contour>
  </outline>
</glyph>
<glyph name="Y" format="2">
  <advance width="514"/>
  <unicode hex="0059"/>
  <note>
Y
</note>
  <anchor x="257" y="0" name="bottom"/>
  <anchor x="257" y="729" name="top"/>
  <anchor x="14" y="729" name="topleft"/>
  <outline>
    <contour>
      <point x="167" y="0" type="line"/>
      <point x="346" y="0" type="line"/>
      <point x="346" y="243" type="line"/>
      <point x="510" y="729" type="line"/>
      <point x="331" y="729" type="line"/>
      <point x="286" y="552" type="line"/>
      <point x="261" y="438" type="line"/>
      <point x="250" y="438" type="line"/>
      <point x="227" y="550" type="line"/>
      <point x="180" y="729" type="line"/>
      <point x="4" y="729" type="line"/>
      <point x="167" y="243" type="line"/>
    </contour>
  </outline>
</glyph>
<glyph name="Z" format="2">
  <advance width="452"/>
  <unicode hex="005A"/>
  <note>
Z
</note>
  <anchor x="227" y="0" name="bottom"/>
  <anchor x="227" y="365" name="center"/>
  <anchor x="227" y="729" name="top"/>
  <outline>
    <contour>
      <point x="18" y="0" type="line"/>
      <point x="432" y="0" type="line"/>
      <point x="432" y="148" type="line"/>
      <point x="219" y="148" type="line"/>
      <point x="428" y="593" type="line"/>
      <point x="428" y="729" type="line"/>
      <point x="32" y="729" type="line"/>
      <point x="32" y="581" type="line"/>
      <point x="228" y="581" type="line"/>
      <point x="18" y="138" type="line"/>
    </contour>
  </outline>
</glyph>
<glyph name="bracketleft" format="2">
  <advance width="306"/>
  <unicode hex="005B"/>
  <outline>
    <contour>
      <point x="33" y="-167" type="line"/>
      <point x="283" y="-167" type="line"/>
      <point x="283" y="-41" type="line"/>
      <point x="197" y="-41" type="line"/>
      <point x="197" y="657" type="line"/>
      <point x="283" y="657" type="line"/>
      <point x="283" y="793" type="line"/>
      <point x="33" y="793" type="line"/>
    </contour>
  </outline>
</glyph>
<glyph name="backslash" format="2">
  <advance width="373"/>
  <unicode hex="005C"/>
  <outline>
    <contour>
      <point x="212" y="-82" type="line"/>
      <point x="374" y="-82" type="line"/>
      <point x="182" y="729" type="line"/>
      <point x="18" y="729" type="line"/>
    </contour>
  </outline>
</glyph>
<glyph name="asciicircum" format="2">
  <advance width="500"/>
  <unicode hex="005E"/>
  <outline>
    <contour>
      <point x="15" y="468" type="line"/>
      <point x="183" y="468" type="line"/>
      <point x="252" y="581" type="line"/>
      <point x="320" y="468" type="line"/>
      <point x="488" y="468" type="line"/>
      <point x="345" y="729" type="line"/>
      <point x="160" y="729" type="line"/>
    </contour>
  </outline>
</glyph>
<glyph name="underscore" format="2">
  <advance width="364"/>
  <unicode hex="005F"/>
  <outline>
    <contour>
      <point x="1" y="-156" type="line"/>
      <point x="363" y="-156" type="line"/>
      <point x="363" y="0" type="line"/>
      <point x="1" y="0" type="line"/>
    </contour>
  </outline>
</glyph>
<glyph name="c" format="2">
  <advance width="456"/>
  <unicode hex="0063"/>
  <note>
c
</note>
  <anchor x="232" y="0" name="bottom"/>
  <anchor x="232" y="546" name="top"/>
  <outline>
    <contour>
      <point x="231" y="-9" type="curve" smooth="yes"/>
      <point x="360" y="-9"/>
      <point x="447" y="71"/>
      <point x="443" y="210" type="curve"/>
      <point x="281" y="210" type="line"/>
      <point x="282" y="151"/>
      <point x="268" y="126"/>
      <point x="235" y="126" type="curve" smooth="yes"/>
      <point x="206" y="126"/>
      <point x="192" y="145"/>
      <point x="192" y="172" type="curve" smooth="yes"/>
      <point x="192" y="373" type="line" smooth="yes"/>
      <point x="192" y="401"/>
      <point x="206" y="420"/>
      <point x="235" y="420" type="curve" smooth="yes"/>
      <point x="268" y="420"/>
      <point x="282" y="401"/>
      <point x="281" y="336" type="curve"/>
      <point x="443" y="336" type="line"/>
      <point x="447" y="467"/>
      <point x="372" y="555"/>
      <point x="235" y="555" type="curve" smooth="yes"/>
      <point x="105" y="555"/>
      <point x="16" y="469"/>
      <point x="16" y="316" type="curve" smooth="yes"/>
      <point x="16" y="231" type="line" smooth="yes"/>
      <point x="16" y="88"/>
      <point x="92" y="-9"/>
    </contour>
  </outline>
</glyph>
<glyph name="e" format="2">
  <advance width="470"/>
  <unicode hex="0065"/>
  <note>
e
</note>
  <anchor x="16" y="0" name="#entry"/>
  <anchor x="238" y="0" name="bottom"/>
  <anchor x="380" y="0" name="ogonek"/>
  <anchor x="235" y="546" name="top"/>
  <outline>
    <contour>
      <point x="235" y="-9" type="curve" smooth="yes"/>
      <point x="356" y="-9"/>
      <point x="447" y="54"/>
      <point x="452" y="177" type="curve"/>
      <point x="285" y="177" type="line"/>
      <point x="284" y="145"/>
      <point x="267" y="126"/>
      <point x="238" y="126" type="curve" smooth="yes"/>
      <point x="206" y="126"/>
      <point x="192" y="145"/>
      <point x="192" y="172" type="curve" smooth="yes"/>
      <point x="192" y="373" type="line" smooth="yes"/>
      <point x="192" y="401"/>
      <point x="206" y="420"/>
      <point x="235" y="420" type="curve" smooth="yes"/>
      <point x="264" y="420"/>
      <point x="278" y="401"/>
      <point x="278" y="373" type="curve" smooth="yes"/>
      <point x="278" y="320" type="line"/>
      <point x="291" y="330" type="line"/>
      <point x="176" y="330" type="line"/>
      <point x="176" y="222" type="line"/>
      <point x="454" y="222" type="line"/>
      <point x="454" y="316" type="line" smooth="yes"/>
      <point x="454" y="469"/>
      <point x="365" y="555"/>
      <point x="235" y="555" type="curve" smooth="yes"/>
      <point x="105" y="555"/>
      <point x="16" y="469"/>
      <point x="16" y="316" type="curve" smooth="yes"/>
      <point x="16" y="231" type="line" smooth="yes"/>
      <point x="16" y="78"/>
      <point x="103" y="-9"/>
    </contour>
  </outline>
</glyph>
<glyph name="f" format="2">
  <advance width="327"/>
  <unicode hex="0066"/>
  <note>
f
</note>
  <anchor x="163" y="0" name="bottom"/>
  <anchor x="163" y="800" name="top"/>
  <outline>
    <contour>
      <point x="65" y="0" type="line"/>
      <point x="241" y="0" type="line"/>
      <point x="241" y="407" type="line"/>
      <point x="315" y="407" type="line"/>
      <point x="315" y="546" type="line"/>
      <point x="241" y="546" type="line"/>
      <point x="241" y="593" type="line"/>
      <point x="315" y="593" type="line"/>
      <point x="315" y="729" type="line"/>
      <point x="180" y="729" type="line" smooth="yes"/>
      <point x="110" y="729"/>
      <point x="65" y="684"/>
      <point x="65" y="614" type="curve" smooth="yes"/>
      <point x="65" y="546" type="line"/>
      <point x="12" y="546" type="line"/>
      <point x="12" y="407" type="line"/>
      <point x="65" y="407" type="line"/>
    </contour>
  </outline>
</glyph>
<glyph name="g" format="2">
  <advance width="484"/>
  <unicode hex="0067"/>
  <note>
g
</note>
  <anchor x="238" y="-200" name="bottom"/>
  <anchor x="238" y="546" name="top"/>
  <outline>
    <contour>
      <point x="238" y="-177" type="curve" smooth="yes"/>
      <point x="370" y="-177"/>
      <point x="456" y="-107"/>
      <point x="456" y="13" type="curve" smooth="yes"/>
      <point x="456" y="546" type="line"/>
      <point x="294" y="546" type="line"/>
      <point x="280" y="477" type="line"/>
      <point x="272" y="477" type="line"/>
      <point x="255" y="522"/>
      <point x="216" y="555"/>
      <point x="156" y="555" type="curve" smooth="yes"/>
      <point x="67" y="555"/>
      <point x="17" y="480"/>
      <point x="17" y="365" type="curve" smooth="yes"/>
      <point x="17" y="222" type="line" smooth="yes"/>
      <point x="17" y="107"/>
      <point x="67" y="32"/>
      <point x="156" y="32" type="curve" smooth="yes"/>
      <point x="208" y="32"/>
      <point x="251" y="57"/>
      <point x="272" y="110" type="curve"/>
      <point x="280" y="110" type="line"/>
      <point x="280" y="13" type="line" smooth="yes"/>
      <point x="280" y="-19"/>
      <point x="267" y="-41"/>
      <point x="232" y="-41" type="curve" smooth="yes"/>
      <point x="209" y="-41"/>
      <point x="193" y="-31"/>
      <point x="192" y="-7" type="curve"/>
      <point x="27" y="-7" type="line"/>
      <point x="35" y="-108"/>
      <point x="111" y="-177"/>
    </contour>
    <contour>
      <point x="240" y="167" type="curve" smooth="yes"/>
      <point x="210" y="167"/>
      <point x="193" y="186"/>
      <point x="193" y="219" type="curve" smooth="yes"/>
      <point x="193" y="368" type="line" smooth="yes"/>
      <point x="193" y="399"/>
      <point x="208" y="420"/>
      <point x="240" y="420" type="curve" smooth="yes"/>
      <point x="257" y="420"/>
      <point x="272" y="412"/>
      <point x="280" y="398" type="curve"/>
      <point x="280" y="189" type="line"/>
      <point x="272" y="175"/>
      <point x="257" y="167"/>
    </contour>
  </outline>
</glyph>
<glyph name="h" format="2">
  <advance width="490"/>
  <unicode hex="0068"/>
  <note>
h
</note>
  <anchor x="245" y="0" name="bottom"/>
  <anchor x="133" y="621" name="center"/>
  <anchor x="116" y="729" name="top"/>
  <outline>
    <contour>
      <point x="28" y="0" type="line"/>
      <point x="204" y="0" type="line"/>
      <point x="204" y="386" type="line"/>
      <point x="214" y="401"/>
      <point x="232" y="410"/>
      <point x="250" y="410" type="curve" smooth="yes"/>
      <point x="280" y="410"/>
      <point x="290" y="387"/>
      <point x="290" y="357" type="curve" smooth="yes"/>
      <point x="290" y="0" type="line"/>
      <point x="466" y="0" type="line"/>
      <point x="466" y="369" type="line" smooth="yes"/>
      <point x="466" y="480"/>
      <point x="425" y="555"/>
      <point x="333" y="555" type="curve" smooth="yes"/>
      <point x="280" y="555"/>
      <point x="234" y="527"/>
      <point x="212" y="477" type="curve"/>
      <point x="204" y="477" type="line"/>
      <point x="204" y="729" type="line"/>
      <point x="28" y="729" type="line"/>
    </contour>
  </outline>
</glyph>
<glyph name="k" format="2">
  <advance width="494"/>
  <unicode hex="006B"/>
  <note>
k
</note>
  <anchor x="246" y="0" name="bottom"/>
  <anchor x="246" y="800" name="top"/>
  <outline>
    <contour>
      <point x="28" y="0" type="line"/>
      <point x="204" y="0" type="line"/>
      <point x="204" y="729" type="line"/>
      <point x="28" y="729" type="line"/>
    </contour>
    <contour>
      <point x="295" y="0" type="line"/>
      <point x="486" y="0" type="line"/>
      <point x="355" y="339" type="line"/>
      <point x="210" y="261" type="line"/>
    </contour>
    <contour>
      <point x="192" y="98" type="line"/>
      <point x="272" y="239" type="line"/>
      <point x="314" y="239" type="line"/>
      <point x="482" y="546" type="line"/>
      <point x="290" y="546" type="line"/>
      <point x="196" y="322" type="line"/>
    </contour>
  </outline>
</glyph>
<glyph name="l" format="2">
  <advance width="232"/>
  <unicode hex="006C"/>
  <note>
l
</note>
  <anchor x="116" y="0" name="bottom"/>
  <anchor x="116" y="371" name="center"/>
  <anchor x="116" y="729" name="top"/>
  <anchor x="204" y="729" name="topright"/>
  <outline>
    <contour>
      <point x="28" y="0" type="line"/>
      <point x="204" y="0" type="line"/>
      <point x="204" y="729" type="line"/>
      <point x="28" y="729" type="line"/>
    </contour>
  </outline>
</glyph>
<glyph name="m" format="2">
  <advance width="751"/>
  <unicode hex="006D"/>
  <note>
m
</note>
  <anchor x="377" y="0" name="bottom"/>
  <anchor x="377" y="546" name="top"/>
  <outline>
    <contour>
      <point x="28" y="0" type="line"/>
      <point x="204" y="0" type="line"/>
      <point x="204" y="386" type="line"/>
      <point x="214" y="401"/>
      <point x="232" y="410"/>
      <point x="250" y="410" type="curve" smooth="yes"/>
      <point x="280" y="410"/>
      <point x="290" y="387"/>
      <point x="290" y="357" type="curve" smooth="yes"/>
      <point x="290" y="0" type="line"/>
      <point x="465" y="0" type="line"/>
      <point x="465" y="346" type="line" smooth="yes"/>
      <point x="465" y="359"/>
      <point x="465" y="372"/>
      <point x="465" y="385" type="curve"/>
      <point x="475" y="401"/>
      <point x="493" y="410"/>
      <point x="512" y="410" type="curve" smooth="yes"/>
      <point x="541" y="410"/>
      <point x="551" y="387"/>
      <point x="551" y="357" type="curve" smooth="yes"/>
      <point x="551" y="0" type="line"/>
      <point x="727" y="0" type="line"/>
      <point x="727" y="385" type="line" smooth="yes"/>
      <point x="727" y="494"/>
      <point x="672" y="555"/>
      <point x="592" y="555" type="curve" smooth="yes"/>
      <point x="536" y="555"/>
      <point x="486" y="527"/>
      <point x="460" y="462" type="curve"/>
      <point x="454" y="462" type="line"/>
      <point x="434" y="522"/>
      <point x="389" y="555"/>
      <point x="331" y="555" type="curve" smooth="yes"/>
      <point x="280" y="555"/>
      <point x="235" y="531"/>
      <point x="212" y="477" type="curve"/>
      <point x="204" y="477" type="line"/>
      <point x="190" y="546" type="line"/>
      <point x="28" y="546" type="line"/>
    </contour>
  </outline>
</glyph>
<glyph name="n" format="2">
  <advance width="490"/>
  <unicode hex="006E"/>
  <note>
n
</note>
  <anchor x="246" y="0" name="bottom"/>
  <anchor x="246" y="546" name="top"/>
  <outline>
    <contour>
      <point x="28" y="0" type="line"/>
      <point x="204" y="0" type="line"/>
      <point x="204" y="386" type="line"/>
      <point x="214" y="401"/>
      <point x="232" y="410"/>
      <point x="250" y="410" type="curve" smooth="yes"/>
      <point x="280" y="410"/>
      <point x="290" y="387"/>
      <point x="290" y="357" type="curve" smooth="yes"/>
      <point x="290" y="0" type="line"/>
      <point x="466" y="0" type="line"/>
      <point x="466" y="369" type="line" smooth="yes"/>
      <point x="466" y="480"/>
      <point x="425" y="555"/>
      <point x="333" y="555" type="curve" smooth="yes"/>
      <point x="280" y="555"/>
      <point x="234" y="527"/>
      <point x="212" y="477" type="curve"/>
      <point x="204" y="477" type="line"/>
      <point x="190" y="546" type="line"/>
      <point x="28" y="546" type="line"/>
    </contour>
  </outline>
</glyph>
<glyph name="o" format="2">
  <advance width="470"/>
  <unicode hex="006F"/>
  <note>
o
</note>
  <anchor x="278" y="0" name="#exit"/>
  <anchor x="235" y="0" name="bottom"/>
  <anchor x="235" y="273" name="center"/>
  <anchor x="425" y="10" name="ogonek"/>
  <anchor x="235" y="546" name="top"/>
  <anchor x="335" y="516" name="topright"/>
  <outline>
    <contour>
      <point x="235" y="-9" type="curve" smooth="yes"/>
      <point x="373" y="-9"/>
      <point x="454" y="81"/>
      <point x="454" y="231" type="curve" smooth="yes"/>
      <point x="454" y="316" type="line" smooth="yes"/>
      <point x="454" y="464"/>
      <point x="373" y="555"/>
      <point x="235" y="555" type="curve" smooth="yes"/>
      <point x="97" y="555"/>
      <point x="16" y="464"/>
      <point x="16" y="316" type="curve" smooth="yes"/>
      <point x="16" y="231" type="line" smooth="yes"/>
      <point x="16" y="81"/>
      <point x="97" y="-9"/>
    </contour>
    <contour>
      <point x="235" y="126" type="curve" smooth="yes"/>
      <point x="206" y="126"/>
      <point x="192" y="145"/>
      <point x="192" y="172" type="curve" smooth="yes"/>
      <point x="192" y="373" type="line" smooth="yes"/>
      <point x="192" y="401"/>
      <point x="206" y="420"/>
      <point x="235" y="420" type="curve" smooth="yes"/>
      <point x="264" y="420"/>
      <point x="278" y="401"/>
      <point x="278" y="373" type="curve" smooth="yes"/>
      <point x="278" y="172" type="line" smooth="yes"/>
      <point x="278" y="145"/>
      <point x="264" y="126"/>
    </contour>
  </outline>
</glyph>
<glyph name="q" format="2">
  <advance width="487"/>
  <unicode hex="0071"/>
  <note>
q
</note>
  <anchor x="245" y="0" name="bottom"/>
  <anchor x="245" y="546" name="top"/>
  <outline>
    <contour>
      <point x="283" y="-167" type="line"/>
      <point x="459" y="-167" type="line"/>
      <point x="459" y="546" type="line"/>
      <point x="297" y="546" type="line"/>
      <point x="283" y="477" type="line"/>
      <point x="275" y="477" type="line"/>
      <point x="258" y="522"/>
      <point x="215" y="555"/>
      <point x="159" y="555" type="curve" smooth="yes"/>
      <point x="62" y="555"/>
      <point x="20" y="477"/>
      <point x="20" y="365" type="curve" smooth="yes"/>
      <point x="20" y="181" type="line" smooth="yes"/>
      <point x="20" y="69"/>
      <point x="62" y="-9"/>
      <point x="159" y="-9" type="curve" smooth="yes"/>
      <point x="215" y="-9"/>
      <point x="258" y="23"/>
      <point x="275" y="70" type="curve"/>
      <point x="283" y="70" type="line"/>
    </contour>
    <contour>
      <point x="243" y="126" type="curve" smooth="yes"/>
      <point x="211" y="126"/>
      <point x="196" y="147"/>
      <point x="196" y="178" type="curve" smooth="yes"/>
      <point x="196" y="368" type="line" smooth="yes"/>
      <point x="196" y="399"/>
      <point x="211" y="420"/>
      <point x="243" y="420" type="curve" smooth="yes"/>
      <point x="260" y="420"/>
      <point x="275" y="412"/>
      <point x="283" y="398" type="curve"/>
      <point x="283" y="149" type="line"/>
      <point x="275" y="135"/>
      <point x="260" y="126"/>
    </contour>
  </outline>
</glyph>
<glyph name="r" format="2">
  <advance width="330"/>
  <unicode hex="0072"/>
  <note>
r
</note>
  <anchor x="116" y="0" name="bottom"/>
  <anchor x="159" y="546" name="top"/>
  <outline>
    <contour>
      <point x="28" y="0" type="line"/>
      <point x="204" y="0" type="line"/>
      <point x="204" y="341" type="line"/>
      <point x="222" y="364"/>
      <point x="242" y="378"/>
      <point x="274" y="378" type="curve" smooth="yes"/>
      <point x="318" y="378" type="line"/>
      <point x="308" y="555" type="line"/>
      <point x="299" y="555" type="line" smooth="yes"/>
      <point x="257" y="555"/>
      <point x="227" y="540"/>
      <point x="213" y="476" type="curve"/>
      <point x="204" y="476" type="line"/>
      <point x="190" y="546" type="line"/>
      <point x="28" y="546" type="line"/>
    </contour>
  </outline>
</glyph>
<glyph name="s" format="2">
  <advance width="422"/>
  <unicode hex="0073"/>
  <note>
s
</note>
  <anchor x="210" y="0" name="bottom"/>
  <anchor x="210" y="546" name="top"/>
  <outline>
    <contour>
      <point x="212" y="-9" type="curve" smooth="yes"/>
      <point x="330" y="-9"/>
      <point x="409" y="59"/>
      <point x="409" y="162" type="curve" smooth="yes"/>
      <point x="409" y="251"/>
      <point x="356" y="300"/>
      <point x="281" y="336" type="curve" smooth="yes"/>
      <point x="254" y="349" type="line" smooth="yes"/>
      <point x="201" y="375"/>
      <point x="186" y="391"/>
      <point x="186" y="414" type="curve" smooth="yes"/>
      <point x="186" y="432"/>
      <point x="196" y="443"/>
      <point x="217" y="443" type="curve" smooth="yes"/>
      <point x="244" y="443"/>
      <point x="256" y="420"/>
      <point x="253" y="379" type="curve"/>
      <point x="403" y="379" type="line"/>
      <point x="400" y="493"/>
      <point x="323" y="555"/>
      <point x="210" y="555" type="curve" smooth="yes"/>
      <point x="94" y="555"/>
      <point x="18" y="486"/>
      <point x="18" y="386" type="curve" smooth="yes"/>
      <point x="18" y="321"/>
      <point x="49" y="267"/>
      <point x="131" y="224" type="curve" smooth="yes"/>
      <point x="170" y="204" type="line" smooth="yes"/>
      <point x="223" y="178"/>
      <point x="239" y="162"/>
      <point x="239" y="139" type="curve" smooth="yes"/>
      <point x="239" y="121"/>
      <point x="228" y="109"/>
      <point x="207" y="109" type="curve" smooth="yes"/>
      <point x="180" y="109"/>
      <point x="167" y="132"/>
      <point x="170" y="174" type="curve"/>
      <point x="12" y="174" type="line"/>
      <point x="16" y="66"/>
      <point x="81" y="-9"/>
    </contour>
  </outline>
</glyph>
<glyph name="t" format="2">
  <advance width="319"/>
  <unicode hex="0074"/>
  <note>
t
</note>
  <anchor x="199" y="0" name="bottom"/>
  <anchor x="157" y="273" name="center"/>
  <anchor x="156" y="546" name="top"/>
  <anchor x="260" y="662" name="topright"/>
  <outline>
    <contour>
      <point x="172" y="0" type="curve" smooth="yes"/>
      <point x="301" y="0" type="line"/>
      <point x="301" y="138" type="line"/>
      <point x="240" y="138" type="line"/>
      <point x="240" y="688" type="line"/>
      <point x="64" y="688" type="line"/>
      <point x="64" y="106" type="line" smooth="yes"/>
      <point x="64" y="27"/>
      <point x="108" y="0"/>
    </contour>
    <contour>
      <point x="12" y="407" type="line"/>
      <point x="301" y="407" type="line"/>
      <point x="301" y="546" type="line"/>
      <point x="12" y="546" type="line"/>
    </contour>
  </outline>
</glyph>
<glyph name="v" format="2">
  <advance width="471"/>
  <unicode hex="0076"/>
  <note>
v
</note>
  <anchor x="236" y="0" name="bottom"/>
  <anchor x="236" y="546" name="top"/>
  <outline>
    <contour>
      <point x="118" y="0" type="line"/>
      <point x="354" y="0" type="line"/>
      <point x="463" y="546" type="line"/>
      <point x="283" y="546" type="line"/>
      <point x="254" y="283" type="line"/>
      <point x="238" y="139" type="line"/>
      <point x="232" y="139" type="line"/>
      <point x="217" y="283" type="line"/>
      <point x="186" y="546" type="line"/>
      <point x="8" y="546" type="line"/>
    </contour>
  </outline>
</glyph>
<glyph name="w" format="2">
  <advance width="633"/>
  <unicode hex="0077"/>
  <note>
w
</note>
  <anchor x="317" y="0" name="bottom"/>
  <anchor x="317" y="546" name="top"/>
  <outline>
    <contour>
      <point x="79" y="0" type="line"/>
      <point x="296" y="0" type="line"/>
      <point x="313" y="295" type="line"/>
      <point x="314" y="357" type="line"/>
      <point x="321" y="357" type="line"/>
      <point x="322" y="295" type="line"/>
      <point x="338" y="0" type="line"/>
      <point x="553" y="0" type="line"/>
      <point x="623" y="546" type="line"/>
      <point x="455" y="546" type="line"/>
      <point x="434" y="209" type="line"/>
      <point x="434" y="164" type="line"/>
      <point x="428" y="164" type="line"/>
      <point x="426" y="209" type="line"/>
      <point x="402" y="546" type="line"/>
      <point x="236" y="546" type="line"/>
      <point x="214" y="211" type="line"/>
      <point x="212" y="164" type="line"/>
      <point x="206" y="164" type="line"/>
      <point x="204" y="211" type="line"/>
      <point x="184" y="546" type="line"/>
      <point x="10" y="546" type="line"/>
    </contour>
  </outline>
</glyph>
<glyph name="x" format="2">
  <advance width="486"/>
  <unicode hex="0078"/>
  <note>
x
</note>
  <anchor x="243" y="0" name="bottom"/>
  <anchor x="243" y="546" name="top"/>
  <outline>
    <contour>
      <point x="7" y="0" type="line"/>
      <point x="186" y="0" type="line"/>
      <point x="240" y="161" type="line"/>
      <point x="244" y="161" type="line"/>
      <point x="301" y="0" type="line"/>
      <point x="478" y="0" type="line"/>
      <point x="348" y="302" type="line"/>
      <point x="465" y="546" type="line"/>
      <point x="286" y="546" type="line"/>
      <point x="243" y="411" type="line"/>
      <point x="240" y="411" type="line"/>
      <point x="197" y="546" type="line"/>
      <point x="20" y="546" type="line"/>
      <point x="134" y="291" type="line"/>
    </contour>
  </outline>
</glyph>
<glyph name="y" format="2">
  <advance width="472"/>
  <unicode hex="0079"/>
  <note>
y
</note>
  <anchor x="440" y="0" name="bottom"/>
  <anchor x="236" y="546" name="top"/>
  <outline>
    <contour>
      <point x="47" y="-167" type="line"/>
      <point x="188" y="-167" type="line" smooth="yes"/>
      <point x="269" y="-167"/>
      <point x="324" y="-126"/>
      <point x="324" y="-23" type="curve" smooth="yes"/>
      <point x="324" y="36" type="line"/>
      <point x="464" y="546" type="line"/>
      <point x="286" y="546" type="line"/>
      <point x="249" y="285" type="line"/>
      <point x="237" y="211" type="line"/>
      <point x="233" y="211" type="line"/>
      <point x="223" y="285" type="line"/>
      <point x="185" y="546" type="line"/>
      <point x="8" y="546" type="line"/>
      <point x="148" y="36" type="line"/>
      <point x="148" y="-29" type="line"/>
      <point x="47" y="-29" type="line"/>
    </contour>
  </outline>
</glyph>
<glyph name="z" format="2">
  <advance width="398"/>
  <unicode hex="007A"/>
  <note>
z
</note>
  <anchor x="198" y="0" name="bottom"/>
  <anchor x="198" y="273" name="center"/>
  <anchor x="198" y="546" name="top"/>
  <outline>
    <contour>
      <point x="15" y="0" type="line"/>
      <point x="382" y="0" type="line"/>
      <point x="382" y="139" type="line"/>
      <point x="214" y="139" type="line"/>
      <point x="374" y="419" type="line"/>
      <point x="374" y="546" type="line"/>
      <point x="24" y="546" type="line"/>
      <point x="24" y="407" type="line"/>
      <point x="176" y="407" type="line"/>
      <point x="15" y="127" type="line"/>
    </contour>
  </outline>
</glyph>
<glyph name="braceleft" format="2">
  <advance width="338"/>
  <unicode hex="007B"/>
  <outline>
    <contour>
      <point x="220" y="-167" type="curve" smooth="yes"/>
      <point x="320" y="-167" type="line"/>
      <point x="320" y="-41" type="line"/>
      <point x="249" y="-41" type="line"/>
      <point x="249" y="178" type="line" smooth="yes"/>
      <point x="249" y="245"/>
      <point x="235" y="295"/>
      <point x="149" y="315" type="curve"/>
      <point x="149" y="322" type="line"/>
      <point x="232" y="331"/>
      <point x="249" y="386"/>
      <point x="249" y="456" type="curve" smooth="yes"/>
      <point x="249" y="667" type="line"/>
      <point x="320" y="667" type="line"/>
      <point x="320" y="793" type="line"/>
      <point x="220" y="793" type="line" smooth="yes"/>
      <point x="129" y="793"/>
      <point x="87" y="737"/>
      <point x="87" y="663" type="curve" smooth="yes"/>
      <point x="87" y="454" type="line" smooth="yes"/>
      <point x="87" y="407"/>
      <point x="65" y="376"/>
      <point x="24" y="376" type="curve" smooth="yes"/>
      <point x="15" y="376" type="line"/>
      <point x="15" y="249" type="line"/>
      <point x="24" y="249" type="line" smooth="yes"/>
      <point x="62" y="249"/>
      <point x="87" y="222"/>
      <point x="87" y="175" type="curve" smooth="yes"/>
      <point x="87" y="-37" type="line" smooth="yes"/>
      <point x="87" y="-111"/>
      <point x="129" y="-167"/>
    </contour>
  </outline>
</glyph>
<glyph name="asciitilde" format="2">
  <advance width="501"/>
  <unicode hex="007E"/>
  <outline>
    <contour>
      <point x="36" y="270" type="curve"/>
      <point x="118" y="270" type="line"/>
      <point x="115" y="294"/>
      <point x="127" y="329"/>
      <point x="162" y="329" type="curve" smooth="yes"/>
      <point x="212" y="329"/>
      <point x="250" y="263"/>
      <point x="340" y="263" type="curve" smooth="yes"/>
      <point x="403" y="263"/>
      <point x="475" y="312"/>
      <point x="465" y="464" type="curve"/>
      <point x="384" y="464" type="line"/>
      <point x="384" y="432"/>
      <point x="366" y="404"/>
      <point x="328" y="404" type="curve" smooth="yes"/>
      <point x="269" y="404"/>
      <point x="235" y="468"/>
      <point x="158" y="468" type="curve" smooth="yes"/>
      <point x="94" y="468"/>
      <point x="27" y="418"/>
    </contour>
  </outline>
</glyph>
<glyph name="cent" format="2">
  <advance width="467"/>
  <unicode hex="00A2"/>
  <anchor x="237" y="125" name="bottom"/>
  <anchor x="237" y="605" name="top"/>
  <outline>
    <contour>
      <point x="177" y="575" type="line"/>
      <point x="293" y="575" type="line"/>
      <point x="305" y="729" type="line"/>
      <point x="165" y="729" type="line"/>
    </contour>
    <contour>
      <point x="165" y="0" type="line"/>
      <point x="305" y="0" type="line"/>
      <point x="293" y="154" type="line"/>
      <point x="177" y="154" type="line"/>
    </contour>
    <contour>
      <point x="236" y="117" type="curve" smooth="yes"/>
      <point x="365" y="117"/>
      <point x="452" y="187"/>
      <point x="448" y="309" type="curve"/>
      <point x="286" y="309" type="line"/>
      <point x="287" y="258"/>
      <point x="273" y="236"/>
      <point x="240" y="236" type="curve" smooth="yes"/>
      <point x="211" y="236"/>
      <point x="197" y="252"/>
      <point x="197" y="276" type="curve" smooth="yes"/>
      <point x="197" y="453" type="line" smooth="yes"/>
      <point x="197" y="477"/>
      <point x="211" y="494"/>
      <point x="240" y="494" type="curve" smooth="yes"/>
      <point x="273" y="494"/>
      <point x="287" y="477"/>
      <point x="286" y="420" type="curve"/>
      <point x="448" y="420" type="line"/>
      <point x="452" y="535"/>
      <point x="377" y="612"/>
      <point x="240" y="612" type="curve" smooth="yes"/>
      <point x="110" y="612"/>
      <point x="21" y="537"/>
      <point x="21" y="403" type="curve" smooth="yes"/>
      <point x="21" y="328" type="line" smooth="yes"/>
      <point x="21" y="202"/>
      <point x="97" y="117"/>
    </contour>
  </outline>
</glyph>
<glyph name="sterling" format="2">
  <advance width="567"/>
  <unicode hex="00A3"/>
  <outline>
    <contour>
      <point x="23" y="0" type="line"/>
      <point x="536" y="0" type="line"/>
      <point x="536" y="216" type="line"/>
      <point x="383" y="216" type="line"/>
      <point x="383" y="152" type="line"/>
      <point x="259" y="152" type="line"/>
      <point x="259" y="290" type="line"/>
      <point x="390" y="290" type="line"/>
      <point x="390" y="422" type="line"/>
      <point x="259" y="422" type="line"/>
      <point x="259" y="505" type="line" smooth="yes"/>
      <point x="259" y="553"/>
      <point x="277" y="580"/>
      <point x="314" y="580" type="curve" smooth="yes"/>
      <point x="355" y="580"/>
      <point x="374" y="555"/>
      <point x="374" y="504" type="curve" smooth="yes"/>
      <point x="374" y="489" type="line"/>
      <point x="545" y="489" type="line"/>
      <point x="545" y="514" type="line" smooth="yes"/>
      <point x="545" y="670"/>
      <point x="448" y="738"/>
      <point x="310" y="738" type="curve" smooth="yes"/>
      <point x="169" y="738"/>
      <point x="77" y="668"/>
      <point x="77" y="516" type="curve" smooth="yes"/>
      <point x="77" y="422" type="line"/>
      <point x="23" y="392" type="line"/>
      <point x="23" y="290" type="line"/>
      <point x="77" y="290" type="line"/>
      <point x="77" y="152" type="line"/>
      <point x="23" y="152" type="line"/>
    </contour>
  </outline>
</glyph>
<glyph name="currency" format="2">
  <advance width="656"/>
  <unicode hex="00A4"/>
  <outline>
    <contour>
      <point x="145" y="85" type="line"/>
      <point x="240" y="183" type="line"/>
      <point x="268" y="172"/>
      <point x="295" y="167"/>
      <point x="328" y="167" type="curve" smooth="yes"/>
      <point x="361" y="167"/>
      <point x="388" y="172"/>
      <point x="415" y="182" type="curve"/>
      <point x="510" y="85" type="line"/>
      <point x="605" y="179" type="line"/>
      <point x="515" y="269" type="line"/>
      <point x="529" y="298"/>
      <point x="536" y="327"/>
      <point x="536" y="360" type="curve" smooth="yes"/>
      <point x="536" y="395"/>
      <point x="528" y="424"/>
      <point x="513" y="454" type="curve"/>
      <point x="604" y="543" type="line"/>
      <point x="509" y="637" type="line"/>
      <point x="413" y="539" type="line"/>
      <point x="387" y="549"/>
      <point x="354" y="554"/>
      <point x="328" y="554" type="curve" smooth="yes"/>
      <point x="301" y="554"/>
      <point x="269" y="549"/>
      <point x="243" y="539" type="curve"/>
      <point x="146" y="637" type="line"/>
      <point x="52" y="543" type="line"/>
      <point x="142" y="454" type="line"/>
      <point x="128" y="426"/>
      <point x="120" y="393"/>
      <point x="120" y="360" type="curve" smooth="yes"/>
      <point x="120" y="329"/>
      <point x="127" y="299"/>
      <point x="141" y="269" type="curve"/>
      <point x="51" y="179" type="line"/>
    </contour>
    <contour>
      <point x="328" y="295" type="curve" smooth="yes"/>
      <point x="290" y="295"/>
      <point x="260" y="321"/>
      <point x="260" y="360" type="curve" smooth="yes"/>
      <point x="260" y="399"/>
      <point x="291" y="426"/>
      <point x="328" y="426" type="curve" smooth="yes"/>
      <point x="366" y="426"/>
      <point x="395" y="399"/>
      <point x="395" y="360" type="curve" smooth="yes"/>
      <point x="395" y="321"/>
      <point x="365" y="295"/>
    </contour>
  </outline>
</glyph>
<glyph name="section" format="2">
  <advance width="446"/>
  <unicode hex="00A7"/>
  <outline>
    <contour>
      <point x="207" y="-10" type="curve" smooth="yes"/>
      <point x="333" y="-10"/>
      <point x="411" y="56"/>
      <point x="411" y="150" type="curve" smooth="yes"/>
      <point x="411" y="197"/>
      <point x="393" y="233"/>
      <point x="360" y="263" type="curve"/>
      <point x="398" y="286"/>
      <point x="423" y="333"/>
      <point x="423" y="379" type="curve" smooth="yes"/>
      <point x="423" y="460"/>
      <point x="368" y="502"/>
      <point x="280" y="541" type="curve" smooth="yes"/>
      <point x="234" y="561"/>
      <point x="210" y="573"/>
      <point x="210" y="602" type="curve" smooth="yes"/>
      <point x="210" y="614"/>
      <point x="216" y="631"/>
      <point x="237" y="631" type="curve" smooth="yes"/>
      <point x="260" y="631"/>
      <point x="269" y="618"/>
      <point x="272" y="567" type="curve"/>
      <point x="427" y="567" type="line"/>
      <point x="427" y="677"/>
      <point x="351" y="739"/>
      <point x="238" y="739" type="curve" smooth="yes"/>
      <point x="120" y="739"/>
      <point x="42" y="675"/>
      <point x="42" y="578" type="curve" smooth="yes"/>
      <point x="42" y="537"/>
      <point x="60" y="496"/>
      <point x="100" y="468" type="curve"/>
      <point x="57" y="441"/>
      <point x="34" y="397"/>
      <point x="34" y="354" type="curve" smooth="yes"/>
      <point x="34" y="279"/>
      <point x="84" y="243"/>
      <point x="146" y="215" type="curve" smooth="yes"/>
      <point x="224" y="179"/>
      <point x="241" y="171"/>
      <point x="241" y="135" type="curve" smooth="yes"/>
      <point x="241" y="115"/>
      <point x="234" y="101"/>
      <point x="213" y="101" type="curve" smooth="yes"/>
      <point x="191" y="101"/>
      <point x="177" y="120"/>
      <point x="177" y="168" type="curve"/>
      <point x="17" y="168" type="line"/>
      <point x="19" y="61"/>
      <point x="82" y="-10"/>
    </contour>
    <contour>
      <point x="262" y="321" type="curve"/>
      <point x="257" y="324"/>
      <point x="246" y="330"/>
      <point x="237" y="334" type="curve" smooth="yes"/>
      <point x="196" y="355"/>
      <point x="182" y="367"/>
      <point x="182" y="389" type="curve" smooth="yes"/>
      <point x="182" y="399"/>
      <point x="186" y="408"/>
      <point x="193" y="417" type="curve"/>
      <point x="198" y="414"/>
      <point x="205" y="410"/>
      <point x="216" y="405" type="curve" smooth="yes"/>
      <point x="248" y="389"/>
      <point x="270" y="375"/>
      <point x="270" y="349" type="curve" smooth="yes"/>
      <point x="270" y="338"/>
      <point x="269" y="330"/>
    </contour>
  </outline>
</glyph>
<glyph name="ordfeminine" format="2">
  <advance width="316"/>
  <unicode hex="00AA"/>
  <outline>
    <contour>
      <point x="96" y="385" type="curve" smooth="yes"/>
      <point x="136" y="385"/>
      <point x="169" y="406"/>
      <point x="174" y="444" type="curve"/>
      <point x="178" y="444" type="line"/>
      <point x="183" y="392" type="line"/>
      <point x="298" y="392" type="line"/>
      <point x="298" y="617" type="line" smooth="yes"/>
      <point x="298" y="732"/>
      <point x="235" y="755"/>
      <point x="160" y="755" type="curve" smooth="yes"/>
      <point x="74" y="755"/>
      <point x="20" y="712"/>
      <point x="22" y="623" type="curve"/>
      <point x="131" y="623" type="line"/>
      <point x="131" y="643"/>
      <point x="136" y="652"/>
      <point x="151" y="652" type="curve" smooth="yes"/>
      <point x="167" y="652"/>
      <point x="170" y="642"/>
      <point x="170" y="621" type="curve" smooth="yes"/>
      <point x="170" y="588" type="line"/>
      <point x="185" y="601" type="line"/>
      <point x="134" y="601" type="line" smooth="yes"/>
      <point x="53" y="601"/>
      <point x="11" y="557"/>
      <point x="11" y="494" type="curve" smooth="yes"/>
      <point x="11" y="476" type="line" smooth="yes"/>
      <point x="11" y="416"/>
      <point x="45" y="385"/>
    </contour>
    <contour>
      <point x="154" y="479" type="curve" smooth="yes"/>
      <point x="142" y="479"/>
      <point x="136" y="488"/>
      <point x="136" y="503" type="curve" smooth="yes"/>
      <point x="136" y="509" type="line" smooth="yes"/>
      <point x="136" y="523"/>
      <point x="141" y="532"/>
      <point x="157" y="532" type="curve" smooth="yes"/>
      <point x="170" y="532" type="line"/>
      <point x="170" y="502" type="line" smooth="yes"/>
      <point x="170" y="486"/>
      <point x="166" y="479"/>
    </contour>
  </outline>
</glyph>
<glyph name="logicalnot" format="2">
  <advance width="500"/>
  <unicode hex="00AC"/>
  <outline>
    <contour>
      <point x="335" y="142" type="line"/>
      <point x="482" y="142" type="line"/>
      <point x="482" y="428" type="line"/>
      <point x="9" y="428" type="line"/>
      <point x="9" y="278" type="line"/>
      <point x="335" y="278" type="line"/>
    </contour>
  </outline>
</glyph>
<glyph name="registered" format="2">
  <advance width="490"/>
  <unicode hex="00AE"/>
  <outline>
    <contour>
      <point x="245" y="224" type="curve" smooth="yes"/>
      <point x="379" y="224"/>
      <point x="469" y="327"/>
      <point x="469" y="481" type="curve" smooth="yes"/>
      <point x="469" y="635"/>
      <point x="379" y="738"/>
      <point x="245" y="738" type="curve" smooth="yes"/>
      <point x="111" y="738"/>
      <point x="21" y="635"/>
      <point x="21" y="481" type="curve" smooth="yes"/>
      <point x="21" y="327"/>
      <point x="111" y="224"/>
    </contour>
    <contour>
      <point x="245" y="277" type="curve" smooth="yes"/>
      <point x="141" y="277"/>
      <point x="80" y="353"/>
      <point x="80" y="481" type="curve" smooth="yes"/>
      <point x="80" y="609"/>
      <point x="141" y="685"/>
      <point x="245" y="685" type="curve" smooth="yes"/>
      <point x="349" y="685"/>
      <point x="410" y="609"/>
      <point x="410" y="481" type="curve" smooth="yes"/>
      <point x="410" y="353"/>
      <point x="349" y="277"/>
    </contour>
    <contour>
      <point x="162" y="338" type="line"/>
      <point x="237" y="338" type="line"/>
      <point x="237" y="572" type="line"/>
      <point x="244" y="572" type="line" smooth="yes"/>
      <point x="259" y="572"/>
      <point x="267" y="563"/>
      <point x="267" y="546" type="curve" smooth="yes"/>
      <point x="267" y="524" type="line" smooth="yes"/>
      <point x="267" y="506"/>
      <point x="259" y="496"/>
      <point x="244" y="496" type="curve" smooth="yes"/>
      <point x="230" y="496" type="line"/>
      <point x="230" y="437" type="line"/>
      <point x="243" y="437" type="line"/>
      <point x="267" y="338" type="line"/>
      <point x="349" y="338" type="line"/>
      <point x="310" y="463" type="line"/>
      <point x="310" y="458" type="line"/>
      <point x="310" y="455" type="line"/>
      <point x="335" y="471"/>
      <point x="349" y="500"/>
      <point x="349" y="536" type="curve" smooth="yes"/>
      <point x="349" y="597"/>
      <point x="314" y="633"/>
      <point x="254" y="633" type="curve" smooth="yes"/>
      <point x="162" y="633" type="line"/>
    </contour>
  </outline>
</glyph>
<glyph name="degree" format="2">
  <advance width="414"/>
  <unicode hex="00B0"/>
  <outline>
    <contour>
      <point x="207" y="387" type="curve" smooth="yes"/>
      <point x="308" y="387"/>
      <point x="375" y="450"/>
      <point x="375" y="563" type="curve" smooth="yes"/>
      <point x="375" y="676"/>
      <point x="308" y="739"/>
      <point x="207" y="739" type="curve" smooth="yes"/>
      <point x="106" y="739"/>
      <point x="39" y="676"/>
      <point x="39" y="563" type="curve" smooth="yes"/>
      <point x="39" y="450"/>
      <point x="106" y="387"/>
    </contour>
    <contour>
      <point x="207" y="496" type="curve" smooth="yes"/>
      <point x="180" y="496"/>
      <point x="168" y="518"/>
      <point x="168" y="563" type="curve" smooth="yes"/>
      <point x="168" y="608"/>
      <point x="180" y="630"/>
      <point x="207" y="630" type="curve" smooth="yes"/>
      <point x="234" y="630"/>
      <point x="246" y="608"/>
      <point x="246" y="563" type="curve" smooth="yes"/>
      <point x="246" y="518"/>
      <point x="234" y="496"/>
    </contour>
  </outline>
</glyph>
<glyph name="plusminus" format="2">
  <advance width="500"/>
  <unicode hex="00B1"/>
  <outline>
    <contour>
      <point x="176" y="188" type="line"/>
      <point x="326" y="188" type="line"/>
      <point x="326" y="307" type="line"/>
      <point x="470" y="307" type="line"/>
      <point x="470" y="450" type="line"/>
      <point x="326" y="450" type="line"/>
      <point x="326" y="569" type="line"/>
      <point x="176" y="569" type="line"/>
      <point x="176" y="450" type="line"/>
      <point x="31" y="450" type="line"/>
      <point x="31" y="307" type="line"/>
      <point x="176" y="307" type="line"/>
    </contour>
    <contour>
      <point x="31" y="0" type="line"/>
      <point x="470" y="0" type="line"/>
      <point x="470" y="136" type="line"/>
      <point x="31" y="136" type="line"/>
    </contour>
  </outline>
</glyph>
<glyph name="paragraph" format="2">
  <advance width="753"/>
  <unicode hex="00B6"/>
  <outline>
    <contour>
      <point x="237" y="-151" type="line"/>
      <point x="418" y="-151" type="line"/>
      <point x="418" y="566" type="line"/>
      <point x="483" y="566" type="line"/>
      <point x="483" y="-151" type="line"/>
      <point x="665" y="-151" type="line"/>
      <point x="665" y="566" type="line"/>
      <point x="725" y="566" type="line"/>
      <point x="725" y="729" type="line"/>
      <point x="233" y="729" type="line" smooth="yes"/>
      <point x="93" y="729"/>
      <point x="10" y="657"/>
      <point x="10" y="527" type="curve" smooth="yes"/>
      <point x="10" y="407"/>
      <point x="95" y="331"/>
      <point x="237" y="336" type="curve"/>
    </contour>
  </outline>
</glyph>
<glyph name="ordmasculine" format="2">
  <advance width="325"/>
  <unicode hex="00BA"/>
  <outline>
    <contour>
      <point x="163" y="385" type="curve" smooth="yes"/>
      <point x="262" y="385"/>
      <point x="314" y="439"/>
      <point x="314" y="549" type="curve" smooth="yes"/>
      <point x="314" y="592" type="line" smooth="yes"/>
      <point x="314" y="697"/>
      <point x="266" y="755"/>
      <point x="163" y="755" type="curve" smooth="yes"/>
      <point x="64" y="755"/>
      <point x="11" y="704"/>
      <point x="11" y="592" type="curve" smooth="yes"/>
      <point x="11" y="549" type="line" smooth="yes"/>
      <point x="11" y="444"/>
      <point x="58" y="385"/>
    </contour>
    <contour>
      <point x="163" y="490" type="curve" smooth="yes"/>
      <point x="150" y="490"/>
      <point x="137" y="493"/>
      <point x="137" y="525" type="curve" smooth="yes"/>
      <point x="137" y="617" type="line" smooth="yes"/>
      <point x="137" y="648"/>
      <point x="150" y="652"/>
      <point x="163" y="652" type="curve" smooth="yes"/>
      <point x="177" y="652"/>
      <point x="189" y="646"/>
      <point x="189" y="617" type="curve" smooth="yes"/>
      <point x="189" y="525" type="line" smooth="yes"/>
      <point x="189" y="496"/>
      <point x="178" y="490"/>
    </contour>
  </outline>
</glyph>
<glyph name="multiply" format="2">
  <advance width="500"/>
  <unicode hex="00D7"/>
  <outline>
    <contour>
      <point x="130" y="146" type="line"/>
      <point x="469" y="486" type="line"/>
      <point x="370" y="584" type="line"/>
      <point x="31" y="246" type="line"/>
    </contour>
    <contour>
      <point x="370" y="146" type="line"/>
      <point x="469" y="246" type="line"/>
      <point x="130" y="584" type="line"/>
      <point x="31" y="486" type="line"/>
    </contour>
  </outline>
</glyph>
<glyph name="Thorn" format="2">
  <advance width="480"/>
  <unicode hex="00DE"/>
  <outline>
    <contour>
      <point x="33" y="0" type="line"/>
      <point x="212" y="0" type="line"/>
      <point x="212" y="729" type="line"/>
      <point x="33" y="729" type="line"/>
    </contour>
    <contour>
      <point x="196" y="138" type="line"/>
      <point x="253" y="138" type="line" smooth="yes"/>
      <point x="377" y="138"/>
      <point x="463" y="189"/>
      <point x="463" y="371" type="curve" smooth="yes"/>
      <point x="463" y="517"/>
      <point x="387" y="591"/>
      <point x="230" y="591" type="curve" smooth="yes"/>
      <point x="196" y="591" type="line"/>
      <point x="196" y="458" type="line"/>
      <point x="237" y="458" type="line" smooth="yes"/>
      <point x="269" y="458"/>
      <point x="289" y="449"/>
      <point x="289" y="403" type="curve" smooth="yes"/>
      <point x="289" y="329" type="line" smooth="yes"/>
      <point x="289" y="291"/>
      <point x="280" y="267"/>
      <point x="237" y="267" type="curve" smooth="yes"/>
      <point x="196" y="267" type="line"/>
    </contour>
  </outline>
</glyph>
<glyph name="germandbls" format="2">
  <advance width="579"/>
  <unicode hex="00DF"/>
  <outline>
    <contour>
      <point x="82" y="0" type="line"/>
      <point x="259" y="0" type="line"/>
      <point x="259" y="499" type="line" smooth="yes"/>
      <point x="259" y="554"/>
      <point x="277" y="576"/>
      <point x="313" y="576" type="curve" smooth="yes"/>
      <point x="349" y="576"/>
      <point x="369" y="554"/>
      <point x="369" y="507" type="curve" smooth="yes"/>
      <point x="369" y="463"/>
      <point x="347" y="434"/>
      <point x="310" y="434" type="curve" smooth="yes"/>
      <point x="291" y="434" type="line"/>
      <point x="291" y="312" type="line"/>
      <point x="309" y="312" type="line" smooth="yes"/>
      <point x="346" y="312"/>
      <point x="389" y="302"/>
      <point x="389" y="243" type="curve" smooth="yes"/>
      <point x="389" y="216" type="line" smooth="yes"/>
      <point x="389" y="171"/>
      <point x="363" y="147"/>
      <point x="307" y="147" type="curve" smooth="yes"/>
      <point x="294" y="147" type="line"/>
      <point x="294" y="0" type="line"/>
      <point x="322" y="0" type="line" smooth="yes"/>
      <point x="468" y="0"/>
      <point x="567" y="77"/>
      <point x="567" y="206" type="curve" smooth="yes"/>
      <point x="567" y="305"/>
      <point x="515" y="379"/>
      <point x="439" y="392" type="curve"/>
      <point x="439" y="400" type="line"/>
      <point x="488" y="420"/>
      <point x="532" y="472"/>
      <point x="532" y="550" type="curve" smooth="yes"/>
      <point x="532" y="663"/>
      <point x="449" y="738"/>
      <point x="319" y="738" type="curve" smooth="yes"/>
      <point x="175" y="738"/>
      <point x="82" y="656"/>
      <point x="82" y="514" type="curve" smooth="yes"/>
    </contour>
    <contour>
      <point x="12" y="407" type="line"/>
      <point x="224" y="407" type="line"/>
      <point x="224" y="546" type="line"/>
      <point x="12" y="546" type="line"/>
    </contour>
  </outline>
</glyph>
<glyph name="ae" format="2">
  <advance width="706"/>
  <unicode hex="00E6"/>
  <outline>
    <contour>
      <point x="147" y="-9" type="curve" smooth="yes"/>
      <point x="214" y="-9"/>
      <point x="263" y="27"/>
      <point x="279" y="78" type="curve"/>
      <point x="289" y="78" type="line"/>
      <point x="313" y="26"/>
      <point x="386" y="-9"/>
      <point x="469" y="-9" type="curve" smooth="yes"/>
      <point x="597" y="-9"/>
      <point x="683" y="58"/>
      <point x="688" y="176" type="curve"/>
      <point x="521" y="176" type="line"/>
      <point x="520" y="144"/>
      <point x="503" y="125"/>
      <point x="478" y="125" type="curve" smooth="yes"/>
      <point x="451" y="125"/>
      <point x="428" y="137"/>
      <point x="428" y="186" type="curve" smooth="yes"/>
      <point x="428" y="373" type="line" smooth="yes"/>
      <point x="428" y="401"/>
      <point x="442" y="420"/>
      <point x="471" y="420" type="curve" smooth="yes"/>
      <point x="500" y="420"/>
      <point x="514" y="401"/>
      <point x="514" y="373" type="curve" smooth="yes"/>
      <point x="514" y="308" type="line"/>
      <point x="536" y="330" type="line"/>
      <point x="412" y="330" type="line"/>
      <point x="412" y="221" type="line"/>
      <point x="690" y="221" type="line"/>
      <point x="690" y="318" type="line" smooth="yes"/>
      <point x="690" y="471"/>
      <point x="601" y="557"/>
      <point x="473" y="557" type="curve" smooth="yes"/>
      <point x="430" y="557"/>
      <point x="389" y="549"/>
      <point x="354" y="529" type="curve"/>
      <point x="320" y="550"/>
      <point x="277" y="556"/>
      <point x="229" y="556" type="curve" smooth="yes"/>
      <point x="104" y="556"/>
      <point x="25" y="492"/>
      <point x="28" y="360" type="curve"/>
      <point x="182" y="360" type="line"/>
      <point x="183" y="396"/>
      <point x="192" y="410"/>
      <point x="219" y="410" type="curve" smooth="yes"/>
      <point x="244" y="410"/>
      <point x="254" y="396"/>
      <point x="254" y="356" type="curve" smooth="yes"/>
      <point x="254" y="319" type="line" smooth="yes"/>
      <point x="254" y="270"/>
      <point x="254" y="221"/>
      <point x="254" y="172" type="curve" smooth="yes"/>
      <point x="254" y="139"/>
      <point x="245" y="122"/>
      <point x="221" y="122" type="curve" smooth="yes"/>
      <point x="199" y="122"/>
      <point x="188" y="136"/>
      <point x="188" y="172" type="curve" smooth="yes"/>
      <point x="188" y="216"/>
      <point x="197" y="232"/>
      <point x="234" y="232" type="curve" smooth="yes"/>
      <point x="270" y="232" type="line"/>
      <point x="270" y="331" type="line"/>
      <point x="196" y="331" type="line" smooth="yes"/>
      <point x="75" y="331"/>
      <point x="12" y="260"/>
      <point x="12" y="145" type="curve" smooth="yes"/>
      <point x="12" y="53"/>
      <point x="60" y="-9"/>
    </contour>
  </outline>
</glyph>
<glyph name="eth" format="2">
  <advance width="471"/>
  <unicode hex="00F0"/>
  <outline>
    <contour>
      <point x="225" y="-9" type="curve" smooth="yes"/>
      <point x="358" y="-9"/>
      <point x="454" y="68"/>
      <point x="454" y="231" type="curve" smooth="yes"/>
      <point x="454" y="316" type="line" smooth="yes"/>
      <point x="454" y="460"/>
      <point x="386" y="617"/>
      <point x="285" y="729" type="curve"/>
      <point x="111" y="729" type="line"/>
      <point x="188" y="624"/>
      <point x="248" y="512"/>
      <point x="265" y="437" type="curve"/>
      <point x="255" y="437" type="line"/>
      <point x="237" y="466"/>
      <point x="204" y="485"/>
      <point x="166" y="485" type="curve" smooth="yes"/>
      <point x="70" y="485"/>
      <point x="16" y="421"/>
      <point x="16" y="286" type="curve" smooth="yes"/>
      <point x="16" y="211" type="line" smooth="yes"/>
      <point x="16" y="79"/>
      <point x="88" y="-9"/>
    </contour>
    <contour>
      <point x="235" y="126" type="curve" smooth="yes"/>
      <point x="206" y="126"/>
      <point x="192" y="145"/>
      <point x="192" y="172" type="curve" smooth="yes"/>
      <point x="192" y="313" type="line" smooth="yes"/>
      <point x="192" y="341"/>
      <point x="206" y="360"/>
      <point x="235" y="360" type="curve" smooth="yes"/>
      <point x="251" y="360"/>
      <point x="267" y="354"/>
      <point x="278" y="340" type="curve"/>
      <point x="278" y="325"/>
      <point x="278" y="311"/>
      <point x="278" y="296" type="curve" smooth="yes"/>
      <point x="278" y="172" type="line" smooth="yes"/>
      <point x="278" y="145"/>
      <point x="264" y="126"/>
    </contour>
    <contour>
      <point x="102" y="501" type="line"/>
      <point x="444" y="576" type="line"/>
      <point x="444" y="696" type="line"/>
      <point x="102" y="621" type="line"/>
    </contour>
  </outline>
</glyph>
<glyph name="divide" format="2">
  <advance width="500"/>
  <unicode hex="00F7"/>
  <outline>
    <contour>
      <point x="29" y="294" type="line"/>
      <point x="471" y="294" type="line"/>
      <point x="471" y="436" type="line"/>
      <point x="29" y="436" type="line"/>
    </contour>
    <contour>
      <point x="165" y="484" type="line"/>
      <point x="336" y="484" type="line"/>
      <point x="336" y="635" type="line"/>
      <point x="165" y="635" type="line"/>
    </contour>
    <contour>
      <point x="165" y="94" type="line"/>
      <point x="336" y="94" type="line"/>
      <point x="336" y="245" type="line"/>
      <point x="165" y="245" type="line"/>
    </contour>
  </outline>
</glyph>
<glyph name="thorn" format="2">
  <advance width="486"/>
  <unicode hex="00FE"/>
  <outline>
    <contour>
      <point x="28" y="-167" type="line"/>
      <point x="204" y="-167" type="line"/>
      <point x="204" y="70" type="line"/>
      <point x="211" y="70" type="line"/>
      <point x="228" y="23"/>
      <point x="271" y="-9"/>
      <point x="327" y="-9" type="curve" smooth="yes"/>
      <point x="424" y="-9"/>
      <point x="466" y="69"/>
      <point x="466" y="181" type="curve" smooth="yes"/>
      <point x="466" y="365" type="line" smooth="yes"/>
      <point x="466" y="477"/>
      <point x="424" y="555"/>
      <point x="327" y="555" type="curve" smooth="yes"/>
      <point x="271" y="555"/>
      <point x="228" y="522"/>
      <point x="211" y="477" type="curve"/>
      <point x="204" y="477" type="line"/>
      <point x="204" y="729" type="line"/>
      <point x="28" y="729" type="line"/>
    </contour>
    <contour>
      <point x="243" y="126" type="curve" smooth="yes"/>
      <point x="226" y="126"/>
      <point x="212" y="134"/>
      <point x="204" y="147" type="curve"/>
      <point x="204" y="399" type="line"/>
      <point x="212" y="412"/>
      <point x="226" y="420"/>
      <point x="243" y="420" type="curve" smooth="yes"/>
      <point x="275" y="420"/>
      <point x="290" y="399"/>
      <point x="290" y="368" type="curve" smooth="yes"/>
      <point x="290" y="178" type="line" smooth="yes"/>
      <point x="290" y="147"/>
      <point x="275" y="126"/>
    </contour>
  </outline>
</glyph>
<glyph name="idotless" format="2">
  <advance width="232"/>
  <unicode hex="0131"/>
  <anchor x="116" y="0" name="bottom"/>
  <anchor x="204" y="0" name="ogonek"/>
  <anchor x="116" y="546" name="top"/>
  <outline>
    <contour>
      <point x="28" y="0" type="line"/>
      <point x="204" y="0" type="line"/>
      <point x="204" y="546" type="line"/>
      <point x="28" y="546" type="line"/>
    </contour>
  </outline>
</glyph>
<glyph name="Eng" format="2">
  <advance width="516"/>
  <unicode hex="014A"/>
  <outline>
    <contour>
      <point x="232" y="-167" type="line"/>
      <point x="329" y="-167" type="line" smooth="yes"/>
      <point x="422" y="-167"/>
      <point x="483" y="-118"/>
      <point x="483" y="-12" type="curve" smooth="yes"/>
      <point x="483" y="729" type="line"/>
      <point x="315" y="729" type="line"/>
      <point x="315" y="381" type="line"/>
      <point x="309" y="381" type="line"/>
      <point x="297" y="443" type="line"/>
      <point x="234" y="729" type="line"/>
      <point x="33" y="729" type="line"/>
      <point x="33" y="0" type="line"/>
      <point x="201" y="0" type="line"/>
      <point x="201" y="335" type="line"/>
      <point x="207" y="335" type="line"/>
      <point x="215" y="292" type="line"/>
      <point x="281" y="0" type="line"/>
      <point x="307" y="0" type="line"/>
      <point x="307" y="-33" type="line"/>
      <point x="232" y="-33" type="line"/>
    </contour>
  </outline>
</glyph>
<glyph name="eng" format="2">
  <advance width="491"/>
  <unicode hex="014B"/>
  <outline>
    <contour>
      <point x="226" y="-167" type="line"/>
      <point x="315" y="-167" type="line" smooth="yes"/>
      <point x="405" y="-167"/>
      <point x="467" y="-118"/>
      <point x="467" y="-13" type="curve" smooth="yes"/>
      <point x="467" y="369" type="line" smooth="yes"/>
      <point x="467" y="480"/>
      <point x="426" y="555"/>
      <point x="334" y="555" type="curve" smooth="yes"/>
      <point x="282" y="555"/>
      <point x="236" y="527"/>
      <point x="214" y="477" type="curve"/>
      <point x="206" y="477" type="line"/>
      <point x="192" y="546" type="line"/>
      <point x="28" y="546" type="line"/>
      <point x="28" y="0" type="line"/>
      <point x="206" y="0" type="line"/>
      <point x="206" y="386" type="line"/>
      <point x="216" y="401"/>
      <point x="234" y="410"/>
      <point x="252" y="410" type="curve" smooth="yes"/>
      <point x="282" y="410"/>
      <point x="292" y="387"/>
      <point x="292" y="357" type="curve" smooth="yes"/>
      <point x="292" y="-23" type="line"/>
      <point x="226" y="-23" type="line"/>
    </contour>
  </outline>
</glyph>
<glyph name="florin" format="2">
  <advance width="536"/>
  <unicode hex="0192"/>
  <outline>
    <contour>
      <point x="333" y="79" type="curve" smooth="yes"/>
      <point x="398" y="571" type="line"/>
      <point x="516" y="571" type="line"/>
      <point x="516" y="729" type="line"/>
      <point x="389" y="729" type="line" smooth="yes"/>
      <point x="291" y="729"/>
      <point x="220" y="689"/>
      <point x="203" y="563" type="curve" smooth="yes"/>
      <point x="133" y="74" type="line"/>
      <point x="20" y="74" type="line"/>
      <point x="20" y="-85" type="line"/>
      <point x="145" y="-85" type="line" smooth="yes"/>
      <point x="246" y="-85"/>
      <point x="318" y="-39"/>
    </contour>
    <contour>
      <point x="97" y="337" type="line"/>
      <point x="498" y="337" type="line"/>
      <point x="498" y="493" type="line"/>
      <point x="97" y="493" type="line"/>
    </contour>
  </outline>
</glyph>
<glyph name="jdotless" format="2">
  <advance width="232"/>
  <unicode hex="0237"/>
  <anchor x="116" y="546" name="top"/>
  <outline>
    <contour>
      <point x="-36" y="-167" type="line"/>
      <point x="95" y="-167" type="line" smooth="yes"/>
      <point x="165" y="-167"/>
      <point x="204" y="-128"/>
      <point x="204" y="-58" type="curve" smooth="yes"/>
      <point x="204" y="546" type="line"/>
      <point x="28" y="546" type="line"/>
      <point x="28" y="-23" type="line"/>
      <point x="-36" y="-23" type="line"/>
    </contour>
  </outline>
</glyph>
<glyph name="gravecomb" format="2">
  <unicode hex="0300"/>
  <anchor x="187" y="546" name="_top"/>
  <outline>
    <contour>
      <point x="109" y="586" type="line"/>
      <point x="265" y="586" type="line"/>
      <point x="216" y="729" type="line"/>
      <point x="40" y="729" type="line"/>
    </contour>
  </outline>
</glyph>
<glyph name="acutecomb" format="2">
  <unicode hex="0301"/>
  <anchor x="118" y="546" name="_top"/>
  <outline>
    <contour>
      <point x="40" y="586" type="line"/>
      <point x="196" y="586" type="line"/>
      <point x="265" y="729" type="line"/>
      <point x="88" y="729" type="line"/>
    </contour>
  </outline>
</glyph>
<glyph name="circumflexcomb" format="2">
  <unicode hex="0302"/>
  <anchor x="229" y="546" name="_top"/>
  <outline>
    <contour>
      <point x="40" y="586" type="line"/>
      <point x="198" y="586" type="line"/>
      <point x="229" y="651" type="line"/>
      <point x="260" y="586" type="line"/>
      <point x="418" y="586" type="line"/>
      <point x="335" y="729" type="line"/>
      <point x="123" y="729" type="line"/>
    </contour>
  </outline>
</glyph>
<glyph name="tildecomb" format="2">
  <unicode hex="0303"/>
  <anchor x="205" y="546" name="_top"/>
  <outline>
    <contour>
      <point x="276" y="604" type="curve" smooth="yes"/>
      <point x="325" y="604"/>
      <point x="381" y="642"/>
      <point x="374" y="758" type="curve"/>
      <point x="310" y="758" type="line"/>
      <point x="310" y="733"/>
      <point x="297" y="712"/>
      <point x="267" y="712" type="curve" smooth="yes"/>
      <point x="221" y="712"/>
      <point x="195" y="761"/>
      <point x="135" y="761" type="curve" smooth="yes"/>
      <point x="86" y="761"/>
      <point x="34" y="723"/>
      <point x="40" y="609" type="curve"/>
      <point x="105" y="609" type="line"/>
      <point x="102" y="628"/>
      <point x="111" y="655"/>
      <point x="139" y="655" type="curve" smooth="yes"/>
      <point x="177" y="655"/>
      <point x="207" y="604"/>
    </contour>
  </outline>
</glyph>
<glyph name="brevecomb" format="2">
  <unicode hex="0306"/>
  <anchor x="191" y="546" name="_top"/>
  <outline>
    <contour>
      <point x="191" y="581" type="curve" smooth="yes"/>
      <point x="282" y="581"/>
      <point x="343" y="626"/>
      <point x="343" y="729" type="curve"/>
      <point x="221" y="729" type="line"/>
      <point x="221" y="697"/>
      <point x="216" y="676"/>
      <point x="191" y="676" type="curve" smooth="yes"/>
      <point x="173" y="676"/>
      <point x="160" y="684"/>
      <point x="160" y="729" type="curve"/>
      <point x="40" y="729" type="line"/>
      <point x="38" y="639"/>
      <point x="84" y="581"/>
    </contour>
  </outline>
</glyph>
<glyph name="dotaccentcomb" format="2">
  <unicode hex="0307"/>
  <anchor x="128" y="546" name="_top"/>
  <outline>
    <contour>
      <point x="40" y="586" type="line"/>
      <point x="216" y="586" type="line"/>
      <point x="216" y="729" type="line"/>
      <point x="40" y="729" type="line"/>
    </contour>
  </outline>
</glyph>
<glyph name="dieresiscomb" format="2">
  <unicode hex="0308"/>
  <anchor x="225" y="546" name="_top"/>
  <outline>
    <contour>
      <point x="40" y="586" type="line"/>
      <point x="205" y="586" type="line"/>
      <point x="205" y="729" type="line"/>
      <point x="40" y="729" type="line"/>
    </contour>
    <contour>
      <point x="245" y="586" type="line"/>
      <point x="409" y="586" type="line"/>
      <point x="409" y="729" type="line"/>
      <point x="245" y="729" type="line"/>
    </contour>
  </outline>
</glyph>
<glyph name="hookabovecomb" format="2">
  <unicode hex="0309"/>
  <anchor x="139" y="546" name="_top"/>
  <outline>
    <contour>
      <point x="122" y="588" type="line"/>
      <point x="218" y="633"/>
      <point x="256" y="684"/>
      <point x="256" y="745" type="curve" smooth="yes"/>
      <point x="256" y="823"/>
      <point x="193" y="857"/>
      <point x="125" y="857" type="curve" smooth="yes"/>
      <point x="97" y="857"/>
      <point x="68" y="853"/>
      <point x="40" y="842" type="curve"/>
      <point x="40" y="747" type="line"/>
      <point x="49" y="753"/>
      <point x="67" y="757"/>
      <point x="80" y="757" type="curve" smooth="yes"/>
      <point x="102" y="757"/>
      <point x="120" y="748"/>
      <point x="120" y="725" type="curve" smooth="yes"/>
      <point x="120" y="703"/>
      <point x="106" y="687"/>
      <point x="67" y="669" type="curve"/>
    </contour>
  </outline>
</glyph>
<glyph name="ringcomb" format="2">
  <unicode hex="030A"/>
  <anchor x="153" y="546" name="_top"/>
  <outline>
    <contour>
      <point x="153" y="581" type="curve" smooth="yes"/>
      <point x="223" y="581"/>
      <point x="266" y="632"/>
      <point x="266" y="703" type="curve" smooth="yes"/>
      <point x="266" y="775"/>
      <point x="221" y="825"/>
      <point x="153" y="825" type="curve" smooth="yes"/>
      <point x="85" y="825"/>
      <point x="40" y="774"/>
      <point x="40" y="703" type="curve" smooth="yes"/>
      <point x="40" y="631"/>
      <point x="86" y="581"/>
    </contour>
    <contour>
      <point x="153" y="660" type="curve" smooth="yes"/>
      <point x="140" y="660"/>
      <point x="130" y="672"/>
      <point x="130" y="703" type="curve" smooth="yes"/>
      <point x="130" y="732"/>
      <point x="138" y="746"/>
      <point x="153" y="746" type="curve" smooth="yes"/>
      <point x="167" y="746"/>
      <point x="177" y="734"/>
      <point x="177" y="703" type="curve" smooth="yes"/>
      <point x="177" y="674"/>
      <point x="169" y="660"/>
    </contour>
  </outline>
</glyph>
<glyph name="hungarumlautcomb" format="2">
  <unicode hex="030B"/>
  <anchor x="198" y="546" name="_top"/>
  <outline>
    <contour>
      <point x="40" y="586" type="line"/>
      <point x="176" y="586" type="line"/>
      <point x="245" y="729" type="line"/>
      <point x="88" y="729" type="line"/>
    </contour>
    <contour>
      <point x="220" y="586" type="line"/>
      <point x="358" y="586" type="line"/>
      <point x="427" y="729" type="line"/>
      <point x="268" y="729" type="line"/>
    </contour>
  </outline>
</glyph>
<glyph name="caroncomb" format="2">
  <unicode hex="030C"/>
  <anchor x="229" y="546" name="_top"/>
  <outline>
    <contour>
      <point x="123" y="586" type="line"/>
      <point x="335" y="586" type="line"/>
      <point x="418" y="729" type="line"/>
      <point x="260" y="729" type="line"/>
      <point x="229" y="665" type="line"/>
      <point x="198" y="729" type="line"/>
      <point x="40" y="729" type="line"/>
    </contour>
  </outline>
</glyph>
<glyph name="commaturnedabovecomb" format="2">
  <unicode hex="0312"/>
  <anchor x="116" y="546" name="_top"/>
  <outline>
    <contour>
      <point x="40" y="601" type="line"/>
      <point x="192" y="601" type="line"/>
      <point x="192" y="738" type="line"/>
      <point x="126" y="738" type="line"/>
      <point x="207" y="875" type="line"/>
      <point x="103" y="875" type="line"/>
      <point x="40" y="716" type="line"/>
    </contour>
  </outline>
</glyph>
<glyph name="horncomb" format="2">
  <unicode hex="031B"/>
  <anchor x="40" y="526" name="_topright"/>
  <outline>
    <contour>
      <point x="40" y="451" type="line"/>
      <point x="162" y="451"/>
      <point x="217" y="492"/>
      <point x="217" y="585" type="curve" smooth="yes"/>
      <point x="217" y="615" type="line"/>
      <point x="100" y="615" type="line"/>
      <point x="100" y="596" type="line" smooth="yes"/>
      <point x="100" y="544"/>
      <point x="84" y="528"/>
      <point x="40" y="526" type="curve"/>
    </contour>
  </outline>
</glyph>
<glyph name="dotbelowcomb" format="2">
  <unicode hex="0323"/>
  <anchor x="128" y="0" name="_bottom"/>
  <outline>
    <contour>
      <point x="40" y="-167" type="line"/>
      <point x="215" y="-167" type="line"/>
      <point x="215" y="-45" type="line"/>
      <point x="40" y="-45" type="line"/>
    </contour>
  </outline>
</glyph>
<glyph name="commaaccentcomb" format="2">
  <unicode hex="0326"/>
  <anchor x="133" y="0" name="_bottom"/>
  <outline>
    <contour>
      <point x="40" y="-319" type="line"/>
      <point x="148" y="-319" type="line"/>
      <point x="216" y="-178" type="line"/>
      <point x="216" y="-46" type="line"/>
      <point x="50" y="-46" type="line"/>
      <point x="50" y="-184" type="line"/>
      <point x="131" y="-184" type="line"/>
    </contour>
  </outline>
</glyph>
<glyph name="cedillacomb" format="2">
  <unicode hex="0327"/>
  <anchor x="188" y="0" name="_bottom"/>
  <outline>
    <contour>
      <point x="185" y="-246" type="curve" smooth="yes"/>
      <point x="256" y="-246"/>
      <point x="321" y="-209"/>
      <point x="321" y="-128" type="curve" smooth="yes"/>
      <point x="321" y="-55"/>
      <point x="275" y="-16"/>
      <point x="198" y="-29" type="curve"/>
      <point x="234" y="-39" type="line"/>
      <point x="240" y="15" type="line"/>
      <point x="135" y="15" type="line"/>
      <point x="129" y="-61" type="line"/>
      <point x="158" y="-72" type="line"/>
      <point x="184" y="-65"/>
      <point x="200" y="-71"/>
      <point x="200" y="-115" type="curve" smooth="yes"/>
      <point x="200" y="-131"/>
      <point x="196" y="-148"/>
      <point x="174" y="-148" type="curve" smooth="yes"/>
      <point x="151" y="-148"/>
      <point x="148" y="-127"/>
      <point x="148" y="-109" type="curve"/>
      <point x="40" y="-109" type="line"/>
      <point x="40" y="-196"/>
      <point x="101" y="-246"/>
    </contour>
  </outline>
</glyph>
<glyph name="ogonekcomb" format="2">
  <unicode hex="0328"/>
  <anchor x="224" y="0" name="_ogonek"/>
  <outline>
    <contour>
      <point x="147" y="-224" type="curve" smooth="yes"/>
      <point x="182" y="-224"/>
      <point x="216" y="-214"/>
      <point x="234" y="-202" type="curve"/>
      <point x="234" y="-124" type="line"/>
      <point x="227" y="-129"/>
      <point x="216" y="-132"/>
      <point x="205" y="-132" type="curve" smooth="yes"/>
      <point x="182" y="-132"/>
      <point x="168" y="-119"/>
      <point x="168" y="-98" type="curve" smooth="yes"/>
      <point x="168" y="-73"/>
      <point x="187" y="-41"/>
      <point x="223" y="0" type="curve"/>
      <point x="211" y="16" type="line"/>
      <point x="188" y="33" type="line"/>
      <point x="96" y="-12"/>
      <point x="40" y="-70"/>
      <point x="40" y="-133" type="curve" smooth="yes"/>
      <point x="40" y="-188"/>
      <point x="83" y="-224"/>
    </contour>
  </outline>
</glyph>
<glyph name="strokeshortcomb" format="2">
  <unicode hex="0335"/>
  <anchor x="185" y="621" name="_center"/>
  <outline>
    <contour>
      <point x="40" y="556" type="line"/>
      <point x="329" y="556" type="line"/>
      <point x="329" y="685" type="line"/>
      <point x="40" y="685" type="line"/>
    </contour>
  </outline>
</glyph>
<glyph name="strokelongcomb" format="2">
  <unicode hex="0336"/>
  <anchor x="293" y="285" name="_center"/>
  <outline>
    <contour>
      <point x="40" y="220" type="line"/>
      <point x="544" y="220" type="line"/>
      <point x="544" y="349" type="line"/>
      <point x="40" y="349" type="line"/>
    </contour>
  </outline>
</glyph>
<glyph name="slashshortcomb" format="2">
  <unicode hex="0337"/>
  <anchor x="162" y="371" name="_center"/>
  <outline>
    <contour>
      <point x="40" y="230" type="line"/>
      <point x="284" y="368" type="line"/>
      <point x="284" y="512" type="line"/>
      <point x="40" y="374" type="line"/>
    </contour>
  </outline>
</glyph>
<glyph name="slashlongcomb" format="2">
  <unicode hex="0338"/>
  <anchor x="262" y="278" name="_center"/>
  <outline>
    <contour>
      <point x="40" y="-20" type="line"/>
      <point x="126" y="-20" type="line"/>
      <point x="482" y="577" type="line"/>
      <point x="396" y="577" type="line"/>
    </contour>
  </outline>
</glyph>
<glyph name="mu" format="2">
  <advance width="491"/>
  <unicode hex="03BC"/>
  <outline>
    <contour>
      <point x="24" y="-132" type="line"/>
      <point x="199" y="-132" type="line"/>
      <point x="199" y="78" type="line"/>
      <point x="140" y="-4" type="line"/>
      <point x="148" y="-5"/>
      <point x="156" y="-6"/>
      <point x="164" y="-6" type="curve" smooth="yes"/>
      <point x="216" y="-6"/>
      <point x="256" y="22"/>
      <point x="277" y="69" type="curve"/>
      <point x="285" y="69" type="line"/>
      <point x="299" y="0" type="line"/>
      <point x="463" y="0" type="line"/>
      <point x="463" y="546" type="line"/>
      <point x="285" y="546" type="line"/>
      <point x="285" y="160" type="line"/>
      <point x="275" y="145"/>
      <point x="257" y="136"/>
      <point x="239" y="136" type="curve" smooth="yes"/>
      <point x="209" y="136"/>
      <point x="199" y="159"/>
      <point x="199" y="189" type="curve" smooth="yes"/>
      <point x="199" y="546" type="line"/>
      <point x="24" y="546" type="line"/>
    </contour>
  </outline>
</glyph>
<glyph name="pi" format="2">
  <advance width="526"/>
  <unicode hex="03C0"/>
  <outline>
    <contour>
      <point x="52" y="0" type="line"/>
      <point x="243" y="0" type="line"/>
      <point x="243" y="386" type="line"/>
      <point x="286" y="386" type="line"/>
      <point x="286" y="131" type="line" smooth="yes"/>
      <point x="286" y="51"/>
      <point x="316" y="0"/>
      <point x="422" y="0" type="curve" smooth="yes"/>
      <point x="508" y="0" type="line"/>
      <point x="508" y="134" type="line"/>
      <point x="469" y="134" type="line"/>
      <point x="469" y="386" type="line"/>
      <point x="508" y="386" type="line"/>
      <point x="508" y="546" type="line"/>
      <point x="12" y="546" type="line"/>
      <point x="12" y="386" type="line"/>
      <point x="52" y="386" type="line"/>
    </contour>
  </outline>
</glyph>
<glyph name="Germandbls" format="2">
  <advance width="546"/>
  <unicode hex="1E9E"/>
  <outline>
    <contour>
      <point x="33" y="0" type="line"/>
      <point x="212" y="0" type="line"/>
      <point x="212" y="577" type="line"/>
      <point x="332" y="577" type="line"/>
      <point x="260" y="441" type="line"/>
      <point x="260" y="331" type="line"/>
      <point x="274" y="331" type="line" smooth="yes"/>
      <point x="321" y="331"/>
      <point x="355" y="315"/>
      <point x="355" y="266" type="curve" smooth="yes"/>
      <point x="355" y="220" type="line" smooth="yes"/>
      <point x="355" y="176"/>
      <point x="334" y="147"/>
      <point x="275" y="147" type="curve" smooth="yes"/>
      <point x="259" y="147" type="line"/>
      <point x="259" y="0" type="line"/>
      <point x="309" y="0" type="line" smooth="yes"/>
      <point x="441" y="0"/>
      <point x="530" y="60"/>
      <point x="530" y="215" type="curve" smooth="yes"/>
      <point x="530" y="332"/>
      <point x="473" y="411"/>
      <point x="371" y="411" type="curve" smooth="yes"/>
      <point x="353" y="411" type="line"/>
      <point x="410" y="376" type="line"/>
      <point x="410" y="417" type="line"/>
      <point x="498" y="580" type="line"/>
      <point x="498" y="729" type="line"/>
      <point x="33" y="729" type="line"/>
    </contour>
  </outline>
</glyph>
<glyph name="endash" format="2">
  <advance width="454"/>
  <unicode hex="2013"/>
  <outline>
    <contour>
      <point x="20" y="240" type="line"/>
      <point x="434" y="240" type="line"/>
      <point x="434" y="405" type="line"/>
      <point x="20" y="405" type="line"/>
    </contour>
  </outline>
</glyph>
<glyph name="emdash" format="2">
  <advance width="655"/>
  <unicode hex="2014"/>
  <outline>
    <contour>
      <point x="20" y="240" type="line"/>
      <point x="635" y="240" type="line"/>
      <point x="635" y="405" type="line"/>
      <point x="20" y="405" type="line"/>
    </contour>
  </outline>
</glyph>
<glyph name="bullet" format="2">
  <advance width="292"/>
  <unicode hex="2022"/>
  <outline>
    <contour>
      <point x="6" y="277" type="curve" smooth="yes"/>
      <point x="6" y="197"/>
      <point x="67" y="138"/>
      <point x="146" y="138" type="curve" smooth="yes"/>
      <point x="230" y="138"/>
      <point x="286" y="197"/>
      <point x="286" y="277" type="curve" smooth="yes"/>
      <point x="286" y="357"/>
      <point x="230" y="416"/>
      <point x="146" y="416" type="curve" smooth="yes"/>
      <point x="67" y="416"/>
      <point x="6" y="357"/>
    </contour>
  </outline>
</glyph>
<glyph name="guilsinglleft" format="2">
  <advance width="312"/>
  <unicode hex="2039"/>
  <anchor x="-10" y="0" name="#entry"/>
  <anchor x="248" y="0" name="#exit"/>
  <outline>
    <contour>
      <point x="142" y="59" type="line"/>
      <point x="298" y="59" type="line"/>
      <point x="202" y="303" type="line"/>
      <point x="298" y="546" type="line"/>
      <point x="142" y="546" type="line"/>
      <point x="14" y="303" type="line"/>
    </contour>
  </outline>
</glyph>
<glyph name="fraction" format="2">
  <advance width="158"/>
  <unicode hex="2044"/>
  <outline>
    <contour>
      <point x="-145" y="-46" type="line"/>
      <point x="-31" y="-46" type="line"/>
      <point x="303" y="768" type="line"/>
      <point x="186" y="768" type="line"/>
    </contour>
  </outline>
</glyph>
<glyph name="zeroinferior" format="2">
  <advance width="336"/>
  <unicode hex="2080"/>
  <outline>
    <contour>
      <point x="167" y="-65" type="curve" smooth="yes"/>
      <point x="262" y="-65"/>
      <point x="316" y="-22"/>
      <point x="316" y="96" type="curve" smooth="yes"/>
      <point x="316" y="222" type="line" smooth="yes"/>
      <point x="316" y="341"/>
      <point x="260" y="383"/>
      <point x="167" y="383" type="curve" smooth="yes"/>
      <point x="74" y="383"/>
      <point x="20" y="339"/>
      <point x="20" y="222" type="curve" smooth="yes"/>
      <point x="20" y="96" type="line" smooth="yes"/>
      <point x="20" y="-23"/>
      <point x="76" y="-65"/>
    </contour>
    <contour>
      <point x="167" y="34" type="curve" smooth="yes"/>
      <point x="154" y="34"/>
      <point x="141" y="38"/>
      <point x="141" y="60" type="curve" smooth="yes"/>
      <point x="141" y="257" type="line" smooth="yes"/>
      <point x="141" y="279"/>
      <point x="153" y="283"/>
      <point x="167" y="283" type="curve" smooth="yes"/>
      <point x="183" y="283"/>
      <point x="195" y="279"/>
      <point x="195" y="257" type="curve" smooth="yes"/>
      <point x="195" y="60" type="line" smooth="yes"/>
      <point x="195" y="38"/>
      <point x="182" y="34"/>
    </contour>
  </outline>
</glyph>
<glyph name="oneinferior" format="2">
  <advance width="230"/>
  <unicode hex="2081"/>
  <outline>
    <contour>
      <point x="202" y="-60" type="line"/>
      <point x="202" y="377" type="line"/>
      <point x="104" y="377" type="line"/>
      <point x="86" y="296" type="line"/>
      <point x="12" y="296" type="line"/>
      <point x="12" y="195" type="line"/>
      <point x="82" y="195" type="line"/>
      <point x="82" y="-60" type="line"/>
    </contour>
  </outline>
</glyph>
<glyph name="twoinferior" format="2">
  <advance width="315"/>
  <unicode hex="2082"/>
  <outline>
    <contour>
      <point x="17" y="-60" type="line"/>
      <point x="299" y="-60" type="line"/>
      <point x="299" y="40" type="line"/>
      <point x="168" y="40" type="line"/>
      <point x="153" y="38" type="line"/>
      <point x="153" y="44" type="line"/>
      <point x="164" y="56" type="line"/>
      <point x="215" y="103" type="line" smooth="yes"/>
      <point x="279" y="162"/>
      <point x="296" y="206"/>
      <point x="296" y="255" type="curve" smooth="yes"/>
      <point x="296" y="332"/>
      <point x="246" y="383"/>
      <point x="158" y="383" type="curve" smooth="yes"/>
      <point x="69" y="383"/>
      <point x="10" y="329"/>
      <point x="15" y="231" type="curve"/>
      <point x="123" y="231" type="line"/>
      <point x="122" y="266"/>
      <point x="132" y="278"/>
      <point x="150" y="278" type="curve" smooth="yes"/>
      <point x="164" y="278"/>
      <point x="176" y="271"/>
      <point x="176" y="251" type="curve" smooth="yes"/>
      <point x="176" y="242" type="line" smooth="yes"/>
      <point x="176" y="230"/>
      <point x="170" y="213"/>
      <point x="155" y="196" type="curve" smooth="yes"/>
      <point x="17" y="40" type="line"/>
    </contour>
  </outline>
</glyph>
<glyph name="threeinferior" format="2">
  <advance width="328"/>
  <unicode hex="2083"/>
  <outline>
    <contour>
      <point x="163" y="-65" type="curve" smooth="yes"/>
      <point x="249" y="-65"/>
      <point x="313" y="-11"/>
      <point x="313" y="62" type="curve" smooth="yes"/>
      <point x="313" y="113"/>
      <point x="287" y="150"/>
      <point x="245" y="157" type="curve"/>
      <point x="245" y="166" type="line"/>
      <point x="288" y="178"/>
      <point x="310" y="220"/>
      <point x="310" y="261" type="curve" smooth="yes"/>
      <point x="310" y="330"/>
      <point x="257" y="383"/>
      <point x="169" y="383" type="curve" smooth="yes"/>
      <point x="75" y="383"/>
      <point x="14" y="322"/>
      <point x="20" y="233" type="curve"/>
      <point x="135" y="233" type="line"/>
      <point x="134" y="248"/>
      <point x="136" y="277"/>
      <point x="161" y="277" type="curve" smooth="yes"/>
      <point x="179" y="277"/>
      <point x="190" y="266"/>
      <point x="190" y="247" type="curve" smooth="yes"/>
      <point x="190" y="241" type="line" smooth="yes"/>
      <point x="190" y="225"/>
      <point x="176" y="205"/>
      <point x="149" y="205" type="curve" smooth="yes"/>
      <point x="113" y="205" type="line"/>
      <point x="113" y="124" type="line"/>
      <point x="151" y="124" type="line" smooth="yes"/>
      <point x="168" y="124"/>
      <point x="193" y="119"/>
      <point x="193" y="86" type="curve" smooth="yes"/>
      <point x="193" y="77" type="line" smooth="yes"/>
      <point x="193" y="57"/>
      <point x="180" y="41"/>
      <point x="160" y="41" type="curve" smooth="yes"/>
      <point x="134" y="41"/>
      <point x="125" y="58"/>
      <point x="128" y="89" type="curve"/>
      <point x="14" y="89" type="line"/>
      <point x="6" y="-13"/>
      <point x="65" y="-65"/>
    </contour>
  </outline>
</glyph>
<glyph name="fourinferior" format="2">
  <advance width="347"/>
  <unicode hex="2084"/>
  <outline>
    <contour>
      <point x="168" y="-60" type="line"/>
      <point x="289" y="-60" type="line"/>
      <point x="289" y="30" type="line"/>
      <point x="335" y="30" type="line"/>
      <point x="335" y="132" type="line"/>
      <point x="289" y="132" type="line"/>
      <point x="289" y="237" type="line"/>
      <point x="196" y="237" type="line"/>
      <point x="176" y="132" type="line"/>
      <point x="149" y="132" type="line"/>
      <point x="149" y="137" type="line"/>
      <point x="235" y="377" type="line"/>
      <point x="113" y="377" type="line"/>
      <point x="12" y="103" type="line"/>
      <point x="12" y="30" type="line"/>
      <point x="168" y="30" type="line"/>
    </contour>
  </outline>
</glyph>
<glyph name="fiveinferior" format="2">
  <advance width="327"/>
  <unicode hex="2085"/>
  <outline>
    <contour>
      <point x="165" y="-65" type="curve" smooth="yes"/>
      <point x="264" y="-65"/>
      <point x="314" y="-6"/>
      <point x="314" y="91" type="curve" smooth="yes"/>
      <point x="314" y="184"/>
      <point x="270" y="237"/>
      <point x="196" y="237" type="curve" smooth="yes"/>
      <point x="169" y="237"/>
      <point x="142" y="224"/>
      <point x="134" y="207" type="curve"/>
      <point x="125" y="207" type="line"/>
      <point x="134" y="278" type="line"/>
      <point x="295" y="278" type="line"/>
      <point x="295" y="377" type="line"/>
      <point x="36" y="377" type="line"/>
      <point x="22" y="123" type="line"/>
      <point x="132" y="123" type="line"/>
      <point x="135" y="141"/>
      <point x="141" y="150"/>
      <point x="160" y="150" type="curve" smooth="yes"/>
      <point x="182" y="150"/>
      <point x="194" y="136"/>
      <point x="194" y="106" type="curve" smooth="yes"/>
      <point x="194" y="81" type="line" smooth="yes"/>
      <point x="194" y="50"/>
      <point x="180" y="41"/>
      <point x="162" y="41" type="curve" smooth="yes"/>
      <point x="135" y="41"/>
      <point x="126" y="58"/>
      <point x="130" y="93" type="curve"/>
      <point x="15" y="93" type="line"/>
      <point x="10" y="3"/>
      <point x="53" y="-65"/>
    </contour>
  </outline>
</glyph>
<glyph name="sixinferior" format="2">
  <advance width="336"/>
  <unicode hex="2086"/>
  <outline>
    <contour>
      <point x="158" y="-66" type="curve" smooth="yes"/>
      <point x="250" y="-66"/>
      <point x="317" y="-26"/>
      <point x="317" y="91" type="curve" smooth="yes"/>
      <point x="317" y="196"/>
      <point x="277" y="236"/>
      <point x="217" y="236" type="curve" smooth="yes"/>
      <point x="180" y="236"/>
      <point x="154" y="223"/>
      <point x="135" y="193" type="curve"/>
      <point x="130" y="193" type="line"/>
      <point x="133" y="214"/>
      <point x="134" y="234"/>
      <point x="134" y="254" type="curve" smooth="yes"/>
      <point x="134" y="265"/>
      <point x="148" y="285"/>
      <point x="173" y="285" type="curve" smooth="yes"/>
      <point x="195" y="285"/>
      <point x="206" y="275"/>
      <point x="207" y="261" type="curve"/>
      <point x="322" y="261" type="line"/>
      <point x="325" y="336"/>
      <point x="272" y="383"/>
      <point x="179" y="383" type="curve" smooth="yes"/>
      <point x="74" y="383"/>
      <point x="20" y="323"/>
      <point x="20" y="225" type="curve" smooth="yes"/>
      <point x="20" y="91" type="line" smooth="yes"/>
      <point x="20" y="-6"/>
      <point x="63" y="-66"/>
    </contour>
    <contour>
      <point x="166" y="41" type="curve" smooth="yes"/>
      <point x="148" y="41"/>
      <point x="134" y="43"/>
      <point x="134" y="79" type="curve" smooth="yes"/>
      <point x="134" y="133" type="line"/>
      <point x="140" y="147"/>
      <point x="151" y="150"/>
      <point x="167" y="150" type="curve" smooth="yes"/>
      <point x="191" y="150"/>
      <point x="196" y="133"/>
      <point x="196" y="110" type="curve" smooth="yes"/>
      <point x="196" y="80" type="line" smooth="yes"/>
      <point x="196" y="58"/>
      <point x="194" y="41"/>
    </contour>
  </outline>
</glyph>
<glyph name="seveninferior" format="2">
  <advance width="325"/>
  <unicode hex="2087"/>
  <outline>
    <contour>
      <point x="201" y="-60" type="line"/>
      <point x="312" y="275" type="line"/>
      <point x="312" y="377" type="line"/>
      <point x="16" y="377" type="line"/>
      <point x="16" y="201" type="line"/>
      <point x="124" y="201" type="line"/>
      <point x="124" y="279" type="line"/>
      <point x="190" y="279" type="line"/>
      <point x="190" y="267" type="line"/>
      <point x="74" y="-60" type="line"/>
    </contour>
  </outline>
</glyph>
<glyph name="eightinferior" format="2">
  <advance width="343"/>
  <unicode hex="2088"/>
  <outline>
    <contour>
      <point x="171" y="-65" type="curve" smooth="yes"/>
      <point x="275" y="-65"/>
      <point x="330" y="-11"/>
      <point x="330" y="52" type="curve" smooth="yes"/>
      <point x="330" y="113"/>
      <point x="293" y="148"/>
      <point x="254" y="161" type="curve"/>
      <point x="254" y="168" type="line"/>
      <point x="293" y="179"/>
      <point x="319" y="217"/>
      <point x="319" y="261" type="curve" smooth="yes"/>
      <point x="319" y="337"/>
      <point x="264" y="383"/>
      <point x="171" y="383" type="curve" smooth="yes"/>
      <point x="79" y="383"/>
      <point x="24" y="337"/>
      <point x="24" y="261" type="curve" smooth="yes"/>
      <point x="24" y="217"/>
      <point x="50" y="179"/>
      <point x="88" y="168" type="curve"/>
      <point x="88" y="161" type="line"/>
      <point x="49" y="148"/>
      <point x="13" y="113"/>
      <point x="13" y="52" type="curve" smooth="yes"/>
      <point x="13" y="-11"/>
      <point x="68" y="-65"/>
    </contour>
    <contour>
      <point x="171" y="41" type="curve" smooth="yes"/>
      <point x="146" y="41"/>
      <point x="133" y="56"/>
      <point x="133" y="77" type="curve" smooth="yes"/>
      <point x="133" y="86" type="line" smooth="yes"/>
      <point x="133" y="105"/>
      <point x="146" y="121"/>
      <point x="171" y="121" type="curve" smooth="yes"/>
      <point x="196" y="121"/>
      <point x="209" y="105"/>
      <point x="209" y="86" type="curve" smooth="yes"/>
      <point x="209" y="77" type="line" smooth="yes"/>
      <point x="209" y="56"/>
      <point x="196" y="41"/>
    </contour>
    <contour>
      <point x="171" y="206" type="curve" smooth="yes"/>
      <point x="148" y="206"/>
      <point x="135" y="219"/>
      <point x="135" y="238" type="curve" smooth="yes"/>
      <point x="135" y="246" type="line" smooth="yes"/>
      <point x="135" y="263"/>
      <point x="148" y="277"/>
      <point x="171" y="277" type="curve" smooth="yes"/>
      <point x="195" y="277"/>
      <point x="206" y="263"/>
      <point x="206" y="246" type="curve" smooth="yes"/>
      <point x="206" y="238" type="line" smooth="yes"/>
      <point x="206" y="219"/>
      <point x="195" y="206"/>
    </contour>
  </outline>
</glyph>
<glyph name="sheqel" format="2">
  <advance width="719"/>
  <unicode hex="20AA"/>
  <outline>
    <contour>
      <point x="226" y="0" type="line"/>
      <point x="548" y="0" type="line" smooth="yes"/>
      <point x="650" y="0"/>
      <point x="685" y="57"/>
      <point x="685" y="134" type="curve" smooth="yes"/>
      <point x="685" y="729" type="line"/>
      <point x="520" y="729" type="line"/>
      <point x="520" y="156" type="line"/>
      <point x="349" y="156" type="line"/>
      <point x="349" y="550" type="line"/>
      <point x="226" y="550" type="line"/>
    </contour>
    <contour>
      <point x="36" y="0" type="line"/>
      <point x="202" y="0" type="line"/>
      <point x="202" y="573" type="line"/>
      <point x="374" y="573" type="line"/>
      <point x="374" y="179" type="line"/>
      <point x="495" y="179" type="line"/>
      <point x="495" y="595" type="line" smooth="yes"/>
      <point x="495" y="672"/>
      <point x="460" y="729"/>
      <point x="357" y="729" type="curve" smooth="yes"/>
      <point x="36" y="729" type="line"/>
    </contour>
  </outline>
</glyph>
<glyph name="rupeeIndian" format="2">
  <advance width="478"/>
  <unicode hex="20B9"/>
  <outline>
    <contour>
      <point x="203" y="0" type="line"/>
      <point x="407" y="0" type="line"/>
      <point x="202" y="337" type="line"/>
      <point x="181" y="276" type="line"/>
      <point x="198" y="276" type="line" smooth="yes"/>
      <point x="320" y="276"/>
      <point x="401" y="356"/>
      <point x="401" y="477" type="curve" smooth="yes"/>
      <point x="401" y="540"/>
      <point x="384" y="592"/>
      <point x="344" y="628" type="curve"/>
      <point x="344" y="608" type="line"/>
      <point x="455" y="608" type="line"/>
      <point x="455" y="730" type="line"/>
      <point x="27" y="730" type="line"/>
      <point x="27" y="584" type="line"/>
      <point x="130" y="584" type="line" smooth="yes"/>
      <point x="193" y="584"/>
      <point x="214" y="564"/>
      <point x="214" y="522" type="curve" smooth="yes"/>
      <point x="214" y="470" type="line" smooth="yes"/>
      <point x="214" y="428"/>
      <point x="197" y="402"/>
      <point x="130" y="402" type="curve" smooth="yes"/>
      <point x="27" y="402" type="line"/>
      <point x="27" y="298" type="line"/>
    </contour>
    <contour>
      <point x="27" y="442" type="line"/>
      <point x="311" y="442" type="line"/>
      <point x="311" y="544" type="line"/>
      <point x="27" y="544" type="line"/>
    </contour>
    <contour>
      <point x="311" y="424" type="line"/>
      <point x="455" y="424" type="line"/>
      <point x="455" y="562" type="line"/>
      <point x="311" y="562" type="line"/>
    </contour>
  </outline>
</glyph>
<glyph name="liraTurkish" format="2">
  <advance width="593"/>
  <unicode hex="20BA"/>
  <outline>
    <contour>
      <point x="72" y="0" type="line"/>
      <point x="221" y="0" type="line" smooth="yes"/>
      <point x="436" y="0"/>
      <point x="577" y="126"/>
      <point x="575" y="340" type="curve"/>
      <point x="384" y="340" type="line"/>
      <point x="385" y="243"/>
      <point x="329" y="178"/>
      <point x="258" y="176" type="curve"/>
      <point x="258" y="729" type="line"/>
      <point x="72" y="729" type="line"/>
    </contour>
    <contour>
      <point x="24" y="197" type="line"/>
      <point x="347" y="342" type="line"/>
      <point x="347" y="478" type="line"/>
      <point x="24" y="333" type="line"/>
    </contour>
    <contour>
      <point x="24" y="395" type="line"/>
      <point x="347" y="541" type="line"/>
      <point x="347" y="676" type="line"/>
      <point x="24" y="531" type="line"/>
    </contour>
  </outline>
</glyph>
<glyph name="literSign" format="2">
  <advance width="481"/>
  <unicode hex="2113"/>
  <outline>
    <contour>
      <point x="260" y="-8" type="curve" smooth="yes"/>
      <point x="353" y="-8"/>
      <point x="421" y="48"/>
      <point x="451" y="132" type="curve"/>
      <point x="327" y="184" type="line"/>
      <point x="313" y="141"/>
      <point x="294" y="126"/>
      <point x="272" y="126" type="curve" smooth="yes"/>
      <point x="230" y="126"/>
      <point x="210" y="176"/>
      <point x="210" y="374" type="curve" smooth="yes"/>
      <point x="210" y="539"/>
      <point x="231" y="585"/>
      <point x="264" y="585" type="curve" smooth="yes"/>
      <point x="280" y="585"/>
      <point x="289" y="569"/>
      <point x="289" y="543" type="curve" smooth="yes"/>
      <point x="289" y="454"/>
      <point x="233" y="282"/>
      <point x="20" y="236" type="curve"/>
      <point x="20" y="121" type="line"/>
      <point x="290" y="169"/>
      <point x="436" y="369"/>
      <point x="436" y="546" type="curve" smooth="yes"/>
      <point x="436" y="665"/>
      <point x="377" y="739"/>
      <point x="276" y="739" type="curve" smooth="yes"/>
      <point x="130" y="739"/>
      <point x="54" y="611"/>
      <point x="54" y="386" type="curve" smooth="yes"/>
      <point x="54" y="124"/>
      <point x="113" y="-8"/>
    </contour>
  </outline>
</glyph>
<glyph name="numero" format="2">
  <advance width="868"/>
  <unicode hex="2116"/>
  <outline>
    <contour>
      <point x="33" y="0" type="line"/>
      <point x="199" y="0" type="line"/>
      <point x="199" y="342" type="line"/>
      <point x="204" y="342" type="line"/>
      <point x="213" y="296" type="line"/>
      <point x="277" y="0" type="line"/>
      <point x="482" y="0" type="line"/>
      <point x="482" y="729" type="line"/>
      <point x="315" y="729" type="line"/>
      <point x="315" y="376" type="line"/>
      <point x="310" y="376" type="line"/>
      <point x="297" y="434" type="line"/>
      <point x="234" y="729" type="line"/>
      <point x="33" y="729" type="line"/>
    </contour>
    <contour>
      <point x="548" y="145" type="line"/>
      <point x="817" y="145" type="line"/>
      <point x="817" y="261" type="line"/>
      <point x="548" y="261" type="line"/>
    </contour>
    <contour>
      <point x="682" y="292" type="curve" smooth="yes"/>
      <point x="778" y="292"/>
      <point x="848" y="334"/>
      <point x="848" y="515" type="curve" smooth="yes"/>
      <point x="848" y="695"/>
      <point x="778" y="739"/>
      <point x="682" y="739" type="curve" smooth="yes"/>
      <point x="587" y="739"/>
      <point x="517" y="697"/>
      <point x="517" y="515" type="curve" smooth="yes"/>
      <point x="517" y="333"/>
      <point x="587" y="292"/>
    </contour>
    <contour>
      <point x="682" y="404" type="curve" smooth="yes"/>
      <point x="661" y="404"/>
      <point x="657" y="421"/>
      <point x="657" y="515" type="curve" smooth="yes"/>
      <point x="657" y="609"/>
      <point x="661" y="625"/>
      <point x="682" y="625" type="curve" smooth="yes"/>
      <point x="702" y="625"/>
      <point x="706" y="609"/>
      <point x="706" y="515" type="curve" smooth="yes"/>
      <point x="706" y="421"/>
      <point x="702" y="404"/>
    </contour>
  </outline>
</glyph>
<glyph name="trademark" format="2">
  <advance width="617"/>
  <unicode hex="2122"/>
  <outline>
    <contour>
      <point x="255" y="414" type="line"/>
      <point x="352" y="414" type="line"/>
      <point x="352" y="518" type="line"/>
      <point x="349" y="604" type="line"/>
      <point x="351" y="604" type="line"/>
      <point x="386" y="414" type="line"/>
      <point x="451" y="414" type="line"/>
      <point x="487" y="604" type="line"/>
      <point x="490" y="604" type="line"/>
      <point x="487" y="518" type="line"/>
      <point x="488" y="414" type="line"/>
      <point x="583" y="414" type="line"/>
      <point x="583" y="729" type="line"/>
      <point x="444" y="729" type="line"/>
      <point x="422" y="566" type="line"/>
      <point x="418" y="566" type="line"/>
      <point x="394" y="729" type="line"/>
      <point x="255" y="729" type="line"/>
    </contour>
    <contour>
      <point x="70" y="414" type="line"/>
      <point x="175" y="414" type="line"/>
      <point x="175" y="639" type="line"/>
      <point x="225" y="639" type="line"/>
      <point x="225" y="729" type="line"/>
      <point x="19" y="729" type="line"/>
      <point x="19" y="639" type="line"/>
      <point x="70" y="639" type="line"/>
    </contour>
  </outline>
</glyph>
<glyph name="arrowup" format="2">
  <advance width="453"/>
  <unicode hex="2191"/>
  <outline>
    <contour>
      <point x="151" y="98" type="line"/>
      <point x="302" y="98" type="line"/>
      <point x="302" y="401" type="line"/>
      <point x="417" y="313" type="line"/>
      <point x="417" y="482" type="line"/>
      <point x="226" y="631" type="line"/>
      <point x="36" y="482" type="line"/>
      <point x="36" y="313" type="line"/>
      <point x="151" y="401" type="line"/>
    </contour>
  </outline>
</glyph>
<glyph name="leftRightArrow" format="2">
  <advance width="743"/>
  <unicode hex="2194"/>
  <outline>
    <contour>
      <point x="179" y="174" type="line"/>
      <point x="348" y="174" type="line"/>
      <point x="260" y="289" type="line"/>
      <point x="483" y="289" type="line"/>
      <point x="395" y="174" type="line"/>
      <point x="564" y="174" type="line"/>
      <point x="713" y="365" type="line"/>
      <point x="564" y="555" type="line"/>
      <point x="395" y="555" type="line"/>
      <point x="483" y="440" type="line"/>
      <point x="260" y="440" type="line"/>
      <point x="348" y="555" type="line"/>
      <point x="179" y="555" type="line"/>
      <point x="30" y="365" type="line"/>
    </contour>
  </outline>
</glyph>
<glyph name="emptyset" format="2">
  <advance width="741"/>
  <unicode hex="2205"/>
  <outline>
    <contour>
      <point x="614" y="560" type="line"/>
      <point x="91" y="239" type="line"/>
      <point x="111" y="170" type="line"/>
      <point x="650" y="499" type="line"/>
    </contour>
    <contour>
      <point x="371" y="0" type="curve" smooth="yes"/>
      <point x="575" y="0"/>
      <point x="729" y="149"/>
      <point x="729" y="366" type="curve" smooth="yes"/>
      <point x="729" y="579"/>
      <point x="575" y="729"/>
      <point x="371" y="729" type="curve" smooth="yes"/>
      <point x="166" y="729"/>
      <point x="12" y="580"/>
      <point x="12" y="366" type="curve" smooth="yes"/>
      <point x="12" y="149"/>
      <point x="166" y="0"/>
    </contour>
    <contour>
      <point x="371" y="73" type="curve" smooth="yes"/>
      <point x="214" y="73"/>
      <point x="90" y="194"/>
      <point x="90" y="366" type="curve" smooth="yes"/>
      <point x="90" y="537"/>
      <point x="214" y="656"/>
      <point x="371" y="656" type="curve" smooth="yes"/>
      <point x="530" y="656"/>
      <point x="652" y="536"/>
      <point x="652" y="366" type="curve" smooth="yes"/>
      <point x="652" y="194"/>
      <point x="530" y="73"/>
    </contour>
  </outline>
</glyph>
<glyph name="product" format="2">
  <advance width="470"/>
  <unicode hex="220F"/>
  <outline>
    <contour>
      <point x="28" y="-91" type="line"/>
      <point x="215" y="-91" type="line"/>
      <point x="215" y="560" type="line"/>
      <point x="253" y="560" type="line"/>
      <point x="253" y="-91" type="line"/>
      <point x="442" y="-91" type="line"/>
      <point x="442" y="729" type="line"/>
      <point x="28" y="729" type="line"/>
    </contour>
  </outline>
</glyph>
<glyph name="summation" format="2">
  <advance width="404"/>
  <unicode hex="2211"/>
  <outline>
    <contour>
      <point x="16" y="-91" type="line"/>
      <point x="389" y="-91" type="line"/>
      <point x="389" y="62" type="line"/>
      <point x="219" y="62" type="line"/>
      <point x="219" y="68" type="line"/>
      <point x="358" y="319" type="line"/>
      <point x="219" y="570" type="line"/>
      <point x="219" y="576" type="line"/>
      <point x="389" y="576" type="line"/>
      <point x="389" y="729" type="line"/>
      <point x="16" y="729" type="line"/>
      <point x="16" y="555" type="line"/>
      <point x="150" y="330" type="line"/>
      <point x="150" y="308" type="line"/>
      <point x="16" y="83" type="line"/>
    </contour>
  </outline>
</glyph>
<glyph name="radical" format="2">
  <advance width="536"/>
  <unicode hex="221A"/>
  <outline>
    <contour>
      <point x="170" y="-91" type="line"/>
      <point x="375" y="-91" type="line"/>
      <point x="528" y="729" type="line"/>
      <point x="345" y="729" type="line"/>
      <point x="242" y="105" type="line"/>
      <point x="234" y="105" type="line"/>
      <point x="168" y="391" type="line"/>
      <point x="11" y="391" type="line"/>
      <point x="11" y="222" type="line"/>
      <point x="88" y="222" type="line"/>
    </contour>
  </outline>
</glyph>
<glyph name="infinity" format="2">
  <advance width="896"/>
  <unicode hex="221E"/>
  <outline>
    <contour>
      <point x="249" y="120" type="curve" smooth="yes"/>
      <point x="335" y="120"/>
      <point x="406" y="163"/>
      <point x="447" y="230" type="curve"/>
      <point x="489" y="163"/>
      <point x="558" y="120"/>
      <point x="647" y="120" type="curve" smooth="yes"/>
      <point x="775" y="120"/>
      <point x="883" y="214"/>
      <point x="883" y="362" type="curve" smooth="yes"/>
      <point x="883" y="506"/>
      <point x="777" y="610"/>
      <point x="646" y="610" type="curve" smooth="yes"/>
      <point x="557" y="610"/>
      <point x="488" y="558"/>
      <point x="447" y="494" type="curve"/>
      <point x="409" y="558"/>
      <point x="337" y="610"/>
      <point x="250" y="610" type="curve" smooth="yes"/>
      <point x="118" y="610"/>
      <point x="13" y="505"/>
      <point x="13" y="362" type="curve" smooth="yes"/>
      <point x="13" y="214"/>
      <point x="119" y="120"/>
    </contour>
    <contour>
      <point x="261" y="300" type="curve" smooth="yes"/>
      <point x="221" y="300"/>
      <point x="198" y="332"/>
      <point x="198" y="366" type="curve" smooth="yes"/>
      <point x="198" y="400"/>
      <point x="222" y="430"/>
      <point x="262" y="430" type="curve" smooth="yes"/>
      <point x="306" y="430"/>
      <point x="341" y="394"/>
      <point x="360" y="366" type="curve"/>
      <point x="341" y="338"/>
      <point x="306" y="300"/>
    </contour>
    <contour>
      <point x="632" y="300" type="curve" smooth="yes"/>
      <point x="590" y="300"/>
      <point x="557" y="335"/>
      <point x="537" y="366" type="curve"/>
      <point x="555" y="394"/>
      <point x="590" y="430"/>
      <point x="632" y="430" type="curve" smooth="yes"/>
      <point x="672" y="430"/>
      <point x="697" y="401"/>
      <point x="697" y="366" type="curve" smooth="yes"/>
      <point x="697" y="331"/>
      <point x="672" y="300"/>
    </contour>
  </outline>
</glyph>
<glyph name="integral" format="2">
  <advance width="379"/>
  <unicode hex="222B"/>
  <outline>
    <contour>
      <point x="10" y="-91" type="line"/>
      <point x="117" y="-91" type="line" smooth="yes"/>
      <point x="215" y="-91"/>
      <point x="282" y="-32"/>
      <point x="282" y="72" type="curve" smooth="yes"/>
      <point x="282" y="573" type="line"/>
      <point x="369" y="573" type="line"/>
      <point x="369" y="729" type="line"/>
      <point x="251" y="729" type="line" smooth="yes"/>
      <point x="153" y="729"/>
      <point x="87" y="671"/>
      <point x="87" y="566" type="curve" smooth="yes"/>
      <point x="87" y="64" type="line"/>
      <point x="10" y="64" type="line"/>
    </contour>
  </outline>
</glyph>
<glyph name="approxequal" format="2">
  <advance width="500"/>
  <unicode hex="2248"/>
  <outline>
    <contour>
      <point x="36" y="379" type="curve"/>
      <point x="119" y="379" type="line"/>
      <point x="116" y="403"/>
      <point x="128" y="438"/>
      <point x="162" y="438" type="curve" smooth="yes"/>
      <point x="213" y="438"/>
      <point x="251" y="373"/>
      <point x="340" y="373" type="curve" smooth="yes"/>
      <point x="403" y="373"/>
      <point x="475" y="421"/>
      <point x="465" y="574" type="curve"/>
      <point x="384" y="574" type="line"/>
      <point x="383" y="542"/>
      <point x="366" y="513"/>
      <point x="329" y="513" type="curve" smooth="yes"/>
      <point x="269" y="513"/>
      <point x="235" y="577"/>
      <point x="158" y="577" type="curve" smooth="yes"/>
      <point x="95" y="577"/>
      <point x="28" y="527"/>
    </contour>
    <contour>
      <point x="36" y="160" type="curve"/>
      <point x="119" y="160" type="line"/>
      <point x="116" y="182"/>
      <point x="127" y="219"/>
      <point x="162" y="219" type="curve" smooth="yes"/>
      <point x="213" y="219"/>
      <point x="251" y="154"/>
      <point x="340" y="154" type="curve" smooth="yes"/>
      <point x="403" y="154"/>
      <point x="475" y="202"/>
      <point x="465" y="354" type="curve"/>
      <point x="384" y="354" type="line"/>
      <point x="383" y="323"/>
      <point x="366" y="294"/>
      <point x="329" y="294" type="curve" smooth="yes"/>
      <point x="269" y="294"/>
      <point x="235" y="358"/>
      <point x="158" y="358" type="curve" smooth="yes"/>
      <point x="95" y="358"/>
      <point x="28" y="309"/>
    </contour>
  </outline>
</glyph>
<glyph name="notequal" format="2">
  <advance width="500"/>
  <unicode hex="2260"/>
  <outline>
    <contour>
      <point x="79" y="93" type="line"/>
      <point x="165" y="93" type="line"/>
      <point x="421" y="630" type="line"/>
      <point x="335" y="630" type="line"/>
    </contour>
    <contour>
      <point x="29" y="184" type="line"/>
      <point x="471" y="184" type="line"/>
      <point x="471" y="326" type="line"/>
      <point x="29" y="326" type="line"/>
    </contour>
    <contour>
      <point x="29" y="404" type="line"/>
      <point x="471" y="404" type="line"/>
      <point x="471" y="546" type="line"/>
      <point x="29" y="546" type="line"/>
    </contour>
  </outline>
</glyph>
<glyph name="lessequal" format="2">
  <advance width="500"/>
  <unicode hex="2264"/>
  <outline>
    <contour>
      <point x="459" y="158" type="line"/>
      <point x="459" y="354" type="line"/>
      <point x="237" y="434" type="line"/>
      <point x="237" y="448" type="line"/>
      <point x="459" y="531" type="line"/>
      <point x="459" y="728" type="line"/>
      <point x="36" y="551" type="line"/>
      <point x="36" y="331" type="line"/>
    </contour>
    <contour>
      <point x="36" y="0" type="line"/>
      <point x="459" y="0" type="line"/>
      <point x="459" y="146" type="line"/>
      <point x="36" y="146" type="line"/>
    </contour>
  </outline>
</glyph>
<glyph name="greaterequal" format="2">
  <advance width="500"/>
  <unicode hex="2265"/>
  <outline>
    <contour>
      <point x="46" y="162" type="line"/>
      <point x="469" y="312" type="line"/>
      <point x="469" y="533" type="line"/>
      <point x="46" y="688" type="line"/>
      <point x="46" y="489" type="line"/>
      <point x="268" y="430" type="line"/>
      <point x="268" y="416" type="line"/>
      <point x="46" y="360" type="line"/>
    </contour>
    <contour>
      <point x="46" y="0" type="line"/>
      <point x="469" y="0" type="line"/>
      <point x="469" y="146" type="line"/>
      <point x="46" y="146" type="line"/>
    </contour>
  </outline>
</glyph>
<glyph name="whiteCircle" format="2">
  <advance width="614"/>
  <unicode hex="25CB"/>
  <anchor x="307" y="365" name="center"/>
  <outline>
    <contour>
      <point x="308" y="-30" type="curve" smooth="yes"/>
      <point x="477" y="-30"/>
      <point x="589" y="67"/>
      <point x="589" y="248" type="curve" smooth="yes"/>
      <point x="589" y="326"/>
      <point x="589" y="403"/>
      <point x="589" y="481" type="curve" smooth="yes"/>
      <point x="589" y="649"/>
      <point x="492" y="759"/>
      <point x="308" y="759" type="curve" smooth="yes"/>
      <point x="138" y="759"/>
      <point x="25" y="662"/>
      <point x="25" y="481" type="curve" smooth="yes"/>
      <point x="25" y="403"/>
      <point x="25" y="326"/>
      <point x="25" y="248" type="curve" smooth="yes"/>
      <point x="25" y="81"/>
      <point x="124" y="-30"/>
    </contour>
    <contour>
      <point x="308" y="38" type="curve" smooth="yes"/>
      <point x="182" y="38"/>
      <point x="99" y="100"/>
      <point x="99" y="248" type="curve" smooth="yes"/>
      <point x="99" y="326"/>
      <point x="99" y="403"/>
      <point x="99" y="481" type="curve" smooth="yes"/>
      <point x="99" y="608"/>
      <point x="161" y="691"/>
      <point x="308" y="691" type="curve" smooth="yes"/>
      <point x="433" y="691"/>
      <point x="516" y="629"/>
      <point x="516" y="481" type="curve" smooth="yes"/>
      <point x="516" y="403"/>
      <point x="516" y="326"/>
      <point x="516" y="248" type="curve" smooth="yes"/>
      <point x="516" y="121"/>
      <point x="454" y="38"/>
    </contour>
  </outline>
</glyph>
<glyph name="blackCircle" format="2">
  <advance width="614"/>
  <unicode hex="25CF"/>
  <anchor x="307" y="365" name="center"/>
  <outline>
    <contour>
      <point x="308" y="-30" type="curve" smooth="yes"/>
      <point x="124" y="-30"/>
      <point x="25" y="81"/>
      <point x="25" y="248" type="curve" smooth="yes"/>
      <point x="25" y="326"/>
      <point x="25" y="403"/>
      <point x="25" y="481" type="curve" smooth="yes"/>
      <point x="25" y="662"/>
      <point x="138" y="759"/>
      <point x="308" y="759" type="curve" smooth="yes"/>
      <point x="492" y="759"/>
      <point x="589" y="649"/>
      <point x="589" y="481" type="curve" smooth="yes"/>
      <point x="589" y="403"/>
      <point x="589" y="326"/>
      <point x="589" y="248" type="curve" smooth="yes"/>
      <point x="589" y="67"/>
      <point x="477" y="-30"/>
    </contour>
  </outline>
</glyph>
<glyph name="whiteFrowningFace" format="2">
  <advance width="781"/>
  <unicode hex="2639"/>
  <outline>
    <contour>
      <point x="391" y="-10" type="curve" smooth="yes"/>
      <point x="609" y="-10"/>
      <point x="770" y="143"/>
      <point x="770" y="367" type="curve" smooth="yes"/>
      <point x="770" y="585"/>
      <point x="609" y="739"/>
      <point x="391" y="739" type="curve" smooth="yes"/>
      <point x="173" y="739"/>
      <point x="11" y="585"/>
      <point x="11" y="367" type="curve" smooth="yes"/>
      <point x="11" y="143"/>
      <point x="173" y="-10"/>
    </contour>
    <contour>
      <point x="237" y="203" type="line"/>
      <point x="265" y="239"/>
      <point x="323" y="264"/>
      <point x="391" y="264" type="curve" smooth="yes"/>
      <point x="459" y="264"/>
      <point x="517" y="239"/>
      <point x="545" y="203" type="curve"/>
      <point x="600" y="223" type="line"/>
      <point x="571" y="286"/>
      <point x="492" y="333"/>
      <point x="391" y="333" type="curve" smooth="yes"/>
      <point x="290" y="333"/>
      <point x="211" y="286"/>
      <point x="182" y="223" type="curve"/>
    </contour>
    <contour>
      <point x="391" y="65" type="curve" smooth="yes"/>
      <point x="211" y="65"/>
      <point x="91" y="187"/>
      <point x="91" y="367" type="curve" smooth="yes"/>
      <point x="91" y="544"/>
      <point x="211" y="664"/>
      <point x="391" y="664" type="curve" smooth="yes"/>
      <point x="570" y="664"/>
      <point x="691" y="544"/>
      <point x="691" y="367" type="curve" smooth="yes"/>
      <point x="691" y="187"/>
      <point x="570" y="65"/>
    </contour>
    <contour>
      <point x="312" y="391" type="curve" smooth="yes"/>
      <point x="337" y="391"/>
      <point x="353" y="407"/>
      <point x="353" y="436" type="curve" smooth="yes"/>
      <point x="353" y="481" type="line" smooth="yes"/>
      <point x="353" y="510"/>
      <point x="337" y="526"/>
      <point x="312" y="526" type="curve" smooth="yes"/>
      <point x="288" y="526"/>
      <point x="272" y="510"/>
      <point x="272" y="481" type="curve" smooth="yes"/>
      <point x="272" y="436" type="line" smooth="yes"/>
      <point x="272" y="407"/>
      <point x="288" y="391"/>
    </contour>
    <contour>
      <point x="468" y="391" type="curve" smooth="yes"/>
      <point x="493" y="391"/>
      <point x="509" y="407"/>
      <point x="509" y="436" type="curve" smooth="yes"/>
      <point x="509" y="481" type="line" smooth="yes"/>
      <point x="509" y="510"/>
      <point x="493" y="526"/>
      <point x="468" y="526" type="curve" smooth="yes"/>
      <point x="444" y="526"/>
      <point x="428" y="510"/>
      <point x="428" y="481" type="curve" smooth="yes"/>
      <point x="428" y="436" type="line" smooth="yes"/>
      <point x="428" y="407"/>
      <point x="444" y="391"/>
    </contour>
  </outline>
</glyph>
<glyph name="whiteSmilingFace" format="2">
  <advance width="781"/>
  <unicode hex="263A"/>
  <outline>
    <contour>
      <point x="391" y="-10" type="curve" smooth="yes"/>
      <point x="609" y="-10"/>
      <point x="770" y="143"/>
      <point x="770" y="367" type="curve" smooth="yes"/>
      <point x="770" y="585"/>
      <point x="609" y="739"/>
      <point x="391" y="739" type="curve" smooth="yes"/>
      <point x="173" y="739"/>
      <point x="11" y="585"/>
      <point x="11" y="367" type="curve" smooth="yes"/>
      <point x="11" y="143"/>
      <point x="173" y="-10"/>
    </contour>
    <contour>
      <point x="391" y="125" type="curve" smooth="yes"/>
      <point x="507" y="125"/>
      <point x="600" y="195"/>
      <point x="619" y="296" type="curve"/>
      <point x="643" y="296" type="line"/>
      <point x="643" y="333" type="line"/>
      <point x="517" y="333" type="line"/>
      <point x="517" y="296" type="line"/>
      <point x="549" y="296" type="line"/>
      <point x="529" y="234"/>
      <point x="470" y="194"/>
      <point x="391" y="194" type="curve" smooth="yes"/>
      <point x="312" y="194"/>
      <point x="253" y="234"/>
      <point x="234" y="296" type="curve"/>
      <point x="266" y="296" type="line"/>
      <point x="266" y="333" type="line"/>
      <point x="138" y="333" type="line"/>
      <point x="138" y="296" type="line"/>
      <point x="163" y="296" type="line"/>
      <point x="182" y="195"/>
      <point x="275" y="125"/>
    </contour>
    <contour>
      <point x="391" y="65" type="curve" smooth="yes"/>
      <point x="211" y="65"/>
      <point x="91" y="187"/>
      <point x="91" y="367" type="curve" smooth="yes"/>
      <point x="91" y="544"/>
      <point x="211" y="664"/>
      <point x="391" y="664" type="curve" smooth="yes"/>
      <point x="570" y="664"/>
      <point x="691" y="544"/>
      <point x="691" y="367" type="curve" smooth="yes"/>
      <point x="691" y="187"/>
      <point x="570" y="65"/>
    </contour>
    <contour>
      <point x="312" y="391" type="curve" smooth="yes"/>
      <point x="337" y="391"/>
      <point x="353" y="407"/>
      <point x="353" y="436" type="curve" smooth="yes"/>
      <point x="353" y="481" type="line" smooth="yes"/>
      <point x="353" y="510"/>
      <point x="337" y="526"/>
      <point x="312" y="526" type="curve" smooth="yes"/>
      <point x="288" y="526"/>
      <point x="272" y="510"/>
      <point x="272" y="481" type="curve" smooth="yes"/>
      <point x="272" y="436" type="line" smooth="yes"/>
      <point x="272" y="407"/>
      <point x="288" y="391"/>
    </contour>
    <contour>
      <point x="468" y="391" type="curve" smooth="yes"/>
      <point x="493" y="391"/>
      <point x="509" y="407"/>
      <point x="509" y="436" type="curve" smooth="yes"/>
      <point x="509" y="481" type="line" smooth="yes"/>
      <point x="509" y="510"/>
      <point x="493" y="526"/>
      <point x="468" y="526" type="curve" smooth="yes"/>
      <point x="444" y="526"/>
      <point x="428" y="510"/>
      <point x="428" y="481" type="curve" smooth="yes"/>
      <point x="428" y="436" type="line" smooth="yes"/>
      <point x="428" y="407"/>
      <point x="444" y="391"/>
    </contour>
  </outline>
</glyph>
<glyph name="checkmark" format="2">
  <advance width="814"/>
  <unicode hex="2713"/>
  <outline>
    <contour>
      <point x="283" y="64" type="line"/>
      <point x="779" y="531" type="line"/>
      <point x="668" y="661" type="line"/>
      <point x="296" y="305" type="line"/>
      <point x="156" y="466" type="line"/>
      <point x="35" y="354" type="line"/>
    </contour>
  </outline>
</glyph>
<glyph name="fi" format="2">
  <advance width="510"/>
  <unicode hex="FB01"/>
  <anchor x="255" y="0" name="caret_1"/>
  <outline>
    <contour>
      <point x="65" y="0" type="line"/>
      <point x="241" y="0" type="line"/>
      <point x="241" y="407" type="line"/>
      <point x="306" y="407" type="line"/>
      <point x="306" y="0" type="line"/>
      <point x="482" y="0" type="line"/>
      <point x="482" y="546" type="line"/>
      <point x="241" y="546" type="line"/>
      <point x="241" y="593" type="line"/>
      <point x="482" y="593" type="line"/>
      <point x="482" y="729" type="line"/>
      <point x="180" y="729" type="line" smooth="yes"/>
      <point x="110" y="729"/>
      <point x="65" y="684"/>
      <point x="65" y="614" type="curve" smooth="yes"/>
      <point x="65" y="546" type="line"/>
      <point x="12" y="546" type="line"/>
      <point x="12" y="407" type="line"/>
      <point x="65" y="407" type="line"/>
    </contour>
  </outline>
</glyph>
<glyph name="_AE.E" format="2">
  <advance width="371"/>
  <anchor x="40" y="0" name="#entry"/>
  <outline>
    <contour>
      <point x="73" y="581" type="line"/>
      <point x="345" y="581" type="line"/>
      <point x="345" y="729" type="line"/>
      <point x="73" y="729" type="line"/>
    </contour>
    <contour>
      <point x="40" y="0" type="line"/>
      <point x="352" y="0" type="line"/>
      <point x="352" y="149" type="line"/>
      <point x="40" y="149" type="line"/>
    </contour>
    <contour>
      <point x="142" y="298" type="line"/>
      <point x="291" y="298" type="line"/>
      <point x="291" y="444" type="line"/>
      <point x="142" y="444" type="line"/>
    </contour>
  </outline>
</glyph>
<glyph name="_Euro.bars" format="2">
  <advance width="379"/>
  <anchor x="303" y="0" name="_bottom"/>
  <outline>
    <contour>
      <point x="339" y="247" type="line"/>
      <point x="339" y="350" type="line"/>
      <point x="171" y="341" type="line"/>
      <point x="171" y="256" type="line"/>
    </contour>
    <contour>
      <point x="40" y="247" type="line"/>
      <point x="171" y="256" type="line"/>
      <point x="171" y="341" type="line"/>
      <point x="40" y="350" type="line"/>
    </contour>
    <contour>
      <point x="40" y="373" type="line"/>
      <point x="171" y="382" type="line"/>
      <point x="171" y="464" type="line"/>
      <point x="40" y="473" type="line"/>
    </contour>
    <contour>
      <point x="339" y="373" type="line"/>
      <point x="339" y="473" type="line"/>
      <point x="171" y="464" type="line"/>
      <point x="171" y="382" type="line"/>
    </contour>
  </outline>
</glyph>
<glyph name="_OE.O" format="2">
  <advance width="336"/>
  <anchor x="296" y="0" name="#exit"/>
  <outline>
    <contour>
      <point x="238" y="0" type="curve" smooth="yes"/>
      <point x="296" y="0" type="line"/>
      <point x="296" y="149" type="line"/>
      <point x="261" y="149" type="line" smooth="yes"/>
      <point x="224" y="149"/>
      <point x="201" y="167"/>
      <point x="201" y="236" type="curve" smooth="yes"/>
      <point x="201" y="493" type="line" smooth="yes"/>
      <point x="201" y="563"/>
      <point x="224" y="581"/>
      <point x="261" y="581" type="curve" smooth="yes"/>
      <point x="296" y="581" type="line"/>
      <point x="296" y="729" type="line"/>
      <point x="238" y="729" type="line" smooth="yes"/>
      <point x="76" y="729"/>
      <point x="24" y="634"/>
      <point x="24" y="474" type="curve" smooth="yes"/>
      <point x="24" y="255" type="line" smooth="yes"/>
      <point x="24" y="95"/>
      <point x="76" y="0"/>
    </contour>
  </outline>
</glyph>
<glyph name="_Stem.Uppercase" format="2">
  <advance width="237"/>
  <outline>
    <contour>
      <point x="29" y="0" type="line"/>
      <point x="208" y="0" type="line"/>
      <point x="208" y="729" type="line"/>
      <point x="29" y="729" type="line"/>
    </contour>
  </outline>
</glyph>
<glyph name="_bitcoin.bars" format="2">
  <advance width="337"/>
  <anchor x="200" y="0" name="_bottom"/>
  <outline>
    <contour>
      <point x="190" y="688" type="line"/>
      <point x="287" y="688" type="line"/>
      <point x="297" y="850" type="line"/>
      <point x="180" y="850" type="line"/>
    </contour>
    <contour>
      <point x="40" y="-121" type="line"/>
      <point x="158" y="-121" type="line"/>
      <point x="148" y="41" type="line"/>
      <point x="50" y="41" type="line"/>
    </contour>
    <contour>
      <point x="180" y="-121" type="line"/>
      <point x="297" y="-121" type="line"/>
      <point x="287" y="41" type="line"/>
      <point x="190" y="41" type="line"/>
    </contour>
    <contour>
      <point x="50" y="688" type="line"/>
      <point x="148" y="688" type="line"/>
      <point x="158" y="850" type="line"/>
      <point x="40" y="850" type="line"/>
    </contour>
  </outline>
</glyph>
<glyph name="_copyright.C" format="2">
  <advance width="444"/>
  <anchor x="224" y="365" name="_center"/>
  <outline>
    <contour>
      <point x="226" y="70" type="curve" smooth="yes"/>
      <point x="344" y="70"/>
      <point x="407" y="123"/>
      <point x="404" y="277" type="curve"/>
      <point x="268" y="277" type="line"/>
      <point x="270" y="210"/>
      <point x="260" y="184"/>
      <point x="224" y="184" type="curve" smooth="yes"/>
      <point x="195" y="184"/>
      <point x="180" y="196"/>
      <point x="180" y="238" type="curve" smooth="yes"/>
      <point x="180" y="491" type="line" smooth="yes"/>
      <point x="180" y="534"/>
      <point x="197" y="545"/>
      <point x="224" y="545" type="curve" smooth="yes"/>
      <point x="260" y="545"/>
      <point x="269" y="519"/>
      <point x="268" y="452" type="curve"/>
      <point x="404" y="452" type="line"/>
      <point x="407" y="606"/>
      <point x="344" y="660"/>
      <point x="226" y="660" type="curve" smooth="yes"/>
      <point x="107" y="660"/>
      <point x="40" y="608"/>
      <point x="40" y="462" type="curve" smooth="yes"/>
      <point x="40" y="268" type="line" smooth="yes"/>
      <point x="40" y="121"/>
      <point x="107" y="70"/>
    </contour>
  </outline>
</glyph>
<glyph name="_published.P" format="2">
  <advance width="374"/>
  <anchor x="166" y="365" name="_center"/>
  <outline>
    <contour>
      <point x="40" y="102" type="line"/>
      <point x="169" y="102" type="line"/>
      <point x="169" y="532" type="line"/>
      <point x="180" y="532" type="line" smooth="yes"/>
      <point x="198" y="532"/>
      <point x="206" y="513"/>
      <point x="206" y="452" type="curve" smooth="yes"/>
      <point x="206" y="397"/>
      <point x="202" y="364"/>
      <point x="180" y="364" type="curve" smooth="yes"/>
      <point x="158" y="364" type="line"/>
      <point x="158" y="269" type="line"/>
      <point x="181" y="269" type="line" smooth="yes"/>
      <point x="286" y="269"/>
      <point x="334" y="327"/>
      <point x="334" y="448" type="curve" smooth="yes"/>
      <point x="334" y="568"/>
      <point x="286" y="627"/>
      <point x="181" y="627" type="curve" smooth="yes"/>
      <point x="40" y="627" type="line"/>
    </contour>
  </outline>
</glyph>
<glyph name="_tail.Q" format="2">
  <advance width="321"/>
  <anchor x="111" y="0" name="_bottom"/>
  <outline>
    <contour>
      <point x="146" y="-165" type="curve" smooth="yes"/>
      <point x="281" y="-165" type="line"/>
      <point x="281" y="-50" type="line"/>
      <point x="188" y="-50" type="line"/>
      <point x="188" y="32" type="line"/>
      <point x="40" y="32" type="line"/>
      <point x="40" y="-71" type="line" smooth="yes"/>
      <point x="40" y="-129"/>
      <point x="85" y="-165"/>
    </contour>
  </outline>
</glyph>
<glyph name="_tail.Q.ss01" format="2">
  <advance width="350"/>
  <anchor x="49" y="0" name="_bottom"/>
  <outline>
    <contour>
      <point x="310" y="-9" type="line"/>
      <point x="310" y="170" type="line"/>
      <point x="40" y="335" type="line"/>
      <point x="40" y="156" type="line"/>
    </contour>
  </outline>
</glyph>
<glyph name="_yen.bars" format="2">
  <advance width="459"/>
  <anchor x="233" y="0" name="_bottom"/>
  <outline>
    <contour>
      <point x="40" y="245" type="line"/>
      <point x="419" y="245" type="line"/>
      <point x="419" y="382" type="line"/>
      <point x="40" y="382" type="line"/>
    </contour>
    <contour>
      <point x="40" y="73" type="line"/>
      <point x="419" y="73" type="line"/>
      <point x="419" y="209" type="line"/>
      <point x="40" y="209" type="line"/>
    </contour>
  </outline>
</glyph>
<glyph name="a.ss01" format="2">
  <advance width="470"/>
  <note>
a
</note>
  <anchor x="229" y="0" name="bottom"/>
  <anchor x="443" y="0" name="ogonek"/>
  <anchor x="239" y="546" name="top"/>
  <outline>
    <contour>
      <point x="143" y="-9" type="curve" smooth="yes"/>
      <point x="198" y="-9"/>
      <point x="244" y="22"/>
      <point x="258" y="70" type="curve"/>
      <point x="266" y="70" type="line"/>
      <point x="280" y="0" type="line"/>
      <point x="442" y="0" type="line"/>
      <point x="442" y="370" type="line" smooth="yes"/>
      <point x="442" y="487"/>
      <point x="367" y="556"/>
      <point x="239" y="556" type="curve" smooth="yes"/>
      <point x="105" y="556"/>
      <point x="21" y="483"/>
      <point x="20" y="367" type="curve"/>
      <point x="178" y="367" type="line"/>
      <point x="177" y="403"/>
      <point x="196" y="421"/>
      <point x="226" y="421" type="curve" smooth="yes"/>
      <point x="251" y="421"/>
      <point x="267" y="408"/>
      <point x="267" y="373" type="curve" smooth="yes"/>
      <point x="267" y="149" type="line"/>
      <point x="259" y="134"/>
      <point x="248" y="126"/>
      <point x="233" y="126" type="curve" smooth="yes"/>
      <point x="209" y="126"/>
      <point x="197" y="141"/>
      <point x="197" y="171" type="curve" smooth="yes"/>
      <point x="197" y="181" type="line" smooth="yes"/>
      <point x="197" y="217"/>
      <point x="206" y="240"/>
      <point x="257" y="240" type="curve" smooth="yes"/>
      <point x="283" y="240" type="line"/>
      <point x="283" y="335" type="line"/>
      <point x="213" y="335" type="line" smooth="yes"/>
      <point x="111" y="335"/>
      <point x="21" y="283"/>
      <point x="21" y="146" type="curve" smooth="yes"/>
      <point x="21" y="51"/>
      <point x="68" y="-9"/>
    </contour>
  </outline>
</glyph>
<glyph name="braceleft.case" format="2">
  <advance width="340"/>
  <outline>
    <contour>
      <point x="219" y="-63" type="curve" smooth="yes"/>
      <point x="321" y="-63" type="line"/>
      <point x="321" y="64" type="line"/>
      <point x="249" y="64" type="line"/>
      <point x="249" y="231" type="line" smooth="yes"/>
      <point x="249" y="290"/>
      <point x="234" y="340"/>
      <point x="159" y="369" type="curve"/>
      <point x="159" y="372" type="line"/>
      <point x="232" y="388"/>
      <point x="249" y="443"/>
      <point x="249" y="506" type="curve" smooth="yes"/>
      <point x="249" y="666" type="line"/>
      <point x="321" y="666" type="line"/>
      <point x="321" y="793" type="line"/>
      <point x="219" y="793" type="line" smooth="yes"/>
      <point x="129" y="793"/>
      <point x="87" y="737"/>
      <point x="87" y="663" type="curve" smooth="yes"/>
      <point x="87" y="504" type="line" smooth="yes"/>
      <point x="87" y="457"/>
      <point x="65" y="426"/>
      <point x="24" y="426" type="curve" smooth="yes"/>
      <point x="15" y="426" type="line"/>
      <point x="15" y="299" type="line"/>
      <point x="24" y="299" type="line" smooth="yes"/>
      <point x="62" y="299"/>
      <point x="87" y="274"/>
      <point x="87" y="226" type="curve" smooth="yes"/>
      <point x="87" y="67" type="line" smooth="yes"/>
      <point x="87" y="-7"/>
      <point x="129" y="-63"/>
    </contour>
  </outline>
</glyph>
<glyph name="bracketleft.case" format="2">
  <advance width="322"/>
  <outline>
    <contour>
      <point x="33" y="-63" type="line"/>
      <point x="303" y="-63" type="line"/>
      <point x="303" y="63" type="line"/>
      <point x="196" y="63" type="line"/>
      <point x="196" y="667" type="line"/>
      <point x="303" y="667" type="line"/>
      <point x="303" y="793" type="line"/>
      <point x="33" y="793" type="line"/>
    </contour>
  </outline>
</glyph>
<glyph name="brevecomb_acutecomb" format="2">
  <anchor x="193" y="546" name="_top"/>
  <outline>
    <contour>
      <point x="194" y="576" type="curve" smooth="yes"/>
      <point x="286" y="576"/>
      <point x="348" y="619"/>
      <point x="348" y="712" type="curve"/>
      <point x="229" y="712" type="line"/>
      <point x="228" y="683"/>
      <point x="221" y="663"/>
      <point x="194" y="663" type="curve" smooth="yes"/>
      <point x="173" y="663"/>
      <point x="159" y="673"/>
      <point x="159" y="712" type="curve"/>
      <point x="40" y="712" type="line"/>
      <point x="39" y="630"/>
      <point x="88" y="576"/>
    </contour>
    <contour>
      <point x="135" y="741" type="line"/>
      <point x="256" y="741" type="line"/>
      <point x="320" y="852" type="line"/>
      <point x="183" y="852" type="line"/>
    </contour>
  </outline>
</glyph>
<glyph name="brevecomb_gravecomb" format="2">
  <anchor x="194" y="546" name="_top"/>
  <outline>
    <contour>
      <point x="194" y="576" type="curve" smooth="yes"/>
      <point x="300" y="576"/>
      <point x="349" y="630"/>
      <point x="348" y="712" type="curve"/>
      <point x="229" y="712" type="line"/>
      <point x="229" y="673"/>
      <point x="215" y="663"/>
      <point x="194" y="663" type="curve" smooth="yes"/>
      <point x="167" y="663"/>
      <point x="160" y="683"/>
      <point x="159" y="712" type="curve"/>
      <point x="40" y="712" type="line"/>
      <point x="40" y="619"/>
      <point x="102" y="576"/>
    </contour>
    <contour>
      <point x="140" y="741" type="line"/>
      <point x="261" y="741" type="line"/>
      <point x="213" y="852" type="line"/>
      <point x="76" y="852" type="line"/>
    </contour>
  </outline>
</glyph>
<glyph name="brevecomb_hookabovecomb" format="2">
  <anchor x="194" y="546" name="_top"/>
  <outline>
    <contour>
      <point x="194" y="576" type="curve" smooth="yes"/>
      <point x="286" y="576"/>
      <point x="348" y="619"/>
      <point x="348" y="712" type="curve"/>
      <point x="229" y="712" type="line"/>
      <point x="228" y="683"/>
      <point x="221" y="663"/>
      <point x="194" y="663" type="curve" smooth="yes"/>
      <point x="173" y="663"/>
      <point x="159" y="673"/>
      <point x="159" y="712" type="curve"/>
      <point x="40" y="712" type="line"/>
      <point x="39" y="630"/>
      <point x="88" y="576"/>
    </contour>
    <contour>
      <point x="189" y="712" type="line"/>
      <point x="269" y="738"/>
      <point x="301" y="769"/>
      <point x="301" y="807" type="curve" smooth="yes"/>
      <point x="301" y="853"/>
      <point x="252" y="872"/>
      <point x="198" y="872" type="curve" smooth="yes"/>
      <point x="175" y="872"/>
      <point x="144" y="868"/>
      <point x="121" y="858" type="curve"/>
      <point x="121" y="805" type="line"/>
      <point x="127" y="807"/>
      <point x="137" y="808"/>
      <point x="145" y="808" type="curve" smooth="yes"/>
      <point x="160" y="808"/>
      <point x="176" y="803"/>
      <point x="176" y="789" type="curve" smooth="yes"/>
      <point x="176" y="778"/>
      <point x="168" y="770"/>
      <point x="155" y="762" type="curve"/>
    </contour>
  </outline>
</glyph>
<glyph name="brevecomb_tildecomb" format="2">
  <anchor x="197" y="546" name="_top"/>
  <outline>
    <contour>
      <point x="197" y="576" type="curve" smooth="yes"/>
      <point x="289" y="576"/>
      <point x="351" y="619"/>
      <point x="351" y="712" type="curve"/>
      <point x="232" y="712" type="line"/>
      <point x="231" y="683"/>
      <point x="224" y="663"/>
      <point x="197" y="663" type="curve" smooth="yes"/>
      <point x="176" y="663"/>
      <point x="162" y="673"/>
      <point x="162" y="712" type="curve"/>
      <point x="43" y="712" type="line"/>
      <point x="42" y="630"/>
      <point x="91" y="576"/>
    </contour>
    <contour>
      <point x="260" y="740" type="curve" smooth="yes"/>
      <point x="323" y="740"/>
      <point x="357" y="783"/>
      <point x="352" y="855" type="curve"/>
      <point x="292" y="855" type="line"/>
      <point x="293" y="836"/>
      <point x="282" y="826"/>
      <point x="260" y="826" type="curve" smooth="yes"/>
      <point x="219" y="826"/>
      <point x="181" y="858"/>
      <point x="129" y="858" type="curve" smooth="yes"/>
      <point x="69" y="858"/>
      <point x="36" y="816"/>
      <point x="40" y="744" type="curve"/>
      <point x="101" y="744" type="line"/>
      <point x="100" y="762"/>
      <point x="110" y="774"/>
      <point x="128" y="774" type="curve" smooth="yes"/>
      <point x="162" y="774"/>
      <point x="202" y="740"/>
    </contour>
  </outline>
</glyph>
<glyph name="caroncomb.alt.t" format="2">
  <anchor x="40" y="548" name="_topright"/>
  <outline>
    <contour>
      <point x="40" y="457" type="line"/>
      <point x="182" y="457" type="line"/>
      <point x="228" y="615" type="line"/>
      <point x="76" y="615" type="line"/>
    </contour>
  </outline>
</glyph>
<glyph name="circumflexcomb_acutecomb" format="2">
  <anchor x="229" y="546" name="_top"/>
  <outline>
    <contour>
      <point x="40" y="586" type="line"/>
      <point x="198" y="586" type="line"/>
      <point x="229" y="637" type="line"/>
      <point x="260" y="586" type="line"/>
      <point x="418" y="586" type="line"/>
      <point x="335" y="716" type="line"/>
      <point x="123" y="716" type="line"/>
    </contour>
    <contour>
      <point x="171" y="741" type="line"/>
      <point x="292" y="741" type="line"/>
      <point x="356" y="852" type="line"/>
      <point x="219" y="852" type="line"/>
    </contour>
  </outline>
</glyph>
<glyph name="circumflexcomb_gravecomb" format="2">
  <anchor x="229" y="546" name="_top"/>
  <outline>
    <contour>
      <point x="40" y="586" type="line"/>
      <point x="198" y="586" type="line"/>
      <point x="229" y="637" type="line"/>
      <point x="260" y="586" type="line"/>
      <point x="418" y="586" type="line"/>
      <point x="335" y="716" type="line"/>
      <point x="123" y="716" type="line"/>
    </contour>
    <contour>
      <point x="167" y="741" type="line"/>
      <point x="288" y="741" type="line"/>
      <point x="240" y="852" type="line"/>
      <point x="103" y="852" type="line"/>
    </contour>
  </outline>
</glyph>
<glyph name="circumflexcomb_hookabovecomb" format="2">
  <anchor x="229" y="546" name="_top"/>
  <anchor x="229" y="856" name="top"/>
  <outline>
    <contour>
      <point x="40" y="587" type="line"/>
      <point x="198" y="587" type="line"/>
      <point x="229" y="638" type="line"/>
      <point x="260" y="587" type="line"/>
      <point x="418" y="587" type="line"/>
      <point x="335" y="717" type="line"/>
      <point x="123" y="717" type="line"/>
    </contour>
    <contour>
      <point x="405" y="651" type="line"/>
      <point x="470" y="684"/>
      <point x="496" y="724"/>
      <point x="496" y="769" type="curve" smooth="yes"/>
      <point x="496" y="831"/>
      <point x="448" y="856"/>
      <point x="394" y="856" type="curve" smooth="yes"/>
      <point x="376" y="856"/>
      <point x="355" y="853"/>
      <point x="337" y="847" type="curve"/>
      <point x="337" y="775" type="line"/>
      <point x="343" y="778"/>
      <point x="352" y="779"/>
      <point x="360" y="779" type="curve" smooth="yes"/>
      <point x="376" y="779"/>
      <point x="391" y="772"/>
      <point x="391" y="754" type="curve" smooth="yes"/>
      <point x="391" y="739"/>
      <point x="383" y="728"/>
      <point x="370" y="717" type="curve"/>
    </contour>
  </outline>
</glyph>
<glyph name="circumflexcomb_tildecomb" format="2">
  <anchor x="228" y="546" name="_top"/>
  <anchor x="228" y="858" name="top"/>
  <outline>
    <contour>
      <point x="40" y="587" type="line"/>
      <point x="197" y="587" type="line"/>
      <point x="229" y="638" type="line"/>
      <point x="260" y="587" type="line"/>
      <point x="418" y="587" type="line"/>
      <point x="335" y="717" type="line"/>
      <point x="123" y="717" type="line"/>
    </contour>
    <contour>
      <point x="293" y="740" type="curve" smooth="yes"/>
      <point x="356" y="740"/>
      <point x="390" y="783"/>
      <point x="385" y="855" type="curve"/>
      <point x="325" y="855" type="line"/>
      <point x="326" y="836"/>
      <point x="315" y="826"/>
      <point x="293" y="826" type="curve" smooth="yes"/>
      <point x="252" y="826"/>
      <point x="214" y="858"/>
      <point x="162" y="858" type="curve" smooth="yes"/>
      <point x="102" y="858"/>
      <point x="69" y="816"/>
      <point x="73" y="744" type="curve"/>
      <point x="134" y="744" type="line"/>
      <point x="133" y="762"/>
      <point x="143" y="774"/>
      <point x="161" y="774" type="curve" smooth="yes"/>
      <point x="195" y="774"/>
      <point x="235" y="740"/>
    </contour>
  </outline>
</glyph>
<glyph name="comma.ss01" format="2">
  <advance width="226"/>
  <anchor x="-12" y="0" name="#entry"/>
  <anchor x="236" y="0" name="#exit"/>
  <anchor x="112" y="546" name="top"/>
  <outline>
    <contour>
      <point x="24" y="-167" type="line"/>
      <point x="127" y="-167" type="line"/>
      <point x="186" y="-20" type="line" smooth="yes"/>
      <point x="205" y="29"/>
      <point x="216" y="59"/>
      <point x="216" y="88" type="curve" smooth="yes"/>
      <point x="216" y="148"/>
      <point x="170" y="186"/>
      <point x="112" y="186" type="curve" smooth="yes"/>
      <point x="54" y="186"/>
      <point x="8" y="148"/>
      <point x="8" y="88" type="curve" smooth="yes"/>
      <point x="8" y="36"/>
      <point x="44" y="0"/>
      <point x="101" y="3" type="curve"/>
      <point x="98" y="17" type="line"/>
    </contour>
  </outline>
</glyph>
<glyph name="dieresiscomb.ss01" format="2">
  <anchor x="228" y="546" name="_top"/>
  <outline>
    <contour>
      <point x="328" y="597" type="curve" smooth="yes"/>
      <point x="377" y="597"/>
      <point x="416" y="629"/>
      <point x="416" y="679" type="curve" smooth="yes"/>
      <point x="416" y="729"/>
      <point x="377" y="761"/>
      <point x="328" y="761" type="curve" smooth="yes"/>
      <point x="279" y="761"/>
      <point x="240" y="729"/>
      <point x="240" y="679" type="curve" smooth="yes"/>
      <point x="240" y="629"/>
      <point x="279" y="597"/>
    </contour>
    <contour>
      <point x="128" y="597" type="curve" smooth="yes"/>
      <point x="177" y="597"/>
      <point x="216" y="629"/>
      <point x="216" y="679" type="curve" smooth="yes"/>
      <point x="216" y="729"/>
      <point x="177" y="761"/>
      <point x="128" y="761" type="curve" smooth="yes"/>
      <point x="79" y="761"/>
      <point x="40" y="729"/>
      <point x="40" y="679" type="curve" smooth="yes"/>
      <point x="40" y="629"/>
      <point x="79" y="597"/>
    </contour>
  </outline>
</glyph>
<glyph name="divide.ss01" format="2">
  <advance width="500"/>
  <outline>
    <contour>
      <point x="34" y="264" type="line"/>
      <point x="476" y="264" type="line"/>
      <point x="476" y="406" type="line"/>
      <point x="34" y="406" type="line"/>
    </contour>
    <contour>
      <point x="255" y="22" type="curve" smooth="yes"/>
      <point x="313" y="22"/>
      <point x="359" y="59"/>
      <point x="359" y="119" type="curve" smooth="yes"/>
      <point x="359" y="178"/>
      <point x="313" y="216"/>
      <point x="255" y="216" type="curve" smooth="yes"/>
      <point x="197" y="216"/>
      <point x="151" y="178"/>
      <point x="151" y="119" type="curve" smooth="yes"/>
      <point x="151" y="59"/>
      <point x="197" y="22"/>
    </contour>
    <contour>
      <point x="255" y="453" type="curve" smooth="yes"/>
      <point x="313" y="453"/>
      <point x="359" y="490"/>
      <point x="359" y="550" type="curve" smooth="yes"/>
      <point x="359" y="609"/>
      <point x="313" y="647"/>
      <point x="255" y="647" type="curve" smooth="yes"/>
      <point x="197" y="647"/>
      <point x="151" y="609"/>
      <point x="151" y="550" type="curve" smooth="yes"/>
      <point x="151" y="490"/>
      <point x="197" y="453"/>
    </contour>
  </outline>
</glyph>
<glyph name="dotaccentcomb.ss01" format="2">
  <anchor x="140" y="546" name="_top"/>
  <outline>
    <contour>
      <point x="140" y="586" type="curve" smooth="yes"/>
      <point x="196" y="586"/>
      <point x="240" y="622"/>
      <point x="240" y="679" type="curve" smooth="yes"/>
      <point x="240" y="736"/>
      <point x="196" y="772"/>
      <point x="140" y="772" type="curve" smooth="yes"/>
      <point x="84" y="772"/>
      <point x="40" y="736"/>
      <point x="40" y="679" type="curve" smooth="yes"/>
      <point x="40" y="622"/>
      <point x="84" y="586"/>
    </contour>
  </outline>
</glyph>
<glyph name="dotbelowcomb.ss01" format="2">
  <anchor x="128" y="0" name="_bottom"/>
  <outline>
    <contour>
      <point x="128" y="-195" type="curve" smooth="yes"/>
      <point x="177" y="-195"/>
      <point x="216" y="-163"/>
      <point x="216" y="-113" type="curve" smooth="yes"/>
      <point x="216" y="-63"/>
      <point x="177" y="-31"/>
      <point x="128" y="-31" type="curve" smooth="yes"/>
      <point x="79" y="-31"/>
      <point x="40" y="-63"/>
      <point x="40" y="-113" type="curve" smooth="yes"/>
      <point x="40" y="-163"/>
      <point x="79" y="-195"/>
    </contour>
  </outline>
</glyph>
